<mxfile host="app.diagrams.net" agent="Mozilla/5.0 (Windows NT 10.0; Win64; x64) AppleWebKit/537.36 (KHTML, like Gecko) Chrome/131.0.0.0 Safari/537.36" version="24.8.6">
  <diagram id="C5RBs43oDa-KdzZeNtuy" name="Page-1">
    <mxGraphModel dx="1687" dy="908" grid="1" gridSize="10" guides="1" tooltips="1" connect="1" arrows="1" fold="1" page="1" pageScale="1" pageWidth="827" pageHeight="1169" math="0" shadow="0">
      <root>
        <mxCell id="WIyWlLk6GJQsqaUBKTNV-0" />
        <mxCell id="WIyWlLk6GJQsqaUBKTNV-1" parent="WIyWlLk6GJQsqaUBKTNV-0" />
        <mxCell id="zkfFHV4jXpPFQw0GAbJ--0" value="User" style="swimlane;fontStyle=2;align=center;verticalAlign=top;childLayout=stackLayout;horizontal=1;startSize=26;horizontalStack=0;resizeParent=1;resizeLast=0;collapsible=1;marginBottom=0;rounded=0;shadow=0;strokeWidth=1;" parent="WIyWlLk6GJQsqaUBKTNV-1" vertex="1">
          <mxGeometry x="40" y="690" width="160" height="150" as="geometry">
            <mxRectangle x="230" y="140" width="160" height="26" as="alternateBounds" />
          </mxGeometry>
        </mxCell>
        <mxCell id="zkfFHV4jXpPFQw0GAbJ--1" value="user_id(PK)" style="text;align=left;verticalAlign=top;spacingLeft=4;spacingRight=4;overflow=hidden;rotatable=0;points=[[0,0.5],[1,0.5]];portConstraint=eastwest;" parent="zkfFHV4jXpPFQw0GAbJ--0" vertex="1">
          <mxGeometry y="26" width="160" height="26" as="geometry" />
        </mxCell>
        <mxCell id="zkfFHV4jXpPFQw0GAbJ--2" value="user_name" style="text;align=left;verticalAlign=top;spacingLeft=4;spacingRight=4;overflow=hidden;rotatable=0;points=[[0,0.5],[1,0.5]];portConstraint=eastwest;rounded=0;shadow=0;html=0;" parent="zkfFHV4jXpPFQw0GAbJ--0" vertex="1">
          <mxGeometry y="52" width="160" height="26" as="geometry" />
        </mxCell>
        <mxCell id="zkfFHV4jXpPFQw0GAbJ--3" value="user_create_date" style="text;align=left;verticalAlign=top;spacingLeft=4;spacingRight=4;overflow=hidden;rotatable=0;points=[[0,0.5],[1,0.5]];portConstraint=eastwest;rounded=0;shadow=0;html=0;" parent="zkfFHV4jXpPFQw0GAbJ--0" vertex="1">
          <mxGeometry y="78" width="160" height="26" as="geometry" />
        </mxCell>
        <mxCell id="zkfFHV4jXpPFQw0GAbJ--5" value="user_update_date" style="text;align=left;verticalAlign=top;spacingLeft=4;spacingRight=4;overflow=hidden;rotatable=0;points=[[0,0.5],[1,0.5]];portConstraint=eastwest;" parent="zkfFHV4jXpPFQw0GAbJ--0" vertex="1">
          <mxGeometry y="104" width="160" height="26" as="geometry" />
        </mxCell>
        <mxCell id="21kfLAnAe_7e0L7t2O5K-0" value="Refrig" style="swimlane;fontStyle=2;align=center;verticalAlign=top;childLayout=stackLayout;horizontal=1;startSize=26;horizontalStack=0;resizeParent=1;resizeLast=0;collapsible=1;marginBottom=0;rounded=0;shadow=0;strokeWidth=1;" vertex="1" parent="WIyWlLk6GJQsqaUBKTNV-1">
          <mxGeometry x="401.61" y="880" width="160" height="156" as="geometry">
            <mxRectangle x="230" y="140" width="160" height="26" as="alternateBounds" />
          </mxGeometry>
        </mxCell>
        <mxCell id="21kfLAnAe_7e0L7t2O5K-1" value="refrig_serial(PK)" style="text;align=left;verticalAlign=top;spacingLeft=4;spacingRight=4;overflow=hidden;rotatable=0;points=[[0,0.5],[1,0.5]];portConstraint=eastwest;" vertex="1" parent="21kfLAnAe_7e0L7t2O5K-0">
          <mxGeometry y="26" width="160" height="26" as="geometry" />
        </mxCell>
        <mxCell id="21kfLAnAe_7e0L7t2O5K-2" value="refrig_model" style="text;align=left;verticalAlign=top;spacingLeft=4;spacingRight=4;overflow=hidden;rotatable=0;points=[[0,0.5],[1,0.5]];portConstraint=eastwest;rounded=0;shadow=0;html=0;" vertex="1" parent="21kfLAnAe_7e0L7t2O5K-0">
          <mxGeometry y="52" width="160" height="26" as="geometry" />
        </mxCell>
        <mxCell id="21kfLAnAe_7e0L7t2O5K-5" value="user_id(FK)" style="text;align=left;verticalAlign=top;spacingLeft=4;spacingRight=4;overflow=hidden;rotatable=0;points=[[0,0.5],[1,0.5]];portConstraint=eastwest;" vertex="1" parent="21kfLAnAe_7e0L7t2O5K-0">
          <mxGeometry y="78" width="160" height="26" as="geometry" />
        </mxCell>
        <mxCell id="21kfLAnAe_7e0L7t2O5K-3" value="refrig_create_date" style="text;align=left;verticalAlign=top;spacingLeft=4;spacingRight=4;overflow=hidden;rotatable=0;points=[[0,0.5],[1,0.5]];portConstraint=eastwest;rounded=0;shadow=0;html=0;" vertex="1" parent="21kfLAnAe_7e0L7t2O5K-0">
          <mxGeometry y="104" width="160" height="26" as="geometry" />
        </mxCell>
        <mxCell id="21kfLAnAe_7e0L7t2O5K-6" value="" style="endArrow=none;html=1;rounded=0;exitX=1;exitY=0.5;exitDx=0;exitDy=0;entryX=0;entryY=0.5;entryDx=0;entryDy=0;" edge="1" parent="WIyWlLk6GJQsqaUBKTNV-1" source="zkfFHV4jXpPFQw0GAbJ--1" target="21kfLAnAe_7e0L7t2O5K-5">
          <mxGeometry width="50" height="50" relative="1" as="geometry">
            <mxPoint y="750" as="sourcePoint" />
            <mxPoint x="50" y="700" as="targetPoint" />
          </mxGeometry>
        </mxCell>
        <mxCell id="21kfLAnAe_7e0L7t2O5K-7" value="SmartSh" style="swimlane;fontStyle=2;align=center;verticalAlign=top;childLayout=stackLayout;horizontal=1;startSize=26;horizontalStack=0;resizeParent=1;resizeLast=0;collapsible=1;marginBottom=0;rounded=0;shadow=0;strokeWidth=1;" vertex="1" parent="WIyWlLk6GJQsqaUBKTNV-1">
          <mxGeometry x="751" y="710" width="160" height="182" as="geometry">
            <mxRectangle x="230" y="140" width="160" height="26" as="alternateBounds" />
          </mxGeometry>
        </mxCell>
        <mxCell id="21kfLAnAe_7e0L7t2O5K-8" value="smartsh_serial(PK)" style="text;align=left;verticalAlign=top;spacingLeft=4;spacingRight=4;overflow=hidden;rotatable=0;points=[[0,0.5],[1,0.5]];portConstraint=eastwest;" vertex="1" parent="21kfLAnAe_7e0L7t2O5K-7">
          <mxGeometry y="26" width="160" height="26" as="geometry" />
        </mxCell>
        <mxCell id="21kfLAnAe_7e0L7t2O5K-10" value="refrig_serial(FK)" style="text;align=left;verticalAlign=top;spacingLeft=4;spacingRight=4;overflow=hidden;rotatable=0;points=[[0,0.5],[1,0.5]];portConstraint=eastwest;" vertex="1" parent="21kfLAnAe_7e0L7t2O5K-7">
          <mxGeometry y="52" width="160" height="26" as="geometry" />
        </mxCell>
        <mxCell id="21kfLAnAe_7e0L7t2O5K-9" value="smartsh_model" style="text;align=left;verticalAlign=top;spacingLeft=4;spacingRight=4;overflow=hidden;rotatable=0;points=[[0,0.5],[1,0.5]];portConstraint=eastwest;rounded=0;shadow=0;html=0;" vertex="1" parent="21kfLAnAe_7e0L7t2O5K-7">
          <mxGeometry y="78" width="160" height="26" as="geometry" />
        </mxCell>
        <mxCell id="21kfLAnAe_7e0L7t2O5K-13" value="smartsh_location" style="text;align=left;verticalAlign=top;spacingLeft=4;spacingRight=4;overflow=hidden;rotatable=0;points=[[0,0.5],[1,0.5]];portConstraint=eastwest;rounded=0;shadow=0;html=0;" vertex="1" parent="21kfLAnAe_7e0L7t2O5K-7">
          <mxGeometry y="104" width="160" height="26" as="geometry" />
        </mxCell>
        <mxCell id="21kfLAnAe_7e0L7t2O5K-11" value="smartsh_register_date" style="text;align=left;verticalAlign=top;spacingLeft=4;spacingRight=4;overflow=hidden;rotatable=0;points=[[0,0.5],[1,0.5]];portConstraint=eastwest;rounded=0;shadow=0;html=0;" vertex="1" parent="21kfLAnAe_7e0L7t2O5K-7">
          <mxGeometry y="130" width="160" height="26" as="geometry" />
        </mxCell>
        <mxCell id="21kfLAnAe_7e0L7t2O5K-14" value="Food" style="swimlane;fontStyle=2;align=center;verticalAlign=top;childLayout=stackLayout;horizontal=1;startSize=26;horizontalStack=0;resizeParent=1;resizeLast=0;collapsible=1;marginBottom=0;rounded=0;shadow=0;strokeWidth=1;" vertex="1" parent="WIyWlLk6GJQsqaUBKTNV-1">
          <mxGeometry x="510" y="520" width="160" height="286" as="geometry">
            <mxRectangle x="230" y="140" width="160" height="26" as="alternateBounds" />
          </mxGeometry>
        </mxCell>
        <mxCell id="21kfLAnAe_7e0L7t2O5K-39" value="food_register_num(PK)" style="text;align=left;verticalAlign=top;spacingLeft=4;spacingRight=4;overflow=hidden;rotatable=0;points=[[0,0.5],[1,0.5]];portConstraint=eastwest;" vertex="1" parent="21kfLAnAe_7e0L7t2O5K-14">
          <mxGeometry y="26" width="160" height="26" as="geometry" />
        </mxCell>
        <mxCell id="21kfLAnAe_7e0L7t2O5K-15" value="food_name" style="text;align=left;verticalAlign=top;spacingLeft=4;spacingRight=4;overflow=hidden;rotatable=0;points=[[0,0.5],[1,0.5]];portConstraint=eastwest;" vertex="1" parent="21kfLAnAe_7e0L7t2O5K-14">
          <mxGeometry y="52" width="160" height="26" as="geometry" />
        </mxCell>
        <mxCell id="21kfLAnAe_7e0L7t2O5K-16" value="smartsh_serial(FK)" style="text;align=left;verticalAlign=top;spacingLeft=4;spacingRight=4;overflow=hidden;rotatable=0;points=[[0,0.5],[1,0.5]];portConstraint=eastwest;" vertex="1" parent="21kfLAnAe_7e0L7t2O5K-14">
          <mxGeometry y="78" width="160" height="26" as="geometry" />
        </mxCell>
        <mxCell id="21kfLAnAe_7e0L7t2O5K-17" value="food_weight" style="text;align=left;verticalAlign=top;spacingLeft=4;spacingRight=4;overflow=hidden;rotatable=0;points=[[0,0.5],[1,0.5]];portConstraint=eastwest;rounded=0;shadow=0;html=0;" vertex="1" parent="21kfLAnAe_7e0L7t2O5K-14">
          <mxGeometry y="104" width="160" height="26" as="geometry" />
        </mxCell>
        <mxCell id="21kfLAnAe_7e0L7t2O5K-18" value="food_location" style="text;align=left;verticalAlign=top;spacingLeft=4;spacingRight=4;overflow=hidden;rotatable=0;points=[[0,0.5],[1,0.5]];portConstraint=eastwest;rounded=0;shadow=0;html=0;" vertex="1" parent="21kfLAnAe_7e0L7t2O5K-14">
          <mxGeometry y="130" width="160" height="26" as="geometry" />
        </mxCell>
        <mxCell id="21kfLAnAe_7e0L7t2O5K-21" value="food_type" style="text;align=left;verticalAlign=top;spacingLeft=4;spacingRight=4;overflow=hidden;rotatable=0;points=[[0,0.5],[1,0.5]];portConstraint=eastwest;" vertex="1" parent="21kfLAnAe_7e0L7t2O5K-14">
          <mxGeometry y="156" width="160" height="26" as="geometry" />
        </mxCell>
        <mxCell id="21kfLAnAe_7e0L7t2O5K-19" value="food_register_date" style="text;align=left;verticalAlign=top;spacingLeft=4;spacingRight=4;overflow=hidden;rotatable=0;points=[[0,0.5],[1,0.5]];portConstraint=eastwest;rounded=0;shadow=0;html=0;" vertex="1" parent="21kfLAnAe_7e0L7t2O5K-14">
          <mxGeometry y="182" width="160" height="26" as="geometry" />
        </mxCell>
        <mxCell id="21kfLAnAe_7e0L7t2O5K-22" value="food_expiration_date" style="text;align=left;verticalAlign=top;spacingLeft=4;spacingRight=4;overflow=hidden;rotatable=0;points=[[0,0.5],[1,0.5]];portConstraint=eastwest;" vertex="1" parent="21kfLAnAe_7e0L7t2O5K-14">
          <mxGeometry y="208" width="160" height="26" as="geometry" />
        </mxCell>
        <mxCell id="21kfLAnAe_7e0L7t2O5K-46" value="food_update_date" style="text;align=left;verticalAlign=top;spacingLeft=4;spacingRight=4;overflow=hidden;rotatable=0;points=[[0,0.5],[1,0.5]];portConstraint=eastwest;" vertex="1" parent="21kfLAnAe_7e0L7t2O5K-14">
          <mxGeometry y="234" width="160" height="26" as="geometry" />
        </mxCell>
        <mxCell id="21kfLAnAe_7e0L7t2O5K-20" value="food_is_notif" style="text;align=left;verticalAlign=top;spacingLeft=4;spacingRight=4;overflow=hidden;rotatable=0;points=[[0,0.5],[1,0.5]];portConstraint=eastwest;" vertex="1" parent="21kfLAnAe_7e0L7t2O5K-14">
          <mxGeometry y="260" width="160" height="26" as="geometry" />
        </mxCell>
        <mxCell id="21kfLAnAe_7e0L7t2O5K-23" value="Notification" style="swimlane;fontStyle=2;align=center;verticalAlign=top;childLayout=stackLayout;horizontal=1;startSize=26;horizontalStack=0;resizeParent=1;resizeLast=0;collapsible=1;marginBottom=0;rounded=0;shadow=0;strokeWidth=1;" vertex="1" parent="WIyWlLk6GJQsqaUBKTNV-1">
          <mxGeometry x="310" y="520" width="160" height="286" as="geometry">
            <mxRectangle x="230" y="140" width="160" height="26" as="alternateBounds" />
          </mxGeometry>
        </mxCell>
        <mxCell id="21kfLAnAe_7e0L7t2O5K-24" value="notif_num(PK)" style="text;align=left;verticalAlign=top;spacingLeft=4;spacingRight=4;overflow=hidden;rotatable=0;points=[[0,0.5],[1,0.5]];portConstraint=eastwest;" vertex="1" parent="21kfLAnAe_7e0L7t2O5K-23">
          <mxGeometry y="26" width="160" height="26" as="geometry" />
        </mxCell>
        <mxCell id="21kfLAnAe_7e0L7t2O5K-32" value="user_id(FK)" style="text;align=left;verticalAlign=top;spacingLeft=4;spacingRight=4;overflow=hidden;rotatable=0;points=[[0,0.5],[1,0.5]];portConstraint=eastwest;" vertex="1" parent="21kfLAnAe_7e0L7t2O5K-23">
          <mxGeometry y="52" width="160" height="26" as="geometry" />
        </mxCell>
        <mxCell id="21kfLAnAe_7e0L7t2O5K-33" value="food_register_num(FK)" style="text;align=left;verticalAlign=top;spacingLeft=4;spacingRight=4;overflow=hidden;rotatable=0;points=[[0,0.5],[1,0.5]];portConstraint=eastwest;" vertex="1" parent="21kfLAnAe_7e0L7t2O5K-23">
          <mxGeometry y="78" width="160" height="26" as="geometry" />
        </mxCell>
        <mxCell id="21kfLAnAe_7e0L7t2O5K-25" value="notif_type" style="text;align=left;verticalAlign=top;spacingLeft=4;spacingRight=4;overflow=hidden;rotatable=0;points=[[0,0.5],[1,0.5]];portConstraint=eastwest;" vertex="1" parent="21kfLAnAe_7e0L7t2O5K-23">
          <mxGeometry y="104" width="160" height="26" as="geometry" />
        </mxCell>
        <mxCell id="21kfLAnAe_7e0L7t2O5K-26" value="notif_content" style="text;align=left;verticalAlign=top;spacingLeft=4;spacingRight=4;overflow=hidden;rotatable=0;points=[[0,0.5],[1,0.5]];portConstraint=eastwest;rounded=0;shadow=0;html=0;" vertex="1" parent="21kfLAnAe_7e0L7t2O5K-23">
          <mxGeometry y="130" width="160" height="26" as="geometry" />
        </mxCell>
        <mxCell id="21kfLAnAe_7e0L7t2O5K-31" value="notif_show_date" style="text;align=left;verticalAlign=top;spacingLeft=4;spacingRight=4;overflow=hidden;rotatable=0;points=[[0,0.5],[1,0.5]];portConstraint=eastwest;" vertex="1" parent="21kfLAnAe_7e0L7t2O5K-23">
          <mxGeometry y="156" width="160" height="26" as="geometry" />
        </mxCell>
        <mxCell id="21kfLAnAe_7e0L7t2O5K-34" value="" style="endArrow=none;html=1;rounded=0;exitX=1;exitY=0.5;exitDx=0;exitDy=0;entryX=0;entryY=0.5;entryDx=0;entryDy=0;" edge="1" parent="WIyWlLk6GJQsqaUBKTNV-1" source="zkfFHV4jXpPFQw0GAbJ--1" target="21kfLAnAe_7e0L7t2O5K-32">
          <mxGeometry width="50" height="50" relative="1" as="geometry">
            <mxPoint x="140" y="850" as="sourcePoint" />
            <mxPoint x="190" y="800" as="targetPoint" />
          </mxGeometry>
        </mxCell>
        <mxCell id="21kfLAnAe_7e0L7t2O5K-35" value="" style="endArrow=none;html=1;rounded=0;exitX=0;exitY=0.5;exitDx=0;exitDy=0;entryX=1;entryY=0.5;entryDx=0;entryDy=0;" edge="1" parent="WIyWlLk6GJQsqaUBKTNV-1" source="21kfLAnAe_7e0L7t2O5K-39" target="21kfLAnAe_7e0L7t2O5K-33">
          <mxGeometry width="50" height="50" relative="1" as="geometry">
            <mxPoint x="140" y="850" as="sourcePoint" />
            <mxPoint x="190" y="800" as="targetPoint" />
          </mxGeometry>
        </mxCell>
        <mxCell id="21kfLAnAe_7e0L7t2O5K-36" value="" style="endArrow=none;html=1;rounded=0;entryX=0;entryY=0.5;entryDx=0;entryDy=0;exitX=1;exitY=0.5;exitDx=0;exitDy=0;" edge="1" parent="WIyWlLk6GJQsqaUBKTNV-1" source="21kfLAnAe_7e0L7t2O5K-16" target="21kfLAnAe_7e0L7t2O5K-8">
          <mxGeometry width="50" height="50" relative="1" as="geometry">
            <mxPoint x="720" y="850" as="sourcePoint" />
            <mxPoint x="770" y="800" as="targetPoint" />
          </mxGeometry>
        </mxCell>
        <mxCell id="21kfLAnAe_7e0L7t2O5K-38" value="" style="endArrow=none;html=1;rounded=0;exitX=1;exitY=0.5;exitDx=0;exitDy=0;entryX=0;entryY=0.5;entryDx=0;entryDy=0;" edge="1" parent="WIyWlLk6GJQsqaUBKTNV-1" source="21kfLAnAe_7e0L7t2O5K-1" target="21kfLAnAe_7e0L7t2O5K-10">
          <mxGeometry width="50" height="50" relative="1" as="geometry">
            <mxPoint x="140" y="850" as="sourcePoint" />
            <mxPoint x="190" y="800" as="targetPoint" />
          </mxGeometry>
        </mxCell>
        <mxCell id="21kfLAnAe_7e0L7t2O5K-48" value="SmartLog" style="swimlane;fontStyle=2;align=center;verticalAlign=top;childLayout=stackLayout;horizontal=1;startSize=26;horizontalStack=0;resizeParent=1;resizeLast=0;collapsible=1;marginBottom=0;rounded=0;shadow=0;strokeWidth=1;" vertex="1" parent="WIyWlLk6GJQsqaUBKTNV-1">
          <mxGeometry x="960" y="710" width="160" height="182" as="geometry">
            <mxRectangle x="230" y="140" width="160" height="26" as="alternateBounds" />
          </mxGeometry>
        </mxCell>
        <mxCell id="21kfLAnAe_7e0L7t2O5K-49" value="smartsh_serial(PK)" style="text;align=left;verticalAlign=top;spacingLeft=4;spacingRight=4;overflow=hidden;rotatable=0;points=[[0,0.5],[1,0.5]];portConstraint=eastwest;" vertex="1" parent="21kfLAnAe_7e0L7t2O5K-48">
          <mxGeometry y="26" width="160" height="26" as="geometry" />
        </mxCell>
        <mxCell id="21kfLAnAe_7e0L7t2O5K-50" value="refrig_serial(FK)" style="text;align=left;verticalAlign=top;spacingLeft=4;spacingRight=4;overflow=hidden;rotatable=0;points=[[0,0.5],[1,0.5]];portConstraint=eastwest;" vertex="1" parent="21kfLAnAe_7e0L7t2O5K-48">
          <mxGeometry y="52" width="160" height="26" as="geometry" />
        </mxCell>
        <mxCell id="21kfLAnAe_7e0L7t2O5K-51" value="smartsh_model" style="text;align=left;verticalAlign=top;spacingLeft=4;spacingRight=4;overflow=hidden;rotatable=0;points=[[0,0.5],[1,0.5]];portConstraint=eastwest;rounded=0;shadow=0;html=0;" vertex="1" parent="21kfLAnAe_7e0L7t2O5K-48">
          <mxGeometry y="78" width="160" height="26" as="geometry" />
        </mxCell>
        <mxCell id="21kfLAnAe_7e0L7t2O5K-52" value="smartsh_location" style="text;align=left;verticalAlign=top;spacingLeft=4;spacingRight=4;overflow=hidden;rotatable=0;points=[[0,0.5],[1,0.5]];portConstraint=eastwest;rounded=0;shadow=0;html=0;" vertex="1" parent="21kfLAnAe_7e0L7t2O5K-48">
          <mxGeometry y="104" width="160" height="26" as="geometry" />
        </mxCell>
        <mxCell id="21kfLAnAe_7e0L7t2O5K-53" value="smartsh_register_date" style="text;align=left;verticalAlign=top;spacingLeft=4;spacingRight=4;overflow=hidden;rotatable=0;points=[[0,0.5],[1,0.5]];portConstraint=eastwest;rounded=0;shadow=0;html=0;" vertex="1" parent="21kfLAnAe_7e0L7t2O5K-48">
          <mxGeometry y="130" width="160" height="26" as="geometry" />
        </mxCell>
        <mxCell id="21kfLAnAe_7e0L7t2O5K-54" value="" style="shape=image;verticalLabelPosition=bottom;labelBackgroundColor=default;verticalAlign=top;aspect=fixed;imageAspect=0;image=data:image/png,iVBORw0KGgoAAAANSUhEUgAAAxcAAAIhCAYAAAA8dEc4AAAAAXNSR0IArs4c6QAAAARnQU1BAACxjwv8YQUAAAAJcEhZcwAADsMAAA7DAcdvqGQAAP+lSURBVHhe7P0PdFNXnif6fv2ampLvStWT70v6yeuSuYgic5EHuiNf0oO9QvdDND2DXKQHu5Jq5Ee6iZz0JCZZXbGgJtjhrkkZagrkpBexkyliQ3V4UvqGtnIHymJWUYjpS56U6TB26sFYTEFZvIJ+9rqhlzQJ61pVIXXePn9k68/R/yP/ge+HtbF0dHTO0fm7f3vvsw+k+8jUYZsEQE1ms2ROvYZN8l7TRloA8dOu+Xmbu6XwF9oH0pjkmlum7FTCMl7zSjZtfNvhKW3gvPTf7zotBqSNj11j6kjVuDkotaSmJ6eNg9K09lHB37bOK+UurSRNHkpb3oA2MMv4K5b5ceTfpJiSvOtS03eJOZdiUupfq33HJLaJNlSX2H6peeqtZ9W0NLhRm96qXml8bhvLwlK3Sfssz28Xv0zqteiNU85vS5sPnJIvrg3WE+2f3xfE8k5qg3OkbWPziwXXEhEREd2H/i8ik3AfMcG0xgH34TFMTfvg1IYuqEQQ3U/7kdDeOt/qR8sK7U21EnHEtZexmzPaq4UTPTaAiPZa8dEeOI9EtTdO+CRJDma1NAYRbBQUi6a+K+RZR+aGBu2VGP9GNb85hsmr2stkDLE72msE0VlXh7r09IRf+6yAD/vh+Uh92fLyHtiN2sZlaUHfUYf2WvwOays8JyYQSyS1YeKnJmKYONGFpvV9UNe2Ga6jHohAQ9/KbvTtUl8m3uzDyMLvZkRERLSE3VfBhXXvOGavncfwXiesJm3gQhKBRZetDX4tsjDvGoNvp1l9k22dF1MiEz51OG82L0fy2gRSeb3k7Wnlb+xI01ymePW+tMy60W6NYM/3YspL03Y32rWfNbGvFVveqWy+Vlvab7+r/c2SiKfCKTH+Kov2qgKXwghpLyFehT/WXlYo5B+BmoUXweyT2ctlhb1Fe3llHBN6v+1OFBOpjfmQGfXay3JZnj2PyWNOKEuQiGDgmWasbqif2yfqG1aj+ZkRRJVlsKDdH4Vve559UuPc3S3CdFkII6cYXRAREdG8+6zmYhHd8qNDBBZzJb0bvQgfd6JwNq484Yvz2WN8EMqsRailu1EM7OhSM+dmF0bfHcZoZBgO5cclEHquCY3OAURuy+9LZ9vk0DKxgP/NkbnAac6dILxvpIa2o22z9rICkffTp5/E0Jt+LTjIrnER6XSxOpcIAie02oF1TjhyYh4L2nakogu/yKCn6rHmzZwYRFB7jQtdaNSCgbq61fBc0YaXyPbsGKY/n8TYYTccay0wp9eirDDDslatzZv8fBqjO0sI0DY5xdpWRT4Yy90uREREdN9icFFrdxOIHGlD48OdCGi5MPMOH6Yv9sBmZFOZu6H5DK0sOYqxS3JtzeRcpricWpCSJUVgsakJHjEvwA5vxAenHFSsdeP8tTB6N8rDRWb5rAetD7Vi6Jb6viSP92EwFTCIDLb9qRFEteZKyVsh9G1ug1/7yfbD/XA9oL4uW8KP/iNZWeQP+tCv/KYK3AgjrC2XaXMrrOrLDJbnB9CtRZZBVzO6TkWRlGsP7iYRPdEB+0sGh4YP2ODcO4zz0WnEv0gLlL6IYzqq1ubZSl1/K5rhmNsuEYxrL4mIiIgYXNRUEqGXbWjdF9RKdy1wHp3EdMAFi8Ft8GdOHMSQkqG1wb5BGYKBo0Gt9L02Eh8OoM0qAgv53gKzA8PRcfSsVT9TPNiC/sgspt53w25pgTcaRvdK7bOSWOAOpAUop7rQ9DWtOc/DW3BQy/xbXzyP0N5KA6cEgi91a7UEVvQc7xchkiyGg1s7EcytVCguGsWE9tJmzVMTsKIFg5d9WvOxGEaeakL9V8Rv+0o9mp4JqPuLsk7TAgElTcG7Tv5wMVnQtC5VpxRG9Lr2koiIiO57DC5qygTH0SjCr7TAss2L8KfTGHvRNtfUxzCJIHr2qU2iTLu8CL3RrTS3Sp70YCB1k7Lhkkh+YYLZbFJ/W+w83OmBxRwTrE8OY3w6nBl4lMqcClB64dxgmV93K8ywbe7B8EQcU0cdFTcvix5xoO2kGkGYdw+if3cvfIfV8EKu0WjbehDRciO0u7PaCxFcrNGrt9CsdGF0egpjh10i+JrfK0wWO5yvjmJqOt86LUTnBvSqkgiwtCmnszw8/7uUGhciIiIigcFFzZnRciiM6WAPWh7UBuWV1r7/co/SnGa+WdMketaoY2WSS947tZvEbeg/4IT58X4MbZffR9G3bQ9ClZS+FyWCis3d8EVn1d+WlbtPzkxg5EAbmh9uRH1GZrUejbYt6DwwDc/0bMZvzU8OUPox9vE0ZlPr54s4JkNeuB+tNKwAZt7rQOs+rY7B7ILvdacSvNj2hnD+RW2JLvWhydqBkes1qgMyWeHc6xPBl7YuRJqdHsfYa+2L0+lA2aKYvKa9JCIiovseg4uFdn0ATRmZ7VJTEwZymp8kEHqpea7k3fqKTwtAzHC9NQylE9IbQ9iytQ+RmgQYesQyvdyE+sZmdH0viIlbM1lNs5KYuRqC/3tdaG6sR+uBiPjGAkvGEHhmNRpdAW3eafeKKMxwHB1H+FXtpuuZALpsDgzdUN8aL622Yf0A1D63KqVzA3pWSr/3xnVaf5z5VKzLZgusjdpLIiIiuu8xuFjGEmc86HxTy4pu8GLsNa05j2ylG6OnXWpzoUsH0XkoUtP7L1LkZkZb3tC6nrU40RucRPzztMzq53FMBnvh1G5FiHyvFY65Z2EsjOT1ALwnU1l4K7pDIZ0mW2a0vBZGPNgD+5p2+GJhdK/SPipD9Hp1ocJSNd8FcAMaKq88IiIionsMg4uFtqYHkxklw4VToR6ezNuHEbs8COejboydy+19yrzdh/DhFrQcnsSk+FvzVjZ3g+hPNTMyuTAaHUP/NhvM6b0QPWCGbVs/xqKjcGkLNLGvH8H0dvt3/GjLqLUpL3We0aaTh2ldD8IxH9rXOjB4eRKDm/Pnjs3bvBi/Jpa1nBvR1zdrN4WL4CJmdEetVvRcTu0fi/QgSBGmRq+kfpcd1gqCLiIiIro3MbgoJBGCx64+cKx+00FMzD21eekwrevG2MRwWpOeTLa9YYT31uAmcj035ntJwvaOvMukMLejY4f2Wnwrmt7k6AFr7e83kG+mjp5H91yvRwZa1YpWbbLJC+EqmzktRRMIn9NerhOB1KI8fZyIiIiWIgYXBcyc7MPAJ2pjouSHffBeUF5SPqtscyX2ODNauBvXRACjH2ivxbdsGaXfLRiczazBKSf5lJvZF1ML2ndr0cUVsR7KebbHcnBlDEGtjZ1lu6PIzfhERER0P2FwUYBlV/9cW3zToz3YU8UToO8LK5zoS3XjmlSfSN53NopEeo3PnQSiZ/vQZutIewBeH5z3WOm3w+VW73dBBAPHFvaeklqLvu/XamOscLvS7vMhIiKi+959HFyk96qTp5tXswNe7SFmsxNetFT6BOj7iNKN63e0+0RmgjjobEKD9uA7JX2tAU3OgwhqTfZt36nmAXhL2ON98GrBaOxIP4KlNqm74sHq1LoqIRW7v8Rwd0MYOqI19NooAu5Ff6AfERERLSWsubiPzD8zo5ZNh8xwvD6pPKth+FUn7CvTHnynMMGyUn5InPxgvVlMvl75A/CWNgvcb/VDCZuSfuw5NHc3yrIWe2OP9iR4M7qPdItfSURERDSvTmQ0Je01ERkseqQZTUoPWjb0RyfRW8lTypcK+YnlDeoTu827xzB9XH3oIBEREVEKay6IakhuJja2S66biaKvRWTMF/yJgQa5G8XAVjWwkJ+pEj7GwIKIiIhyseaCiIiIiIgMwZoLIiIiIiIyBIMLIiIiIiIyBIMLIiIiIiIyBIMLIiIiIiIyBIMLIiIiIiIyREW9RclPBiYiIiIiouWnlp3FVhxcXL16VXtHRPmsXbuWxwoREREtGXLepJbBBZtFERERERGRIRhcEBERERGRIRhcEBERERGRIRhcEBERERGRIRhcEBERERGRIRhcEBERERGRIRhcEBERERGRIRhcEBERERGRIRhcEBERERGRIRhcEBERERGRIRhcEBERERGRIRhcEBERERGRIRhcLJi/hWftWqxd24YTvwRujbSJ1+L9d/9W+1zHBY86zvYTuKUNUmQMz5xuLZS0rERE96PU+fjxv8SkNshIC3H+/dvvyteQtWgbybjSEBFVhMGFUVIXGL205DLlt3Biu85yzqXaBSpERPeM+Cf4y6Efq69v/zv0vf4Rbv9KfVuaVOHQWnguaIMMMT9d/eQRYxAR1QaDiwXw4P/9Ie1VCX55Am2pC8Dz2kXr2g/wh6lhrD0gIlocX/4Kn92+hcn/cAJ9f/o41rb8Cf7dFe0zYfLYn+Hx5sfxZwdO4Mf/6Re4HS8r0iAiuicwuDDKZi+uXr06n/7LX2P3g+pHG+1N6osl6Jtvpy3z1R/im8rQX+AHf6QFMyL94ZFfKEOJiO5bvzyB9n/6u/i9x/8Q7X/xA/zNf7qtDH7wf96NN3/yd/jpX+7Go/I5/8vb+Oj9H8Dzp214vOV3sfbbPqhjFnFX+5tewFT1+fcb+O5P0s7xP/muGCL7Mf48bR5//u+VgUREhmBwUSO3R/8SJ+Qrylc78a3fV4eV5B/vxljqQvC2mtXHI9/FT1PDfvAH6jAiIlo44tzc/9xKcU5/EN/4Z9/Ev/pffoSxv/sZPvR9F1v/8dex8l98F3/94c/wd2d+hFdf+CY2rn4QXxX/Ol/uhFbOlOuXU4hqL38c+DE+014TES1nDC5qYeoEnjvwkfJyY+/z2PhbykuNWitQUmlUqiRrwWWWdv10r1rWRUR0P2t6+ae4+rMPMfZXXvzFzo34xte/mna/nXwfw1fx9Uc2ovMlL34U/BA/u/ozvPrPtC/n+BX+dugvxRVBI6bzZyPiXXoBU83Ov9/ED9Pm8cM/1gYTERmAwYXBPvvZX6Ld+QOl15Cv//EPcfSpvGVWRf0ippVpxf+bUqKV6tFj7l6MmmGzKCKiWro95sHef/8r4H/4V/jRm9/E18WwySNt+MP95/CL/1Mdp3bYLIqIaofBhVH+z1/g3IE2/N63/53aHeHvfhfvHfoD5YKRSa0VKF4adRsT/28tU3/7I0zMqC+N9uPn5y8wa9f+ubjkEBFRpgK9L80V9mRm2DNSRkccn+GTkT+Ds+eceNWE777zF9i41YufHuvESvHprcCLaGt+HD/4mRE3g2cWFK39ox/M15QQEdUIgwsjzPjwJ81tePF99bS9sv1NfOjfjW9kNIcq0y/P4MR/0l7jE5zwT+IPfqBVY6fuxagZNosiIjLcrybx7771e/iTIx+JwGIlOv/qR9i9Wv3o67//Kn4a+Wt89/cfxKN7/wrf/d2vqh/UBJtFEVHtMLgwgqUTf3XmL/DoP96K7/r+Dj89tBUPVhNYiMvOj7+vljB99R+vVGo/bh3bi383pXxogJXYfWb+wpKbxrD7H2ujEhHd9/4AXt1zZYkp1RHHV5vwrwa92Lp6I777vwbw6j/LqttueBS7j32Iv3ZXW6BTbHm9YgwiotqokwTtdcnq6uqUExTVxi9G2tF2RG5ctRH9//EoHnrjD/Hn//4z4Osb8arvh+i81atWxcu9SJ1Zjb9UmjPJtQ2VBwW/mjqHt4+8jb/5z5O4PddlyVfx4Go7tnftw/N/3ISvVxUw3Z/kpgg8VoiokF/98m/hHz6Bv/kPH+EXWeff/4frX+EvntyIB6uqyPgVbv+nv8FfvuXHf/zkF/MP+vutr+NB2+/D/dJfwPX7K8Ucieh+IOdNKsj+l4zBRQ3cGmkr/SboP/5hWveyv8Lk0Xa0vyV/9+v45ts/hXfz14Evf4ET327DD+SHNT3YiR+98t/wZz3GBRe/+NGfoO3ffqK9y+PBb+GHwX78Qe5NJFQAgwuie4l870Xp96bJzxHybtbe5PGL9/8MOw/IzaQKqOr8+xn+dr8Tfx4o8rSN3/0uxqptzktEy0Ktgws2i1pSvoqmPz+KV1u/gY2vvacGFrLf+gZ2H/8ROv/nrfD+zavY+N+pgw3xyxN4SQssmv6fP8RY5GdKZlhJP/s7/PSvvouN8mLc/hu89IbavS4RERlAnFe/pwUW8r16Oeffv+nHt+QCIzHen/f+GBXd4n3hNS2w+Dq2/i8B/PTv0uYx/ncY+8tvKTeS42c/QO97JT3uj4ioIAYXNbDSPTZ/8s6T8t4k/dVvoPP4GH70VNbnSpOoN/FNi/beKL/4L2rvIf/DX+BI3x/gGw1pFeNf/TpW/rPd8H7nUeXtry5FcUt5RUR0Pyrl3ouf4ruPaKMXc/kjqEU238Srh7bmnn/XfQuvvrxVfX/jU3yqvirLrSmtS/N/cRDenU1YKT+bI+W/+zq+8S/60b9TffvJ5f+iviAiqgKDi/vdypVqqdXf/yV6/+3f4hfxtLKxX32GW1d8+DdvqDUbX91gU8clIqLqrd+IjcqLH+N78vMt0s+/X/4Kt6/8Db73+jn1/aqH8JD6qiwPWbTuqP7Dv4HnvUnc+ixtHv/nZ/jF//49HH5Pffvo+n+qviAiqgKDi/vdI3+BH/5rtWbikx/9OdpaflftD11Ov/t7+MNvfQ/n5Dr7B7+Fo99RL4NERGQAcV599bWNao+A8vMt0s+///R38fi3+vA3vxQffv2b+OHBb1Z0w/VX2w7ih+3yw1xv49y/accf/l7aPJp/D23P+eaezXRwZ+UPfSUiSmFwsRxt9qrV72d2G1KT8I0/+2v8LPgm/tXmJjyYccOg3FvJRuw+FMDf/S1v5iYiMto3nvoRLv7kh/juH+uff7+194f46UVvFeffr+MPDp3Hh3/1Kr71z76R2euU3FvUum/iu8d+ip/9r7yZm4iMwd6iiGpILh3ksUJERERLhZw3YW9RRERERES05DG4ICIiIiIiQzC4ICIiIiIiQzC4ICIiIiIiQzC4ICIiIiIiQzC4ICIiIiIiQzC4ICIiIiIiQzC4ICIiIiIiQzC4ICIiIiIiQzC4ICIiIiIiQzC4ICIiIiIiQ9RJgva6ZHV1ddorIiIiIiJaTirI/pes4uCilgtFdK/gsUJERERLSa3zJmwWRUREREREhmBwQUREREREhmBwQUREREREhmBwQUREREREhmBwQUREREREhmBwQUREREREhmBwQUREREREhmBwQUREREREhmBwQUREREREhmBwQUREREREhmBwQUREREREhmBwQUREREREhmBwQUREREREhmBwUVQQnXV16DyjvV0CYkeaULd+ADHtPVFh6j5cV9eEgevaoDySMxMYOdCG5ocbxPjyd7T0lQY0PtaGvhMTmElqI1fjTKc63Rrux8pxIs/j6aA2pFIxDKxX10PV54HrA2hS1mmn2Cr3p6V3/lqoc/zSu5YUlr686jHQdKT6rRZ8uvJjMmPfUY6l4ue04opvl8RHQ+h8bP6cWN/YjK5TMWSeCrXzRNXnm0yFjxfjtothDNsuS1DR35ZA5M1ONDeo+0ldXb24bnYhcD3roqldB5bPuaB8DC5kSkan+ot94pMReBxNaJzbsdTU8HAz2g6MYOK2NqIO5YSb9p3cdI8erGQIIzLSiTNdsMoXze8FMXEroQ3V3E1g5lIQB59pRqO1C8Gsj2Vzy1AwGZOpzrzY12O1w4PALe3DciQiGHq6GfXa8tU/0oGBD3V+XCGpQClvut+OXYMyPMkYgkfEhfrhxrnto6T6RjQ5ujBwNjtzl2YuiCuQDMsEigzFkQ6srtem26CX8SzFfBBbNBkYMGen+pci2jilKX7tquCYN+iarKhyWgnxfWvLAOr3hRGflSBJs5g+1434S6thfS5YwXZeSGXsU/kCmBKOpSUT3JQb2Bj62xLiWLCi9Wg9+i7GMSuJfWV2GqEX4ui2WdF1dmnvKUZjcGGQ6JFmNDw2gMQuH8KxWXECkk9CIn0xi9jFEbTfOojmxlYM5dnpne9q4ytpCt51gO3wVNqwSfSs0UYmMlwMI6+NYEa8Mu8YxHhMOzmm0mwcUx8Pot0sRpgZQd+JxbuYqBf7PfBfSgUBScQuDKDDmv/40pUIolN8Z8/JibkMQvJ6AJ5NVnSeKTPAIGPJ26ZxNdwXrOg/G0X8i/l9cXZ6AqN7LQi6CmTu1vRgMn3/Pe0SA10YSx/2rlMdtypJBJ8RGYpDQO+Eet6fjYiM53Or0Xokqo1TKit6LqctX540tksbvSp685qFb7u47lgt2jilybx2jYm1LNb06fRhPhixphdHFN6X/LAdDWP4SRvMJnmYCeZ1boxe6EfDO3vQf0UZ0TDZwdrqfWI/uuLB6rRhpdf8lbZPTR22aePryDqWlHHXeTGVNmxyr1UbuQQlBXuV1fIlPw6LLRZD7KY2oBgjf9sVr7iW2DB4YRjt68xiLxFMZth2jyL0WgNGXugXy3b/YHBhiCAG9k3A9f4khnfbYVXPQKoV4kS0yg738XEMb43Ac7S8UqFKyRmwhgZxACt5JPVAzR+BL3DV6t0I9jQ0MAO3zNSb0vZrHda9k3Mn5FSALDM0oyH2nb6n/ZD3HPOOYUzJJYmfhtG7Qf1szz5/ySWJkQOd8CsTcmF0WmQMv4hj7Hn5QpKA/6k+hO4qo5Uu66I0n8osGJAz1nLtZ+r4zVe6ppTge7Kq3NVjXf48+3iOvdE8991mkfFNfNCp1Ag0PB1U1udSEjvRB7+lH6FgP5zyhXqF9oFgMltg29aP82d7gHcG4JMj4sVypR97TjSg99wo3GvV48O0VmQ8z3Qjts+NoUpq0xZNFJMfm9D6WBkZxWwz00oBxcxMdRslecfoPTKBxB3tZTluBBG8YUPHNp2Aa207OtfGEIkYuwNmBmsSxl8R817bnxksX+4RYcPimLkpzivXY8p2XlLEedP9QkDkuZIY2ncQ0QoqCqr5bbFzQcTWdcC5UhuQxrajE7YbEYSX3EqrHQYXglEnskSygr1ZVwLxAk2oikoE0P2UyGScERk5uaR5qVnRgsFz3Yg8oWXuaAmwwn3ADfkSmvhgD5qtDVlNURrQuL4LAXl7Wdzo371Il7aPfBhR9pl2DL3rhlXOzz3Ygv4TverF9oOREjObEfjekSdkQnfAh3aLmNAKM5xHh9EtTzM5hJGzyogLTAT6W9vEcWFGd7HjNzmDqFxj80grBq5qw/K5KsZ7eUJ9vXkYwb02EZwNwbfThMTJNjjeMLJgocrzV0pituRAsRjjM6uqCf8IYpt7sUcObtM93oO+dREMvVfOei2tCUvbSW10o82MIzIjMmabUvMS+6H2UaliJwcQEn9DR31zJevZJfGlLH/4ojyVAIIX1PfVmIjI0wqKgC+1N80H4KX+zqRuQUMSs7W+ft2dwOh74oR2VZzXDK4hqcidIAbfEesxOYLB1PrMLvx4xLPgJfSJDwewxdqG0FYfpj+fhs86iCbxvqwmrkb8trtJ/XPWnVnEtZf3CwYXQvTyuPw/ojfU9+VzouewXZxEm9F1YgKxRNruJXa2xI0JjDwjPjtrR/9LLdoHBdyNISbOJ7GblYW5EZFJDDzpg/dxbcBStKEP/TuC6D6wMDU59zqlxEUWlSuFK2PePozpy/0oUEEObBtG/OZwCUGrOMlqF+TEHd3TbUViIqOgTG17B9ofUAap1nXApRQuhhDR8tAFXQ8jpEyoHY5NyhDVCgecO9WXE1cWvhI78d4eeC6JFyLjr3f8ztUCzcYxebwd6maYgGd/gRobkUHp2+YRYwlmF8YCahAp3qD9rRGlJmni5S6MGFXKfieKCXHqiop9sVLW3f1wJQ/C6exD8EoiI3OXTIig6mwftmwbQHJ3Dzp1CpWzxW7IR8UMpis7peYRQ+jcDGxbW7X1mc6K1s0mRCdK2RkzZTaHzZMMadKVaebUCEKWXozPzUdt4lQyOYDdF4XjlV44rnjQ9Y66srNL4os267o1goPvtKL7eSuG3lBrKTOkmgiVkom9G8LIGzOwWMwI7O/HhLIfOeFLW56Cv3OVE85VUfjO6JxVL43CP2NFS0sJO2CFokc6cRA9GNwLHNw9gGi5tamGSiD4Qif8pm70Pm+C/2kPIvLyZDdBvOYtfA1R+NGWnmnPScUCPpGvmoki9LYHWx6uQ8OTo7Afm0LsfRcsJgtc78cwdbQRvq0NqLd3YuCUyJfdLnQdqv63Wbc6Yb3qQ1Cnae5EwI+ZVS1ord2usuQwuJAvEGfkk+AEQpHKM0G2veOIv2VVgohma/38QfKVeljtctBhw/Cn46U1j7gYQkD8SV4Il59RvOOH980G9Oxzqm3+liwTXPt7YXrTC38l1dWUJobwBW3fvTRe3QVorumTDd5r8yfVuTa5DzbCnNZEJa87EwhrpemhQrn9tLbEpTTLm8uwmrU2rXPMaHhQfTWb/ftPts0dj3NteGdEAC//XdsEW9bvsdnU3xqNln30VSkK7365JbIVva+5Ch+/SlteEYBs1t5fm8a09jKTuGg+48BBpeDEDm8kqzZEBBs94mIqB2UHjxkUTF0Yg9Ke+mxYDWgqYRYZwOkwOicOou0xKxq+op1PRapvtKHZeRCTu8OYPl7KeW4GodPybwsh9LE6xDDyYbdCfwksD1uBy9p+tuRFMfh6BNZnO8VeUoHbAXS2eBDbNYbRQ/0YPe3C+HN2dJXb9DUZxcEdXYgfGsTg0VF4pzvhyL53JdX8sIRM7MSBLgyJ8cNRH9wiWHU8E0CirPOjDZ6jLkzva0XHiSjUckORsb0ygo6tBzH77CD6tOafxkogsr8ZTQfM8J71ovvQGLzwoPUpkUmt5vxesSSi33eg7aRVnEMG0X80DO+aIbRuqjTgybr/KScVDmwTZ9ywPtyKPaeA9ncnMXtTLM+T1rRzgQnWJ4cx/vksxg81I/p2J5obG/M0xTbot63zYHDXNDybOjAiF4jIw5IJRE90wPH9Wbjf6ish6Lp3MLgQJ4mh690Yfr0FwaPqDa16/E/MX9zy3WRktshXbRd88cwDJf6ufJiY0ahlfgpLwv/mEJKrrLBeGRI7qTY4W/oNXmk3d828N4LAum64qz7hJRE71TXfpVp9MzwXsg7MuzMIvLylYC8pqW70orf86HxYHi+tJ4cNHXBbAhgzoOr7vnZJ7MNz+4kfQ6fyXdCj8Dyibau5fSaricBcaWDauCIpNxXK0jLqSsrTa83MiUE1gykk3/GVf/9CHg0PFM9KlsXApjdV+3AIA3IQsMqFToMyLIkz3eg8Ke8PIpgPhNCzVh2ezvFMj1LyHjsyhOrrEcX564QfLa8PozsxgJF8x3ae81cGk0U5Z9peG8/qXGAc/WL9NDRaSggshCuDGPhIZDZWmZRly7e9SznHL4TovtXzx1feZFBPSprEex4RgDrQ+1y52R/1OtHU2IHgZh+iItiTr4Lm7eK1vxWjTzSg9UCopO6r5c4UutY3wWsbQ2ivWI4VNvScG4PtUCu2HImUGRTI10KRqXu7BWPnemAVwepwNIzuaAeszgFEymi2J/+WWKQPprda0aBc6+rRuHUIDXJJ+THjC/GSV8V6sIn19nYDhi+H1WNWXheRSXjvdKPx4TYMXJgx9Lyl1Hzbbfr3cdyOYMBpRdN+oDeinUOUbRNG710Pmh4WmemrC3sWlbdJ/Is4JkMi8Npsy7gnK4MI/G3bejAcmlTG923PqnI39LeZ4Xw3hvB+E4Y2ac2K6xvheKsBI9diGN5m9J6ytN3nwUUC/v0Hgb0iM/5iP7o/6UP/h9pHWdJvSpV71KiZ60Po/0BE44fC6N8ew8DhPL2hpN88mnZz1/jFEEybW/VPEmWYeacNq5+bRV9U6wEl5kXjmdG0TEBMHECN6LjYgmGtd6z4GSfGn1qNNq06fN44Bg5MYs+EvLzpN7fa0by5SMk2FTGDkX0HMzJnwRc8CC5mbdDdCPrTm7slh9B1IM82TtuPS+mVQykNliW0kqE58+3867MvNLvG1ONEpLlj1yKCd/mvXIORlWlJ1Y7YbNUeReWJimNX/k2m7W3FS7iUErFuEfCrb607nLnH/Kcj6HxCu/l91yiGdmRdWFM2tKJN/pscxZjcJKsal/rR90E79jzrRt9hO4a+l6fAJs/5y3hJBA+L4GVVD0ZPifl80J+3R7Hyz/H1MD8k/tzVz3woGbb12n5WktJ69lGTgT0wyffoPRMUmfhBuHVuRi3obgyB18dgFderWMAFS9qxZ9kprhcRLxrODCFUNDM/g8C+bkzuFNN5Vw1QFHIN1uUhmI/2YKTUnuDuJhA50IpGVwx96TV15hb0R0QGc50P7a6Bsm74NW/shu/j+Nz6n50ex3BGSblBxLIHD3UjvGkUU9Pn4U4vDBCZXvdPppXmPiNP9yCUrwxJpvTIlB6MFk6tb4qVoVfDKyQig/DG2jB6UwT1G9POIcr6nMaoyKeMvDuhnGeWG+N/mxktL/owPlfAPIvpj4fRvub+CiwUYgWUrcKvLTnx0y7JbHZLY59r7/1OCat6pfEv1PeqMcklfq+48OSYOmxT1kVlySZ5r2kTmjMtDW8Wn23wSuLCK0nRfskGs9R9UflwjjLfddo4GaYk7zpIjmPT2vsU9TfYDud+Q6V+L/3zsV1iOXaOau9yzfrbxW9wSr64NkAzfbRFgkWsQ+29uo6sUu9lbUAW5fMC81nu5G1dS5OH7dr+ZJe80bDUbVb3L/OuMWl+06jbX3+fM1pc7DtmdZnEfjx5sVsSp2zx3iyOobSdRRx7yji6+3EBYnriNC2+m7XvfdwriUycGO6QhrXdf+74FOsil1hXJnl8SO3+WW2Y8MX5ueHzx7x6fGQOS1POb7nmFce0PC2X2CqZlGNOfJZz/M59J0/aII437Rw2v63FPmDWtgNMkiuQdaBmEL9vg/odZ/q6KNcXk8p07K9ra+GLcal3lTzNzHnnP3/NL3tFSW87K/ufWXIH5d8Vl0Z3miRsHhZn2nT5z/HFjL9ikbBxMGt6stxzar75zO2nFaUqj2ltmynHqnzdS+3LaUldXr3fUxllP9c9JovL2HeU4yL398+Kc0HLynbJd1MbUFTl238h5D9eZMZtF8Pk2S5zdPaxfKng+bbCVNV2LvbblhF5XdTS/RtcRL2SPTvDo1189DJmC3HiUTOKciZRGyAow8wiI5K2mPlPNuqJJndZ1d9QTnAx9bq8LBbJefi8NK2T3xjdKQ5UvaBAyfxlZfBM3SIrp6/wiXP5q92xMiv2DRHIienLaS5DquzX6jDz1kFpUtl26vYvKSMyOyWNHXZLjrUWLROvJZNFsmxwSd7glJhzPnEp/IoW7KTts/MBkEVk5LXlrDS40DKs8nfNO4alKXlhPg1LvVrmGDt8c8un7FvysDwZmfFXrOrn5nZp+Jr41hfi+E8FRmKfPT9XyKAeH/Lwyi92brEVhLzBRYF55AsuzHbJdTQsxXUKQ+TPbYd8c+sKJpc0mpnHz5AKbCrPpGhBZSqTmqIUkGSe0xbsmI+LdSGC7YzzuTbMfnhSGyBT11lF5/jLclBrlXo/1t6nKEFNizSYkcGtYj61kNrfs64v89KXt/RM7Oy1Mcn7rEOyWUQgJ+97SjJJlrUOyX14TD1ml53547NoqjBwyqfw8VL6djGM2G/Gj/dKzg0Wybwi7XebLZJ9e680PFHgRJNHNQFnhmoz/0b8tnzna520mOcCef61dF82i0peGcKWFg9wOJzVBk/uPWUUzjNtsJV94xeqeEJ3EtE3t6B1Xwyu05ntom17QxjbHkTb1j5EKq53bEBDmbVy1u+EED7qQGz/FjTW16P56aG0dqoxxC6LP+91ZPxOJW0aEr9mOrNP8TVWnd5UqHIzGHE2oGmf2vRIZJRw/lltDa/tQei01qXsuT1o2jqU9z6iHFcH0Pq11WjbN4LQ1aw2vckZzFzyw+NcjfoWvRvdohiwN6D1+3Lzp8wbh5V9eLe8RDMIuGzoOldGe4RsK+zoeyvVZW6Xer/PQ604KDfnkbs4PlzkRug09v2DcMvLmAig65F61H2lAR3K/QlmuN7vh6OUG9dLNqv9rY64GMlXBDXFx+F7sSX/DfZiffSf9ao36Cb96Nha6c2XRchNOV4S57gzTqV9e8YN8mt7MXoY8KxvxcCVMrd7NU/ovh3Ensfa4F/jRVi7D0AhN7OJeAH5Bl25i89qreuH7zuzOLh1vm128hNxfdk+BOvhEXSX1cwou4vUAqnaJ3TfjqBvk9jfzzRjOPsm/yrIz1dqfKQTow+4xHqenr9XZnYa4ZMumAOdWN2Yev5SYcnrQQw8twVNjWkdpMipoRHNT/Rh5JMSL4hi/5w40Ye2xxozOgaQj/dGsY/0nZgo4Vq/kA84NJbSFbBRT6O/K87zLQ1oPhSF47UQYmn3l85eC6F/UxQHxXVAfo7OsmPUb8vuYUo3ldkT2zJ0XwYXsXM+xHedV28ayyZffK6NwiFOuMEyrj0lPaH7oWb9/ujviovo+zF0BGK5NxyJy6LzeBS+hwPo1+sOT0du158WWNeJ3523a9sZxK6L0+fKRu29TG07OCmWfzrkhTWyB62PdGlt+a2wrhd/0tqyZ6YyHxpmbUT6nKkYC9z+EHo3WtDun8Z41n4sdykbjfSiZY0bY2e6SwzsRMDyQqr7PTdGL08jLj+gTtums/FpTL7vVtuPf+TBnhPZ+5INPe8Nw7GyBd7UTYhz1H04/GoLWkRAP7y1uvanpm3y7xuEa0PqWDHBurkHo7EwusvZ7x5wYlh8Z3CXfS4gMa1ph/ei3nFYwHZf2r6fLxVrI2+FTeump9oHkGUQwabvsDbhSx60PqP3wLwZTGvd0Daa69UX5bgTRuCiLW8m1bY3jMnXgNH3o/mDgWwlPqG7Mc8DABORAIIWLyYvZgU7MjkAj3Rj+jUvquggcE7L62Lffs2EIbuaCa7fPALrsSmE9a4vJcgIIHWSERnYxGUfAolujF3LatdfjbtBdD/hR/MxsT5ed8O+Kq1HN5MZ1g1ueCNRDNv9aHupcGY3dmKLCFLcCFnEcT2RFqSINHstjJEdMxh4rAGrX44U3qfuROCxiQzh4Rm0vx3OyDBK8RjCb7dj5rC4dtvEuY+9FhYVe6MDnuvdCEdH0bPNBnNad+CmB21w7h3F1EX5AZId8x23LBP38m9bFOIgK1uFX1umSqjK/twnOWGSukPae12zkm87JOyuvuqvUDWp3FzJ8krqjod5yndMrrn7SzKE5KZM7ZJP77MUpXkDJPdP1LfKvRUZTUf0FWsCIVeHml7M12hq+Vsax4q6DxduFpXWLCegDdKhNIcT41RdDV9ps6gyKPuePI+qq9sLNFkqV95mUSIkP6Qub87xkFbNXnz+qW2dvo3i6rlHGZ7dFFQ2LvVa5M/EOSzr/q5aKHZOkOW/lyHNx72SRW5yFdPeV2yhmisVm09py2FYE5Ki0penhOY3JTZJKb79xyS3mK/zeJEmKJGeott/+phDgqVHChe6Tn0RlnrE/p97r2K6hWkWNbZbZ3p5k9z8uPh2MXJ/KW1a5R9Phi1jFc2iDPttbBalYFe09xi73YaZj8ZzmsJYn/fCbfKjbasHwVTXaneTmLnQh9Y/GoLtcD9caZF66PtdGLmkNY0R40Uvys/caIdDewagZXefmN4QOpwDCKX6GZR7sDnbh7Z9pVbBTiB8TpwiWyrqWZ0MpfV8I/hf6MDQpZjWp7sqmYhh4u0OdL+nvm98sIISbirItsmhlPQmT41V/nwIXWa43h2DS6lVSMD/hCOzBvV6CAHlhOFA66PKEEXAVYf6F+SnG9OycPUgmupaMWTUwxDLtcoOhymK4IVCNW8JRC5GYdpkV2tBlxmRiVdrPQqlnAccRnHQJvfIVLxG0nlcZ3p503m4S6uWNkzzYyIDcCao1nDncymMCFrQmnFZL/z0eeWp7dndnKenfN1VG6jy36Yn8zlR+VJNex5dZAwujPCAC97DNgz9UVP+J3Q/14zOM3Z49xn/ZNV01m3tsF4YwWj2BeYBJ374v5/H6PoQ3Fr1vfyAP9u+GHa++3FO05rW7S04//Qqta3zVxrQ9p4NvpujSgDy5c9/PtekpN/iQ8fD2vQabHD98LfQp/Mble9kuyI/4dSJzu3VNZMhI1jgfsuLFrkJyUwAex5brfXprqb6htVofiGgBq0bvRjctcBXtfvB493oWSX+zhR4PkSlzE6M+N3avQcT8LTsmbuIzpwdVZ9tsqMz7annEYQ+MMH9pEN7v7Ds+0bguroH9gJP6G7bfhDJXf1wy+uMMHMxhOjGTnSU252sUVY40P++G5PP2dD68ggmbqR1F51MIHZpROx3VnR+7MbooUL7lRO9xx0IP2ND24EgojOZ3U4nb8cwcaILTZsGUP+dIXQX2P6W3YPwrhxA63q5sCyWeS/gHXWZuuT7gVaKc5pyX1gNzIQRutqCzh3L/5xpeX4E3rVDaLV1YOBsNGN9Jm+LwPJIB1Y/dhCW17PvNyqnm2WdVNPuqlWV/zbSJTZc2Sr82jJVehVf/OKg5N5skyxad6CpZF5pl5yvDkvjn2ojVqlwtbLana311fneUO5euybFf+d3pE/Fsnx544Y2NHN4/NFH5z7LN1wmf5ZveDnzkJ1/3iSZdo0V6H1o+Vsax4q6DxduFqUp0FuUbbO7SG9RZWCzKLFVcindYcuf53SXWiNfpLovzuryWm5ylNaltJFKaRalEPvi6KtOyb6yxvtiBc04KlNsPqnjtISUs0+rzW6r6kq4oBKaRWmM6i1KfzoildsrUb4egFaYJcsGp9R7fDyrxzU9ZTSLyjrPzsrH9Pb5XuyMVWKzKN3lzE4lNieqQW9RhqmiWZRigXuLquX1rxh5/rXE4OJepPT5rz4H4O7UlPQPDz0kffanfyp9+ctfSv/w278t3Y3FcoZ/tmuX+lm+4WnfyTe8nHmo93A4pOGS+yJfnnisUHnmnxOS/XyIWlC7nM7qrlWQA4D0Agpa4r4QgcmKIvfN0aKQM/cZz9IhWgJqnTepk/8TMymL3Eyigq/RApJ7r2o6243/Y8ID0z//5/jae+/JGw6ff/vb+PW5c/JuhX+UNlx+//mf/Al+/ZOf6A9P/85f/7X+8JLncRY/WvM5Qi/HMbazjF55liEeK1Q2pUvEJngu2eGNjmf1vGWgqwNotnkwYXZhLGZcd6RERLS01TpvwuDiHvfrH/8Y/6itTc3cy37zG/z69GlgxYrM4TL5s2BQf7jed8odLkvN45vf1Abc23isEBER0VLC4IJoGeOxQkREREtJrfMm7C2KiIiIiIgMweCCiIiIiIgMweCCiIiIiIgMweCCiIiIiIgMweCCiIiIiIgMweCCiIiIiIgMweCCiIiIiIgMweCCiIiIiIgMweCCiIiIiIgMUfETuomIiIiIaPmp5RO6Kw4uarlQRPcKHitERES0lNQ6b8JmUUREREREZAgGF0REREREZAgGF0REREREZAgGF0REREREZAgGF0REREREZAgGF0REREREZAgGF0REREREZAgGF0REREREZAgGF0REREREZAgGF0REREREZAgGF0REREREZAgGF0REREREZAgGF0REREREZAgGF2c6UVfXiaDyJojOujp0nlHeVCx2pAl16wcQ094TLX0xDKyvE8dC9fu/ekyJaeU9BpKInepCc2O9Op5IDbYO9J2b0T6fF3xa/bzpSI2OpqLLWrqaL+t9IP3cadR5VJnO0+oZfiEo+8ECzq84Y65rBV0fQFNdEwaua++rYtzyLr1tYbTMdWXI783IE1G6xEdD6HysQb1miFTf2IyuUzFxRUunXUvv6f2uuHs/uDDkQJnPeOVNDCZoiUtlfis66aUy4flSyft/QixHI1Y/NYKJmflTcuJqAAf/qBHNR6LakCooGR15uao87vMGHuoFvc6wzNT9IrXedFJZ+2Sx83Gtt4sxmd/k9SAGnm5GY1qQLaf6xiZseW4AweuZWZYMc/t4gWRU5uZ2EH2O1ajXptvo8CBwS/usLAlEjnRgdb22fA16GTPKZMy+Nnfuz5uWYDBR7Jozl4oc76UcK1oqtJ4TYnmsLQOo3xdGfFaCJM1i+lw34i+thvW5IPfjLKy5KIkVPZflnUlL17ywiX/ea2nDLveIsUpX/GBPpaWRgUleGULHw+oysWSWKnbFiz0nE+KFFd2npzErHzuz0zj/il35eGLfHozkVmAYRCdT+oRf+4wKUUr/09db3lT8fOU6nXbeTKV3ndqnpbMdnsqdjnJuXvrkjErjI26EVvUjdDme9htEhmViFD0Wkal8xIqus3myLGt6MJn+u0+7xEAXxtKHVbBOcyTk5WhDcOMwYnKGShyrvo0hdKwXmVH5MC5ZEsFnrGg9BPROzCrLNxsRGbPnVqO1rAKF4gV9RtR43Guc76btF9KY2FOyj0MfytlbSj8fVLk91nkxNbeM+dIketZo4+vJPlZ0k7pO8ovC+5IftqNhDD9pg9kkDzPBvM6N0Qv9aHhnD/qvKCOShsFFJRJxxMXOFvq48lg182DPk0q5UF4dQPNXmjFwVX6jf+Ktf6QDAx+WdSXIdMePzvV7kNg3pWQGJ/cWCqOSCDwl5ms7KNZQme5GsKehQZyMqlhWqo3tPv19VMnUlC52NqDWAuz0YnC7RZyeBZMFjkMj6LXIb0Loapzfd9tOysPuHdEjzcrvStXQ5CtkaHi4GZ1vRpC4q4ymmL+gZ5Uy3gmiq0H7boP47P8bQKdcOiy/NvJQKnahXzIZ+yg8j2jrQ6TV+wyoDTNUDCOv+dF4KISx15ywPagcBRqRYbHY4HztPIJ7gZEjPtQs1i5BaH8H/PZhBA85YJEXUzlWQ/Bt8qPjpTJKa6/0Y8+JBvSeG4V7rfp7TWtFxuxMN2L73BgqsyZEN7DUkm+7NlIJ5CCvYe44KaVmTbvG6tQKqcd2M/o+EhO7NYItc9flJeZOAvLPDUUm1PcVsO6d1F33malYhn2BlFRz0YaCxUw3ggjesKFjm3KRyrS2HZ1rY4hEFvNIXXoYXFRgIuDHzApxKjo0gGjaxX/B3Y3i4JMeNLwVRM9abZhs19j8AT4bx/h+oH9TgVKwYs6NISBOE93PW9XMYK2saMHguW5EnuiEn/HFve1OchGqkbNqIOVUZnBUjeTZLrTuExf0zSKztrdwNjxxawL+l1phfSaoZATySyD4QidGlJHM6D7jg/N/bMeQ3wVTwo+2rUu8uWZW0wdjAoHMWuWpwwaHPFrmrFrxz407ApJimQx3N4iRt5NwfceNzCyVWQzrBk6OIHBHG1TEhH8Esc292LNBG5DyeA/61kUw9N4i7KWJALqfEgGFfMyYtWGCbuBSpBZIDlJa98XgOh1C/0YxsZUicHq3EZ5tfZhYzDyCjoT4vUGRf5l5w4vAfXOdzWppkicVC0yTutsyidn7Zj2WjsGFQlyES4leZVcH4D5ig296El5TH1rzXfyveLBau2DWqpp25sQe9MGL4Wd1oukUkxm23T4MbU+IC0Wgogxd7LpawmESJ6TiTGh/Xxyo0d7KSjE39KF/RxDdByLaADJGEonUjnp34bP1KdZNTpE1Ec50o/NEVD1ZJ2cQ2u/GQaXgRwSYN+dP9mO75GGLLO1YVlMJ54lsdyfQ/8KIOFdY0Xs0O7MmpNUKzN48j14tE5Y4uQfeAtXtifc60aY0MwPsh8MYfFx5CfOOIYzIF8pLHnS9s4RL1LJqxAwPBGrh6iTGxZ/o9UozxFa4D7iQ/L4TbQeCiN5OPx7FcToTRfDAFjiPJOHe25m7r+iI3ZCXZQbTRm7qG1FMwI7m9dr7dI+1woEwJksqmY8hdG4Gtq2tOr/FitbNJkQnKi9Fr1TkgBuBJ33wasdMxUSewPGEH1Zx/Pm2z0cp5p1e9OIgPCdqf/z5n1DPTUVrehPi2vpCFL2ROMaeDKJja74C0lSeaJGbQeece/VTzZvCrXLCuSoK3xmddXFpFP4ZK1paSjlS7x8MLhSptqpFqvHk9qct/bAFfHA9aENPRAQYM27YnEOIZufX0jIL5VTTli6KwUMhtO/vFqfnYkywt4iLdmwa09qQpcsE1/5emN70wl9iqRiV4G4Y4XPa6w9CKDt0yyphnkvl3rOwsQ++XfIFOIHAM02o/4qYRn0jtnxfzVzYD4+ge6Xy0gDzF8jc1IlA1SWKmc1vCl3Yk6f6cfCGeLGjH33r1GH5mFY60P9Gt1ZLGEMs37VdztS41OYZ5l1jCGXUhqily/I0QocGy2+iuKzVtllU7EJAaao0cSFSce2bWQRV0xc7Mf69NjQ/Mt/7TF1dPRptzWj73iTcF6cxvK2UumIRnJ+Wf2MIoY/VIYaIjos1aYNtlfY+3QNmsYfNyJeU0sgraoX+b7E8LK5gl8V+rr1fEHf88L7ZgJ59Tu04q9AtPzpaPMChSYRzaiNt6DvkXJDjL3X/RMHCmLtRDGxtQ3T/GPo3mOF8N4bzLUMiePQgeFsbZ878/TuFm0HXUL6muDqpeB4r85yQN+XtBMEGz1EXpve1ouNEFAnlwE8icWVEBGgHMfvsYNHz+v3mPgku9DMZ5UTkiQ8HsMXaiZn00okVNrh/EkN49wQ6rB0LW8X44RAGbrjgfrL0i49pc2tOIJLZtVo9VrcPIDJ3olHboKoX59Q6TN2wqX4m3x8ROdCq9iSiHZi63eHdnUHg5S0ZPYV4zooMpt64GzrgtgQwdkF7T1VLnhrCUConlByBb9HWrXxRm8bU+27YlUbcKvNaB3ren9K5QNfKBGJyZr8UOfcalNuWeAa+dwLKq/Yn26vLzKTIGYVdHvErhHX9CB/XaoTSbXajRy5MuzGAoQ/VQUtBqpQ1M2XdR1KVWjaLimLkrRi6j3vRcmYQI/nuFTjZNv/b8mRYTJZGNIhl7f9YvcE5lWY/7hdDG9CYdnwUdGUQAx+ZYF1lgv+EP2/Ak77ea1PSm56BM3J7Gm/mvREE1nXDXU2GUC5sXN+J0HYR2L9i0z2uTds74bwRQLDKTll0j5kyeqhMXg+gy9aEoZbzaYUQZjiOTmH6nUYM2Ztw8BNt8L1G54ZuJQhLbz6eSgWav8kFArFIH0xvtaJBycfUo3HrEBqOTSF2rMog9R507wcXBaLfkiPyG3507hyB3S8i/WezL1TipP7kMCanR9Gec3UvlXqTmH6w0wjzA9rLNLFICMnNDjQXa6p0R25y4sSeqy6MvtaiDVTJbcBtLX1IvhDG7BdincxOohf9aH1kDyJKqa4TPrGe1ItzqiQjs2eGxKl+jFh9iMuf5Tsw5YxQSyM6LrZg+JrWU0jUi8Y3nPBc1MbJYEfz5upuOKM0dyPwvKBmblVJDL10sLL7hfLd1FtWb2nqMTM+PZ+pikfPw/tk7j09qY4Pyio9K6l3kCI9jJQkMxObt9TwbhghJZhzwLm5+CUoeSuEvu8MaZnEdrSJYyFb+EAbPJfkV3Z4T/XCpnsesKN1m/w3idHgUjiW1PNJ5nZIpfJ6q5FF963OzGzJ6RFPTUuJE+95cBA96N7dg/7nJ9B3OE8dYHrGxYhem/JKInhYZDJX9WD0lDgGP+jHUJ6MbHrvQCXVptuaxR4eRVQvCJ+ZFiGzBdZG7b0i/XhI3571MD8k/uRpjjlzU1z31lvLOH9Ub/xiSLewrWR3J5RaAP8ar35gn/KAOAbXVtP5S4FjptRzbjKCvu3dmH5pEpNHHTnLan68B2M3xbX/UW1ABXQLFBUmNDRoL0uiFlrmHNelpjyBvFHMG7vh+3i+d7fZ6XEM61y3SBArqGwVfo3ympK86yDZDotsW7rTLrGuXZLI1OcQGRnJ9GJYe5eiTkfePvPJLDleGZOmZrVR5kxKvasgWV8Z195rvjgvdZsgOf3zXxDBhc5yjEkuefo7fFL2pOVlExdX7Z0kzfrbxfedkk9EIBm0eaWPm6LMc+eo9m75WvxjJS62h1ndF0wuafSaTxIXfeW9Waz3+U0yv++ITEguZV8Un6/zijGLKHFcdb9S51ks5RwbCyHv79D2fdgkkZmao+z3est6zSuJ8Fys/24p+4hNfUc/maV2/7Q2Zvr6MktmszbOun5p8gttBB1Tr9vV8bbnHqflKH1bZa6TpUBZdp1zTNniYrubzZI7qK3JuHwsWaXej9W3Kdnnvzmp/anCpHtcXuyWzGJ/UJcpLo3uNEnYPCzN7zUydX/V/X4hX6jfa0+7FsxRfku75Ptce6/s4/m3/fgrFgkbB7OWS6Z37Su0vHmulXnobwt1Go5j2UuTOq6zU/rvSr/GmiRXIPuilkteBtuhSe3dvUl3PRfZJ2orfTtVkEq5zi1z8u+spfvrnou7CUyc8GCLrXHugUBKamhE8xN9GPmkxHZNd6IIHGhD88PpbWXVpzW2HRjBRE77xdqwPpznBqJUqdnsFIZ3AKG3fbn3hFwNIHDDBvfT6vMF5qxogr2l9FoDxzZH0ag9dDYA7HTDlV1kssIBh1i+vBa6He695u4M/E/ZtBt+zXC9P4T2NS74TruU0qvESbEPPxPATNX3HixVxfvEn0u1fAim0nZdWGMt6eZcpWZncw9Gr01jdKfeN5zwvqWVC1/pQ0eB5wRY12g1rVXeb5Xb9eQUxMVbp2ed0mqESn7OTwnbRXkY3XNb0JTxMDr53oUt6HozhPoXxbJXW3ugtVcPbvfBm7oPwiyOpUCLGF5il79ltCHXSzm1DXKznO1D4nyfWiYz2t8ahWuiC04jHka5wgn38yYE3snuDjcB/zt+mHa50a5Tq67H7nLD+tEABpXatjQfDqD/Sgu6dy5kvYXKYtE/Gkvap3eNYvKwDf52Bw5eKV4rEY0ac3ZJfDICj6MJjanmxXL6SgMaH2tD34mJjK6r85I70HizSycfVMLDG5cNnZ4By0l5a4XKuKbUuBZlqbt/ggtxIu4SwUDz4QRcJ8OYVp6wqKbZayH0PzqBPnsDWt8oclK+OoBWcRB6rjrQfzamNieSp/PFLKYjI2i/dRDNDxnTv/XMLXFCWidXTVfIZIX7/TD6V/rR8UIgs1era5NyhTf6bNkHRSO6LojzTyKujVhYvhP0vBiicpyS52a+0nqgorIlJ3DwsUZ0npKzBWY4js3fKyS3HQ0fU6vHYyc6YHshlLeddo6CvXeUd5N0KX2lj90rvUUVk9HcbBZTIa8IBPOH7Y07fWLdqNszur9VufdpOSnlOT9TJdwroT6MTmTuLSIYS38Y3ew0widFEO3vQKO1q7TMfz7JKIacrfAgtwmM3CvX6PYg2mxdCJRZqFTVE7pvB7FHZChzmuWYnfBFvIB84+l71fdS5DikBiutLwWhPFBf6dnNgc6LLoweLaOd+bp++L4zi4NbOzByVf1dyU+GsEUER9YKOnHQbRKXlrrOaiPWjAm2vSFxDMbQt751AZ5nkUDwmUY0PDaAhAgmw2lNSqV4DKHX7JjY34yGTUW6x5fzQdZGdPjNWfmgWcSjqYc3iuuGEeeTm3LhoB22apqfJmNaQW5WIFTfiCZHFwZEHmxhQ6HSgpYlcd1aZPdNcCE/DGjkwX5MXh6Ge4NVe8KiyvSg/NCiMUx/3IuZl9vQl7frxxkM7fZg4tnzmHq/B8515vnMscg8m1fZ4T4+hfFXEkr/1tWWHVmeDxdsVxmPl3ACWGFD79vdML3nRl/6TZ2PNImgpUDfz4a1E9ba2+qawXShhyeJk2BGk14qncmuPrBqjR09wdx7hWxiH44Fu2HbKDInbxWvfSrNBKJl3LhYylNejXqIXnp784y0EA9+U9quC9djWSXA1TDDedSn1QYm4H/CoZvBmZnR5viQWRyJ95i7QXQ/4UerfC9c9sPoTGZYN7jhjUQxuGoEHftD2gcVuBGE79NOnD/Xo3Nvi9gOx2MY3SqC93Olb93SntCdP5OXiAREQOXF5EWdZVrbg1CkG9OveRGpNuclByvXwui+tQdWubRcZOo6P3KIQC7z2RClaHk9ivBrJgzZ1WCqfvMIrMfK7cShtMzdsHKvUWGJO1WvHLHtw/BumICnpXDtlWVllVeyC33oONGA/suTGN5thzU9A/OAGbZt/Ri7OY7eGQ/aXsuf81DyQasGERUBaGY+aP7hjTF/qzifuKvvrXHzIGYruJdqzvUhtH5ttVaQG0U8VZAr0uz0BEb3WhB6ZjUany78LKCSa0lF4tPdjXOfBBcxTFxMwva0K8+Nj5oNrWgR4+bt+hHjCH8EtG9zaO/12VtaxAWptk16rDYbZq5ES4vaH+9XnnMx9HzaTbxrWuAwRTF61rjsjj4LWh8X4dGpIELZJSq3xuDP02tR9HIUplW8UaoqD7Zj+No4vNv0cwHmbYOYjOhlmHSU1KRjEr3pD3Nc7or+5hJvChf7sdL4MBnFpJGHm5zxO9erFT6IDM6u3FLL6dik8te0rqnEJlkLo5QLftEuZJXnMNjgeKxQLtcCZ7sNyYsTlZ+PRWY9PDEIR77ZrDCj/d3JPE3Y9EzA+5wftqMTBZ/QHXrFBP9rI7rLbd4+jCk5sMhzgjRv7Ec46kWLESfQB1vQE5gSGUV1v5+Wa9Uq6i7ajJYXfRhPlZbHF+tmWCus68XVXFxjqrbChp5zcu9xfuWBlbm1BmrNfVPmne9li10KIbnODVeh8+sKO1o3iXGVZ57o0fJB7c6C5wLzYw5xVEWNfWZKBSJHPYhsHcZ4dkGuYDJb1IDq40HYTrrhzW5ul6aUWlKp5B4AS2sWZVSh2HJ2nwQX4uK+yYTou/7CVYaXwojIJ568zT+b0boRCJwtXAo2EYnkac6UrycEEZ1fKV7Vm96Gz7ZOZFfOhdWuKIsyw3VIZEKu9GFP6oE+KxzoOWRH5KVWdJ3SHmYmJG9NYOS5zrw9jlTC9vIgXKYhdDgHEFLq1sV8rgbQtTMCi24J04TyTAZHS9b9IHRv0usSMCstWl/rRljRCofS41MIgQsGV+JvEBfYw9pxcsmT9VDPGEJn1OM941i6ehBNda0YKlRrqCjUc0sJ56xibY5L2O4Fe8RZZRNBm9wTT6FyyxkEA1GYNtmzphPFQVsdWt9c5BwULQq73YaZj8aNqUnUmqLZ5ePvKX/mPWx3IghdsaDFnsrOV7bfWTc4YLoyAn+h5ld3xXXzohh3Vb4jRssHBYIFf3fi45BYSrvO803yZ6yVzHR698t6qZb3tS2w3PtydFJNe4lb+u6bZlFy21H37T40re/CyKWY9hAUVfK2/ETUNjQ+dhCW18fQn7fvawu6T4iTyDtbsPqpAQSvJOYfB39XfqBKCEPPrEbz983wyt0Cah/NK9CtXCkpfWfd3Ib2As8r+PLnP9deadb1YXCXCaEXn5t7Hof1O+OYDrQjtr9ZfZiZOAE0bvUgurUfbq1ENmc6aeTuBvT85jPtRYpStT6GFz77t9iitS9u3BWE871BdMilgZ/9vTpeyhX5iZdOdG5nvcV9odhFSU5VXpj0n60gUo27LlVZ0Plsu/IqeHTEwKZRKtveUXjnnujdho7UE7lvBTGqNPFszziWZi6KzMPGTnQULX028HxVCyucGDrtQthlxZbsJ10nE4hdGoGnxYY9N9wYPZRV2zwTRuhqCzp3LEZ9jh2eYy5EX7IXeEJ3G5zfT8J1wJ0/uKKKWbe1w3phBKNFA+wSyU3RxL6IDzphSwvwk2dGEbS40aEdnxXvd5v7Mbo7jr71Teg6MYFYegbmTgLRs31oe7gZBy1ejB3I38xMyQfd2ANbiycrHyT2uxsTCBzYAqsrDNfpIThzarRrdZO0vpaXvGg51wWbsy8zryUkEzPqb35sD6K7xHGeWr+0dIiNXrYKv7b4vohL48d7JMdaiyQutfPdjpktkn17rzQ8UbxbOcXnk9Loq07JvlLr4lNLJotdcr46LI1/qo1XY+EXxfyzuoK9e+2aFP+d35E+Fcvz5Y0b2tDM4fFHH537LN9wmfxZvuHGzGNSem01pH+iDU85/7xJMu0aq6rrzKVC3i+Wh/mu+8rusjJbDbqiraxrwDK6IzSg60GlO0YxLd1uMr8YV7p+FpG21H1RG1ZjyvlBLI85o8vqWcm3PbOr6cWQWlelpGL74+y1Mcn7rEOyWUxp3zNJlrUOyX30vDSt81Nn/c6qu+fNR7dbTh2z10al3u12yZKx3PJ1xCY5nvVKY9eMWroKu6Ith6Hdjhq3vPm3xbQ0vBmS9dVadhE7LQ1uzDwfVLvfxSeGpZ7NNskid+Ge2mdWmCXLBqfUe3xcihfolnrO7LR0/qhbJx9k9H5ngLm8VtaymiySbbNb8ganDDqGS93nyunidul1y51OXsZaur+Ci3tNVj/rd6empH946CHpsz/9U+nLX/5S+off/m3pbiyWM/yzXbvUz/INT/tOvuGGzOPfd0v/I+qkl/83dbgi2i8uUg5p+Kb6drnjsUJzol7JLl90VvVK46VkAqohMnvKvMwuaSy9zER+dsGKtOcT3KfkTKfu8xvo/vFxr2TVe/6SQeIBl2Qyd0vhtGOd+x0tFQwuqKD4aZdk1k5gt81m6bNvf1uSfvMb5bPPnnpKut3QkDNc/qt8lm94+nfyDde+U9I82pol17PvSOM3xUlVHv5khzT5tXppUx2k/+uq31cf5CZ/74tJybtBLlWt0dl+EfBYoXTK8Sr2icwHGBpMO47kWhLX6XvnWCIy2uRhu85DBw2gPHAx9wGLREtFrfMmdfJ/YiZlkdsqV/A1qrFf//jH+EdtbfIGUgf85jf49enTwIoVmcNl8mfBoP5wve+UO1w2N48tiP3Nq+jaP4SQ1ne7ybwa//Kp5/H2YA/MX0n7zj2GxwoREREtJbXOmzC4IKohHitERES0lNQ6b3L/PKGbiIiIiIhqisEFEREREREZgsEFEREREREZgsEFEREREREZgsEFEREREREZgsEFEREREREZgsEFEREREREZgsEFEREREREZgsEFEREREREZouIndBMRERER0fJTyyd0Vxxc1HKhiO4VPFaIiIhoKal13oTNooiIiIiIyBAMLoiIiIiIyBAMLoiIiIiIyBAMLoiIiIiIyBAMLoiIiIiIyBAMLoiIiIiIyBAMLoiIiIiIyBAMLoiIiIiIyBAMLoiIiIiIyBAMLoiIiIiIyBAMLoiIiIiIyBAMLoiIiIiIyBAMLoiIiIiIyBAMLojuKUF01tWhrq4JA9e1QRWJYWC9PJ06dJ7RBmW7HcFAexMavqKOV1ffiObnRhBNaJ+nXB9Ak7JMnWLpaqGEZS2ZUetvuVHXYdORmPruSBPq1g+IodVQ12X122ShGLW8JUxHOXZWo17Z10RqaELHgRBm7mqfa4zZDoUYt41qv6z3kvTjLfPYq0bwaWOmU7IznYac1xdm3yljXy/yu+T1XPd0ba5m+pbbuZTBBdEyM5+RLv8iMv/dfKnkk9fVATQ/1ArPB1EkUhmi5Awm3ulCk1WclLMDjAooJ3CxTNVeLPNOR7mAiM/uiwyRQRmY1DorkJbsBbCajNBcgKyfylqv14fQ2tiK0XXDiH0uQZIkzEb60fDeFjS2DCCaFWBUoubBobI+7rcAvAwFjpPyjg91G+hNR021KrDRVHHM5N8Hjc4oJxE75cGWR+rn1kt9YzO6TsXEJ8vF8gseimFwQURlSsK/34MJ8cq02YvxVAYpOox2sxiY8KPjQEQZsyZyLtyr4bmifUa1td2nbOtUGtslhu0ayxjm266OWgolA5KxLfOnRb3wrunBZNpvnE9T8K7TximJOHb27cHEzjGEXnPA8oA61LS2HcMXBtFyyYM9J2bUgbQIihfAzKWiwZsLYzr7TDnHR4rrdO50pNMu7dP7W/RIK1Y/NwHnsRhmv5DXzSxiZ9yIP7cajc8ESwowcs5DT/jFUD/a0ocxmC4Lgwui+4YVPZezLlBKKjeDFMLYB/JfG/re6oF9LoPkhu8tp/I6+Wbr/En5EQ+iytB7RCKIzgbxuxq0Gpp8pdr1jWhyeBC4nn55my+JzC7tjr3RPPfd5iNRJD7oVJrNNDwdhAEVQTWQREJesHNhJdCshHXvpM7+mJ3GRDbtXhFCSBw77TucMGlD5qx0okMch6HnGuf2g9X77qEjR67t/EozBq7Kbwpk4tMy7WqmT6fkXJ6WGLd5fwSJuxHsaWgQwadxR4nt8JTOfjifpg7btDEXW2YGuO2kNthQM5heqvHuzAj2iGOkO3AePZstMK2QB5pg2dCN0XO9aDjhwVAJAUHOeUgJ3LKDw0n0rFHHr5WZmXunYIHBBRFVKI7ZO9rLhZRVel5+cFQNkSna2gZ/wozuMz445ZqafJIziF4YQMcjrVqGqgCRWep4Wcuibx5GcK8N5h1D8O00IXGyDY43qmvgUhOJAHxnxd+ZAXg/WJrhz3Jkf30+Y2tsJlYvQy/2Ze3TmrobxcEnPWh4K4ietdowWVatl5Iu98CqfaxLDu5bPIiJ74YOtcC8ogWD57oReaJTHJfaOEtQqnmmmoyqbc3MACs1iQaKXZXPSSEEL2gFJNkFKUoJ/yK6k8A0nHC0aO/TbWhFC6IYXw7x+fWoUkATOhvSalqyj9UFOk4NxOCCaFlJIH5be3l3sVqUNsOxVf47g4PP9yE0oy5H8uoIOl9QyxhNz5+fzyxc82IplPNF961OO1mLVMGFMfHeHnguiRci4+99XB2Wbq75wmwck8fbocYeE/Ds9+evnr87gb5tajMzmEVmIeCGRfnAjPa3RsSlU0zh5S6M3FIG1lRqHRUvMU8g+FI3onvHET/djmC7I28A5X9CW9+LfG9LTFzAxS9E9Ib6fnE44NgBBD7Qaa5xK4jRKy1wP1kwa10FvZrLhakVmjmxB33wYvhZdc+umAhSlOB+jRfh407t+BI29KF/RxDdtWyOWSXnu+nrfSELRCokzksjb0VhsZgReMGt1tJmNw8s1jTriger08+5SsqTUU4bt+QmkA+Y0YggQnqb/VIYEXHlaa7g4rPQNQgTx4cQtVhg/qAbbqUGLvtYXX61twwuiJaTW2GRmVdfRs+FRfa+HPmaIpRbimaB+6gXdvnlpYPY0qjeSFdv60JAPi+KDPLoIYf8qSFygoK01PR9A4qlMi6AhUqIovDul4MnK3pfc+U2a0lnMsO2WwQgm7X316Yxrb3MJDLpzzhwUMnw2uGNZNWGiHXZ87w8pxAOHqt9EVyqOUixEvPoEQfaon0Ye80O83YfYqFWDNmb4DmbW3Q8F3AVK5GuqSQiF+TwbUJkRCoIyvPe0F3usWOC65A4dt5rg0PuHUpblOTVALo270Hy8Ai6V6rDloq54DA9KU0do/A8Mj8sf0AaxeChENr3d1e3/e/OwP9UKzzox+TFHtiUJjApYr3u74XpTS/8i1Gbumhq1ywqeqQTBx/oRygWhneNmM/WCjobWOfF1FwGOZXyZJTTxi35vhSLG4PiXDXUvgUDF2aQVJYvicSVEXRsPYj4bi+6K2jKNH4xJP6fQHQh7rG4ehCd3zeh/0IM4cNWcbzlL6hZThhcEC0j0WMDmCukuTCC0QUozda1tgfjn4qLzg4bzKmLvMkC+65BhK8VaS5koGi09LLwnHbU5d4Q+eEQBuQgYJULnQaVOibOdKPzpJwhF5mjQCizyYjG8UyPUpMROzI0v+0rpB+oldEbTDKGwDOr0XSsFefPzWfwzJsHMXVzBI1v2tD0Pa1511JyawSDZ0xwbLYheCqQvxapIBu819L2n7Q0ubeMbLM4dsLTYXRc6YK1Xt0GDduHYD40hfDepdKWf57uzcRKbWTm+sgbkCrHjQvuJwuG40XIQbgNnRecGDvXC5vepDZ0wG0JYOyC9n7RZd8QrCVDuzCtTbOo6Dtb0LrfBO8peV3b0HNxEt4VHjSt9yCYqjlfImx7w5g6ZkfwOSvqlW7R69G4dQgNr08idlzn3qZi7vgxogRpUQy9W+MCnasj2NLSB9PhUfSuNSm/ZfKwCZ71+gU1ywmDC6LlQmSQ9nwvPTMdgWdfoKKbfXUzDCKV1ZPJgy3oCUwirvTQIdLsNMbf7UbLg9rnKXNV6SLo0AaVIrMZQZ70bjlTzCOjdC1/9XP0otoe1rS9rXgzr2QC0RPd8GgZHesOZ26p7acj6HzCr2w/865RDO3IE5FtaEWb/Dc5ijG5SVZF8t3ML6dSt0sSkQNt6J4R2/PyIBzZiyvvD8FpTL6q1GlVJH//8SY0NGgvKxA53IfIun4MB/rg/KAP/RWvR4Mox84UZrVtMHvtPLxPWsvPCBWSqpFraETjw1lJBDVb3lmYph+xiDhuNjvQnFHTUJ4JuabspDW3Zi+DHc2bgVBkCQS3OfeFpaUKzlm6tUe1uN/hThQjTzWi6bk4usV2myvsUAKMOMLPROHe5EEllX+1Y4L1SS/OX5udW8ez0+MY3m2bbzZXhuib/QiYXBg81ILYkX4Ea1ETdjcprg8daLR1If58GKG5QgU1wIhfcCP6XCs8Hy2pFV0WBhdEy4Hc1nhHF+TKWohM0mSkV8msJt/rgONI7ZvL5Dff+1HxVKs+2eczzpV081iqWFRdz63r85dSz2UC6hvQ9IwW+G3oxei+3HBk+p0hbX2Y4NzRWuBCaINtg/x3BhPXanWxUddhqgRe6T0lpxmTCS2HJzEd7NYvOc7hhM+IbaLc7GiFtdLm+lcPwv1mA3pPiN9jFpmG1804+Lwxz5OoNf3tUFxG7zfxaUzfzEqzEs5Xe/9DiaKXozCta9LuI8pysi3rHKHX3t6Pvn0TMO3sg1unZi+d3W7DzI3q7+wp1BRTTtX34pV+vGUee5nUY2huW+ak8gpsiroVxEikGYOXw+jfmHVGWmFGy94xTEe9aCk1Ci7nnosyBZ/Jnm6hVOK15+oAOvdH4Tw+hO69Q+i1+JX7CI2vQ4gheCyM5qOTCMudEmhDU8yP92Ds5iS8Gw0tblhQDC6IlrpEBH2bmtQbieV2+XJV9cZ+jB1WS4gn9rViy5FIDU6AS0QJD25Lpdo9CyGGqFYgarGUmCkz2+E6GkY80j/XXW+6xn3i4rVKfpWE39Wt3q+iywqbFpvEbunfuVGu5PUgBp5uRqPcpe7c+qtHo20Luo4EESsphkli5sIQuhxNSkn43HS+IgIrRxcGzi6Bh1gpPQvJzQ7G0K8EaGJtfieI4a950PrM4nbxm9l7UIFU0xvhDQoAi7A+nOeY0ektKndZXBgVGVqbXJDy/WjxfepyrIr1pVPDp9METEklBX2lF76U8iDGxCcj6Hsi67gVx1vjY23oOxWF43iZTfSyyU32bo6he131mdpi3UxXu885xW/NnqbSNE/3Po8SgrDbgbleyHw7RXZ/hR39Z72wyr31GV2At8KGnsg0xl60GVtbuYQwuCBaysQJr6OxFQc/kt9Y0R2ar6q27Q3h/IvyhSSBkAgwnG+WfknVrWbXUnk3SRcrWRPpHuotqpiM5mbxcfhelLvK1D7MtqJFuXgpIWLSj45KbpisQPSNVtQ/4kZoVT9CaU0J5GZt4ZMu4HgbVlu71N5h8pLbwFvR2O6DeZcP4em0JgmfRjG614KgazUajXhGx005s2iHrdwbM2+JdWptQ3D7WFqzA5kF7sAYOs61ofklsXyLVINRSrO/6rqiLT1jWygoz39D98IxiUxv6LQLsf1NaF3UmtpylXB+LLHnqOiRZjTYD2JmxwjCsbTjNh5THsgYFeumfpOB55Bqnmi/zCQ+HMCWRzrgX5vVC5m830V6gX1NWP1MoMRCl3Kpx+miPiS0BhhcEC1lD7bD97EXLWucGLw8icHN6RWoZjiOTmLyqAO2XWMIKoFG9eRmDKUrIQNjVEZEt0RKTUb3757LCpt2K4Gh3RSKi5dPq4HCpXyl6TOY1m7cbzTXqy8qdWsI7pcn4ApEMfaaE7YH08rNTGZYN7gxHI3D99gI2p4p0H3uhT50nLAqzSe8u+2wmuenYzJbYNvWj/MxH1pPtsH9XpVX5M2DmK2g+Uf07Aiim32IpmcWUsxO8TvPw3nOg/5LpS5fZu9Iuakeez7URl1C8t1fpaZCXVwWyxiX/lCxeLz6OiK5V7KwOFbkmtqCD8yzNqJRe3nPuD6Ajn0J9H48heGs403ujtW2rQejYn/u/sQD99sL2I2qcm9J4WNTeRDiIndDXcx0ZBSTW32YzumFTOx3G/sxftMH+0UvAovWjfXC1DAaicEF0RJnWteD8LV8VdUm2F48j8l3dTJQOXSq/PWSv10b/95QtIS4xDbtVq1tUviysZdJuQYqddFInOxEd07GaRoxJToT29pWZTv5Cbnv93Z05rt5XGFGyybxW/N2nysyDJdCSK7rgLNQt6nmFjjWiSy5QU25ymV7VhwXARcs+WqOzA4MRkts15zdv79umsWgzrNP8imlWdS98IRu+biZuVJCc6YSyMeKXJCQr7tO5f6OVQbfGF+VUmqPSujOODouQtsWtGpN+3StcMD5JBD5eFwbsHxUem+RUeSbqKffL3CuWOnC6LWwbm9+pI/BBREZIH83nfPJ4JsPF5htk0PJtCRPjakPvDOMGa53x+BS8vuJ3IzT9RACSmGkA62PKkMUAVcd6l9QbvEvnV1+am0AvoJP1E4gclFkah/JXwJs3SDWxZVRBAt1hZyIICQyTfa12VmGfM9b0frp17nJNyMt8VLQsug9oTo7LWKmywi2dXbgXNigY8YM5/EwvBsm4GnpgD9j/5tA+Jw4Slq0mkCh5GOk0H1dOs/0yE7FmrQUrj1SU8F7JWzN4gwbQbhQL2d3QwieAloea9YGaK4eRFNdK4YWq9vy+0YUB211aH1zAWuOljAGF0RkgGJNRtRUVbtS3Z5H1GTkw6PyerwbPfIN2DMDGDG6L32zEyN+t1b7JGec9iCitZ2eOTsq1q6woxPtczeGi4z7Bya4nyzzYYUruzHyuh3+dhvaDgQRvZ1WnpxMIHZpBF22BnR+7MbY8QIPCtzcj9HdMexZ3wrPiQnEEvPTSSZimDjVhy3WToRF5nkopyq/xBq0fGmZZ7bvO5vb0J4cgc+oY0a+Gfac3JwrgM71nfP3Bolg1z/jROf21F5bxjFSqOvYElLNm6us6cHoYTMOPrYaXVnHG+4kED07gA7bFgw96sXI85m1mzMXQ4hu7ETHEns44z1nJozQ1RZ07qiydvkeweCCiKgkNngOyXUvSQx9b2T+6ehpTWaKZzLm27Fnl1Satg0jrn0mxQfRIlfR342g/4D86Dwzul9Oy+xfGsOouQfu1BPAy2D7Thiz10bguNEHxyPq09WVVN+I1l1+4JkxTMWGizwIUS5BjmE60Kk05WrVntIup/qHmtH59gyc/ilMl9Rc7z5WrJZGS9UE5YU6bzCqW9CCHnDB86IJQ2+m38OjBZhFnvmg9jikU+MpgnFfXD5OxGfaDhZ6awDTu7rnA/AqjhGjFd4GqVT45mnb3nHEJ3ph+cCNVmvacdtgVZ72bjs0idmcewaSCJ0JwfmSW78r4KLyPAgwKxXt6apAwVB6qvam5sVsXpW8EEBo+x64KwziStpHllGtbZ24kEna65LJP7KCrxHdd3is3GsSCD5tRdvJhMg8xzEmd1lYQ7E3mrH65QmYd40hlpZRl2+S3PL5KKZeWwr9cBEVkRCZ1IY+2D+emusS2FBy0x9bCD03z89l7niMCHeD6KwfQVt8FC6d7rDJOPI9VCPbZjG6c+nc8VNIrfMmDC6IaojHyj1IfqBhi/zcETu80fHa3eR3dQDNNg8mzC6MxeZLaImWo8SZTlifbkDwU61Wzija8Rh6ufbBPtG9gsEF0TLGY4WIiIiWklrnTXjPRYpRD4y5jx48Q0RERESU7v4JLqrJ9Of9rtqlYimP7SciIiIiutex5oIWjPLQqKdZp0NERER0r7rPgosZTC+B55vIN7Y1NHTO98+djCF4pBPNDfNdjjU81oXAMnroTeKTEXgcq1GvLX9d/Wp0HImg0KO6dN0awZavNOs+fZWIiIiIlrb7JriIXZWfDxpC8ILW0/b1ATSlMsJyeqLmvX2rEgF0PxVE5xmt9xe5p4tNq+H+2AFfbFa5wUaajWP8sA0jR5dWKf/M2T1o/qOhnH6WlV5AHhuB6dUw4l+o/fTP3hxD57VB+K5rI5VqpRuj7zbCs60PE9pDxIiIiIhoebg/gou7Exh5KwqLxYzAC261xiDtwVdKOu1Sx81L72Eyq+G5on2cYX7c7PsxIgfcCDzpg/dx9f3MiT3w3OpBwO+Gzaz1j2wyw7q5B2OHCz9gaKHNXglhYjrtyaCKCPqe8qP1WBD9my0waV0Mmh60of2YD91r1PflMO/0ohcH4TnBx+gTERERLSf3RXARPdKJgw/0IxQLw7tGZPy3DiBadqm4C2PpwYiSpuBdp32cYX7cjKfw3vHD+2YDevY55560O5uYFrnpBpiN7Pd7QcURF/GG2Wxk/+I29B1yInRoEFFtCBEREREtffd8cBF9Zwta95vgPdULm8mGnouT8K7woGm9B8Hb2kgLZOa9EQTWdcOdFpA0rrQBV73oe69IKb3SjKsJA1dnEHiuGQ1fkWtG6rG6fUQNlG4H4XmsQatRqUfzcwHMZAVQyesBeBxN2ndFamhG1weZ85Wfaio/Yj56y4/Oh+XxxDyvB9Epxl+9T2T10x7jrz6q3wrrKsB/qA+RUm+wuBVAV5FlNW3vhPNGAMFym1URERER0aK5d4OLO1GMPNWIpufi6I6E5p+iqwQYcYSficK9yYNIdiufGhq/GIJpc6vIjs8z7RzB2G4TAq5GNDoHECkY8MTh2+3G+NMh5d6G2WuDsF/oQuszHnRuGoD1nWmltmR2og94pwOON9KbZMUw8loQtsMhTM/KtSqzmD5mw2h7K/pymnaNY+DAJPZMyONNomeNEz4x3anDIhBa58WUVivj2y6Pa0P/WS9aPjmI1oea0HUqhoKr9NoA2naOw3VGXdb4xR5lWVtfy6qjeMCO1rVRhD5ewA1ERERERFW5d4OLW0GMRJoxeDmM/o1ZTXZWmNGydwzTUZEpTrVPKqqcey70xBCdAFrXp4cWMjOcx6cxHXCj8YJHZNDrREAUQEw3Tz0Dk2sE/Y+rv8e0xo2hww4kTg4gcWAU3Y+qP8b0aC+GXjQh+r6YjjJEZkX3u8Nwb0jdF2GC5ck+eNbGEDibdYv2lQgsL/ej5UHtfTFrexD+NAzv9rgI6FajvrENAx/mqcb4yITOM/1wWNRlNT/eryxr7FQgqwmUDfbHxFq7kX37OBEREREtVfducCFneG+OoXtdydFDftt9Sil7vpRxX0URFotFe5XJsmMY45/HMX7cDZzowOqvtep0x2pD29bM76vTs8HxWGYAZXlYLFN2gJKcwcSpAXie68QWWyMa65vQp9flq8mJNt17SQowt6AnMI3Za2PotY/Ds6kBjc8Ec7ui3d6J9qxYT1nWq5M5vVDJolEGF0RERETLxX1xQ3dVT+deSCvMsO8exuTnk+h/NKJ0x5p9Q3OqN6ayJYLobGyE8+g0rFvdGLwwgeink/o3pK+xQj8EKs60xon+4DTiAReSJ9rgfi8rwjGb525mJyIiIqJ7y/0RXJRCqZ3woWDnrwYEKYk7JdxDYLKh941umAy8oTlyoAP+tYOYuOhF95MO2CwWmB+oXTbfvGMA3s1A4GxIG1IZy8pG7RURERERLXUMLoyWN0ixwroeGL9cYueq8TiS4juNlVYhZIknRFBjbcyskUiEECr5nhHN3WThG7bnzCLxaTXBgXqPSpNYZiIiIiJaHhhcLCC73YaZj8aR3vlr7M1OdL0dQvR2KsueROJKAF0v+2H5Th9cD2iDq9S8yQG814+Dn6jzSc6E0LetD+EyKi+sa+3AVR8CV9LDiyA8zj4ELsUgxy+KOzMIHelC/1UH+l8Q36nEnYgIfCxosRsUXRERERFRzTG4WEDWbe2wXhjB6C1tgGDd6UHLtYPo+EY9Us99sD45BPOhKcReb8GXP/+5Nmamcodbnh3FuT/7FbyPqfNp2DSEhjcC6JOfoP2p/k3TOdPaNgDfrjj61qvTUJ9z4UD3iw0Yfb4VjfVaL1oP2eG53I7g9Hm4VyrfLHt5k2dGEbS40bFBG0BERERES59UgQq/tnhOu5RlLiXZDk9pX9JR9XSmpeHNkKyvTmrvJenutWtS/Hd+R/pUfOfLGze0oZnD448+OvdZvuEy+bN8w5fTPOT1NLixyLZYJuR9gYiIiGipqHXe5P6ouSjSlWx6KtitbNXTscB9uBf4ngf+BPBlLIb/1tqK37Lb8d//8pdI/N7vQWSyc4b/1vr16mf5hqd9J9/w5TIPWeKDHniudmPkO6V38UtEREREi69OZITlCKYsctOXCr5GmuiRZjSd7cb/MeGB6Z//c3ztvffklYrPv/1t/PrcOTmexD9KGy6///xP/gS//slP9Ienf+ev/1p/+DKZx/9t6v+FTuseWM9Nof8eaBLFY4WIiIiWklrnTRhcLKJf//jH+EdtbWoGW/ab3+DXp08DK1ZkDpfJnwWD+sP1vlPucNkSmMc/+pf/Uhtwb+CxQkREREsJgwuiZYzHCtE9Rn7e0RPAWLHnIi0bCUTe7Eb3AT8mEvJ7EywbOjH03iDa16R1J3h9AE2PeGA/LcG3XRtGRMtSrfMm7C2KiIjub3kfkBrDwPo6NB3R71GvfOr05At70fR04ce1Bp/W+Y5eWj8g5ppPQkzHitaj9ei7GMesyGxIs9MIvRBHt82KrrOlPdWIiCgdgwsiIqIF5Dqd2wlITnq3cL2I812d72SlqcM2bew8rnix56QNgxeG0b7ODKWewmSGbfcoQq81YOSFfpT42FciojkMLoiIiJaZUmouVu8rHBrEzgURW9cBp/Y8onS2HZ2w3YggnP7UVyKiEjC4ICIiWo52jenWWGSkyz0o2Kn33SR0Gz/dmUVce0lEVA4GF0RERPCjLaf0fzU8V7SPM8yPW8n9GP4nsuejkwreK2EM61YnrFd9CF7XBqSZCPgxs6oFrRZtABFRiRhcEBERwYWxnJL/KXjXaR9nmB+34INXc1jRczl7HnlSsRoH2ck2/cAkIzVhQCd4UKzzYHDXNDybOjByJaHWYCQTiJ7ogOP7s3C/1Ycid20QEeVgcEFERLTM5NzQfc0rAgEbvNeyhkuT6FmjfSmHWUwnhvB+E4Y2NaBeDkbqG+F4qwEj12IY3pbWFS0RUYkYXBAREdVQ7EiTTo1CqalAzYMhzGh50YfxeCoYmcX0x8OZz7ggIioDH6JHVEM8VoiWAeXBeH7tTS7b4an55k+L+RC9IstZjNwFLh+AR0S1zpuw5oKIiO5v231aqb1+Ku++ihoqspzFUt7AQn769lxNSeHUeUb7DhFRHgwuiIiIFlDiwyF0OZrQ2JCZcW94uBltB0YwcVsbcaGs6cGkTjCSmcbg0kYnIiqEwQUREZFMbnZU14mg9tZ4SQSfa0TDdh/Mu3wIx2bnM+9fzCJ2cQTtMwNofqgZA1e1r+gpo6ZhIbq0JSJKx+CCiIioVErTpArvt5jxYeAdoOdsGN7ddljNaTdNrzDBvMoO97FJnH8+Cs8+v/7D7WQl1TRImDpcYkeyJQUrbaj8bg8iup8wuCAiIrrv6XVjm5t4QzgRFcPggoiIaCFYOtHzLDCwqQldJyYQS6TVTdxNInFjAiPPNWHL2yKjf9gFdgZLRMsRgwsiIqI5frTpNgvKTE1HKrmTwQTnsRimf9INnOxEq7V+fppfqYd1kxsBSw/GPx1Hz1rtKwsmCs8jmb9RN/EeDiIqgs+5IKohHitERES0lNQ6b8KaCyIiIiIiMgSDCyIiIiIiMgSDCyIiIiIiMgSDCyIiIiIiMgSDCyIiIiIiMgSDCyIiIiIiMgSDCyIiIiIiMgSDCyIiIiIiMgSDCyIiIiIiMgSDCyIiIiIiMgSDCyIiIiIiMgSDCyIiIiIiMkSdJGivS1ZXV6e9IiIiIiKi5aSC7H/JKg4uarlQRPcKHitERES0lNQ6b8JmUUREREREZAgGF0REREREZAgGF0REREREZAgGF0REREREZAgGF0REREREZAgGF0REREREZAgGF0REREREZAgGF0REREREZAgGF0REREREZAgGF0REREREZAgGF0REREREZAgGF0REREQ0p66uTntFVD4GF0REREREZAgGF0REREREZAgGF0REREREZAgGF0T3ijOdSjvZuvUDiGmDMlwfQJP8eakp33Rk5Uyr0HTEJwPrdb6jlwpOp3TBp9XpNR0pdWrzy9h5RhtEmiA6l9h6iR1pMmxfycfQeSjHUhMGrmvvK7b0tkVNKee7TvGrlxBlWy7kMqnnptLPZfkszL5j2HFTwrZPXg+g67EG9dohUn1jM7pORJHQPk9RrgdP13CLGbafGrWtFwaDC6JlQ70A1BmSEbmHzAU6WSfwfMOpPAZdHBOfjMDjaEJjg3qxT6WGh5vRdmAEE7e1EXWkAsL8ybhjInG2D1seqVen+5VGbHk5gJm72ofluDuDwHPNaPiKuoz1j3Rg4MPsrA3lVeV+V3yfyUz5MtZKhlhn/FSqbWavmgxl/oChNgF4dZnfwuu5vOM7ebYLVls34i+EEZ+VIEmziPk7EXu5CVYRSFR/FBqU0S+wj9dmGy0cBhdE94s1PZiU5BNtielyD6zaV/NzYUzvu+mp4HSs6Lms8530dNqljbsAdGtkVsNzRf3Y/0T2ZyIt4wvAQokeEZnsxwaQ2OVDODY7v22/EBf9iyNov3UQzY2tGMqTgXC+m7Y/SFPwrgNsh6fShk2iZ402chUS4mJvdQbRciyGWTHd2Zs+tFzsgO2ZcjMkIvPR0oiOCSdGb8q/V/zOYzb4NllFZq+MKenuj+mJgXM+mftM8eTbrn1RzzovpnK+o+6HZAzr3sms9aula17YtHFKE0X/CyNoOBTG6G4bzCZ5mAmWzT04H+hG8mQH+j5URqQaYnBBtFzcSRhQ4iJc6kOjXsZEKUURwxv7MKENqj21BCg305SWnvBr4xbjR1v69x7xiMvM4pIzqw1iWRq00rJ8pXP1jU1KCXksqX5PkZaxzCx9TCL4TKq6vwGd/9vf4aCyDpsxcFUbZUkJYmDfBFzvT2J4tx1W9WqvWmGCeZUd7uPjGN4agedoRPtgEdwNoe8pP5qPBdG/2SKyIyJLYnGg/5wPrSJD0n0mfeMUlnzPA88lJ3zn+uGwKFMSmZt+BI81w/9UH0Jl1YTY4L2mk+lSkg9ObaziEgg+3TC3L84d7zppbn9TxtEpNU4E0dkg9ut2v1KrM/POFtSJ4DFaSQ1PHklxvpOXOXFHfV+pvCXAyvFVfY1XdN/q+XVXo3NO7OaM9oqKuhFE8IYNndt1irQ2O9Euzp9Dm+b39baT2mdkKAYXRMvFx2GElBdRjFdzBTOLDIb2UteDDTBrL4vLytDrpsUuXc1cxoIXk3Jrd+SUr2ZGZF4cIjBKmLsRPO4suE6TM1GE3ujA6k3FM2iJM250nlDDTPOLQfj+5e+h91S/yIJOwNPShWCVmbFsaiaveolk6ZnzwhKIF2hCVbGzIxhKutCz26IN0JjFsOfFXnQiILIlpUgi8F4Aphf74Mra6JbdPXAlhzByVhuwgBIfdKNDBAuZ+6J+4FKwFP9uFANb2+Bf40X4fRcsK8TvenYUvkYP2g4YVSwh1uEp+awRxGgZQZ0e61q7OBZjyMmez8REwGGHrcoar4watLJL2YsQ63r8ilgbZ8bmgpbM5l7ztapUOndwfl8f26UNNIJeTWPJhWP3FgYXRMtCAv43huYyN/53RKZVe12quVLzudK1rMAgdRK84sFqZdjC3tvhOj1/wtdNRZtpZTXRqvJCn7waQN8TzXnuEQggWjATL7bXyx6lBqj9LS9aRAYs0/yyzsYnMbxDy+5d8qDvVIHMVMKPTjlgkV9vEJm711uUwVjbC98rYu0kRtC539jS/+jlcfl/RG+o78vnRM9hu8gUyTdUTiCWSPt9d5NI3JjAyDPis7N29L+k/Z5C7opMocgpGl2aG7sqttaGZthythXQuskBRCZLLJUOIXRGbPfNOr9lRTMcm4GJK7Uo3y7gbgR9zwTQ/q7evliOBILPtMJzXey/53rS1pUZrkO9wPc9GLmlDarG1QH0X3Bj7HQ3Qvv7MVFtjUgyjrj2ck48XmKwuHgSp4bgN1tguXEQnUfUfUaviWAhek05V+/T3//mxl0/oA0phzhHiEAnGl3gfTvbKiecq6LwndFprHohiICpG66t2nuj6RVOLWSz3iWEwQXRMhA94shsGnOmEw7tYrMoyirhL63phu79DFkp302XhWUGHaWUVEXfaEW9rQMHz0xgJiuKS9yaQPB7HWhqaM3fDOmKF33ysq7qRf/OtGZAOkxmG9wiABHZV0X01rT2KotSYqzVApmzM3eA/YUeyNnZxJte+A2rvYiJjLKciZ9AKFJ5Vsy2dxzxt6xKENFs1W6WltNX6mG1y0GHDcOfjpd238TFEALiT/JCOLepSxWil8XxZLPpBrCmB0TwNxNDni2TY1b+TzcTb0HjSjkDtrB36SRPeTFk7kHf9sL7YmEJRPY70HbGidFr4pjOropb14f+7SEcPFbleUlucrV5FO7IMJzbBxF+IQinCIwSZQUYac0tlUITnRrWrOGV3pxbs2ZRiQC6nwnBdVxk2kUGNbavtbz7dTR6hTZTh/WLXebGvdyjDSnDpTDG5L9nwxU1q817Q3fZ69QGz1E34vtb0XEiiqSy3yQxc2EAW9p9aH+/H46qAmyj6df+KwHgXEGfnJZXLRWDC6Kl7G4CwZdWo2mferq2vzqOaXGhka/rE/uasFpcdDPa6ReQ94a5vCn3Jtm8F4CSUq1rQrJO0pVe6K8PoONltfTf/uIYJj/NvAE5fllkfOT1cjcCz5P6N3NHjqnDrbs6DWsmEX2jE55L8isb+iM6mbuVbuxRmrMEMPKeQaX6V0YwdL0bw6+3IHh0JLdpiSY9MMwXAJot8gK74Iun72MS4u/KJXtmND6ojFZEEv43h5BcZYX1yhBG8l1s0y/KtbrhPn0etezKsmoz8L0TgO0Fd1X7olzA0fp9wCv2vXbdbWVC+04nYh8EK17fSbFNt9jcqD8WQs9adZhtbwgjK7phcw4gUnJzuBI6ishKk3sL14vmU5NmUYkQ9jzWgeCToxjaYYZ5uw+xQAdC7Ta0vSkyzNpoS0no+ABmNjrgmPFjtNJMsO6N83Iqr8MG8/ZhxKJDaHirFfVKb231sO0bR/uZGHzbs0+ciy2rxl1LSgCYsT6WVwcCDC6IlqpkEF1faxAXE/VS3fJqGKHX7LCIC03U3w65ZXjsRAdWf21LkaYIqS5sK0w1zTjlZgLmahZ2jWUMl1PBtuBGiY5rQYkL/UedsD2YdQPyunaR2daquq+kxk0XReicfPk3wflHxbMayUQUIy94tPtprGjfppPJifShLRVgHh5Fr5bxymRCy2a78ip0JmRABiQB//6DwN5uuF/sR/cnfejP08tKeuloTbfR9SH0fwC0Hwqjf3sMA4eD+r8z/aJcUq9nIpO4XmyraFQ3YzwzI8IqixWN2ntF+jzeTa+ba0CDvMvolrTPYFocqzZbZRnZyowjdMEER0vl85z+oBOt+2JiO89n+vWY7K2wXQkhUkHNWeLcHjRvC6L9XAzDGRlAM5zHYwhtD6HTNYDoYuSsM0qQU6kWJclyCXsfWh/aAt96cZ5Puz/GvEPNMDe+5UDHyZqEy5W7NYKDb4vzwP5ReF8BDu4vv9mu0UxrxHn64/jceSn+sQ/djxsbWKRqrRoebkRjVqqvE9dlY1tuLisMLoiWKpMTgx/3o2WlE96LcYRfa5m70Fh2jiJ2bRTutRa4AuLvSu2DGiu/9iM9pZU+FeipZu6G65Ntup/LKaN0vGgTrXJ61BE2t6FdeeFH30tBRG+n5WbkewSuBND1snZ/yo62ueZM82KYVJpLtcKet7RtvpalvqEJXR+ol2L7q6Po0ymdCr49pGV6bejYnj9gsa5tVl98XOr9AfklznSj+6Ibg/vE/FY40H+8FUO7+kpu/55Ty1Vi8xQ16dVyzWDkOQ+iG7zw7hT7/eF+WE92wmNQt5LKjb+XwroZ4/GLIvRraSqxVNqO1q1A4JwaLma4K2f0xRjrSpuSIa5HMZF3X4zC80j6ehcpp6YnioF9IrO4zoO+bUUyZ2Id2sW3YxXcd2HeOojJm2PoXqfXdMsE24tjmPpJD2xFWnYZXbta7JxXaY2HviTGT4wgIX5rTLtZPp2SYY5OY2xX6fMs556LyiQQ2LdHBH8jGBJBoX3/INwXxbmjgiZci0G5hyWjcKAUmYVi8ZvTmM5Ks9J5uLP6hrifMLggWsJM63oRFhfcHp0Sl9SFZq6ad7tPPdnllNQ64dNOgjlp7mYz/apZJRU48VZ30/MS9YALIyH1foaJN9vQ9FDmPQIN6zswImdANoptc9wlsj1ZlMyczILGEi8u5g0uDIoAcvw1e+70BOfrQ1qAFEXfkwfz9yj1iE3NAJdxf4Cuq3JPV0Fx4fXC+YA6yLzTh9EWMbzEZz4YFohqokec6Lpgh/ektn+v7cXoYavI0HQiaEQ+Zpsb3SadJmUJP4ZOmuDa3a67bXLJzYPakXx7AP6s5Zo5IYaZuuHepg1YMPn2RZ3eonLOH2KcyBhct/rQWtK9D1FMXtNe1pJyvsstOCi43ynnuwLnumLNb5IxBI90YYtNLpmeP98pXUk/N4TQA92YLLcwI4NZHHPTmHzdCXPV9wUUOO/LqcQavWLk5nIdZ9sx9q7aXBcPODEs90r2hGORu8YuoZvzVKpl7Xye/fRex+CCaBkoqzSuQBvznKfWKqXGstwS5WI3T1d103MqEKow5Wt6M7eeqrxYmDd7Mfn5NMaDg+h9th12LVdp3uiC+ztejH48jdlIP1qKFOTml5nBKVpl/6ALPu1eG1yRM3lGPGVWn9LuvcUDHA5ntU82o/2tUTjPtMFWUiYzU+VP6E4i+uYW3WY5cnv8se1BtG3tQ6TaFSLXzrzvwvhzrdhzZkZpbpWcCaFvayfCu0ZFEFNaaCEz7RzC8NYgOsVyhWaUKWHmzB60PjcOV9k3lOrULmSkrtp39fygyKhGvLCe7IC1hvueqpxmnAvYzbV8o3njanSes6DnVBTxL1LH7yymIz64HvCho9GKLsNK7NXMcW2fAF4N+Qb/ZjTtU+/DybgH7PFBhF83wdOyBUNXFqMdm6y0+26q6oq2QA18Ziq0n+rU5opkbO3SwmNwQUTlmxnBHu2mZ+vu0cI3Pb+Q/0bg0k/OcjImI5HqyrFocwaTBfZt3eg/5kWnVprp3O/D8Os9aN+gPmRN1xob1DsfZjBtYJtb8/Yh+HapV/DEyTb93sKUvvsFU5FnmRQQO+dDfNd5hPbqNN0xi0zmtVE4RGYiWMZvK+kJ3Q/leQjg3RiC78fQEdC7GVNujx+F7+EA+vW6niyTcuPsxW5Mv2xVSqbrH+5EZNNoRtv30ljgDk5jdFMEnQ/LNV/1sL48je6LZd5QWlKvbMMllIpW/zA6rO1BSC75z7fvzbHAmnFzSrmKlLin0lytaz46QUq+pnklFEYEX2qDf5PYP37SD+c6M0xzAaL2IMjXw4getWKk7IckVkPNQBc+l6nrobKe9gpIjMP3gQm9Ef37cGzfCWPyMDC0L5C3sCuH7r0taal+DxbxMZt5FKoJE6nQflqskM2g2qXFwOCCaBkoqYlJ0YvtvIweTjJSiT1S3ElozW5cGDzeXvim508TatecS1z+2qH5Gzfzd5eb3lbbiiblYhvGhKG9Y8kZ6RB6V6nvJvZ15mTGkzdjSok7WuwVX5TkTMH4UUf+zPSD7fBFR+Eq9T6fO3549kXR/ZNCT+ieFJnuCXgO62TyVtjQc3Fq/lkg2VbI9x1NltUOvRDz4z0YvaYFQF9M4/zr7Tlt30silqv99fOY1kq4Z0VQpte8seZWWUWwO67dB1QdOfgKH7aLfS9Pt6hKk8AmWBfoHrBSFHt+Tmkl1zFEJ8SxsWn+vjc9lm0dsCVDmKj4mTCLRQ3oyuqMwezAYDSM/o3514jt2fOYDLpKOheVdI2bHVS62y5Nac2i+ITu2mBwQUTle8Cs9Zzjx55nAoVven7IjHr1Va5SmkcZ/dTbmrPBsVXOQCcxGqykx/cCVtjRf9ar1YzIT+TOvN8gdFbNnFs2Niu9iamC6FIupPXYc0EbRPcPsc80r5tBZMKYajSlKZrIkPufcKDvo8wAI/lxCFFLC5pTO9/Vg2iqa8WQEQ/WW1RW2MRBF70YKdgkbObsKKImB+xaAUBKwFWH+hd0bvCnmstfkJaWyr6hm4phcEG0xH35859rrzLlG45ffaq9yJQ+fsaDnzJSZveKeef92SYMak+HlrvDzXvT84oWeN9yKxndcn9HucNlX376a/VFgZ6m5tL6AVxPm1Z6ydnd//pfMy8+aUn/s0n8xW/mp9XynFqdPfPGiPFNJNb2YPR1NbyQbzZua9eand0NIXhKfmGF26V9Lks93MrkRvsmZUhJDNte/78N8B62YeiPmnKe0P1l9LL6hO7nmtF5xg7vPvUib9S8ZYU+y2bUfCtZnt/EajUPK5w7rAgdH83fPLEscg1aGN4NEzjYkn7TbhKBU0FYdndowa/Y/y+KYGNjJzrKqMko9/f+Ju/4f6+9ylXuPOThzqNjcF3shPWP+hC8klAezqaOrz1l/uVW2F6Kwa3dUzM/rQhCH5jgfjK3X7l8Klm+fPKth0qmlY9Ry1to3uV8x8j55lPutPLvp2Uu06dL9R6cLOLCWLYKv0Z036nmWLl77ZoU/53fkUSoIH1544Y2NHN4/NFH5z67+8Ptyvzk9EnacJn8HXn89/979fNS0rdW6cwja97/EPyB1LvdLlnMmd81N/5TyfnqsDT+aQW/I3v4f+yVbMp0XdIZ7Xekjy9Lfec/K+OVmEyNyvh60yo0j0K/Y15c8m1X5+M4Nq0Nq63pYw71d20eltLnmBpuev68NqSwUn7n/LoZk3aK93r7iix9Xf7Dqdck92ZbyftK+rTyDZelz0MePnXYJmGdV7qW9p308fWkTz972nrzvfbdbxi3//z0X0v/BF+V/k3Wd/LNW6Y/j8xtkT6+dHNYcsAq9V7W3tfCzUGpBTbJe017L80qx4DTP6u9Lyzv+smzHtTznVl6L2c9zK+fb4mUvq/lTf/yHf15ZM/7v16Uxg67Jcdai2RK+77poTWS49lB6fz0bO7v+LhXslh6pXFlioVlfvei5F2XtoxF0vs66yA1LXm/0PtOTkrbp+X3xeT8Vk3OetM+M+y4Oe0Sy7ddej9tHrLMcctbf9+zZc43n4x5DP+x7rRyU+5+qvu7hPThmeNfkL5ngjhX5K6jSsjLVUsVTb3WC0V0r6j0WLk7NSX9w0MPSZ/96Z9KX/7yl9I//PZvS3djsZzhn+3apX6Wb3jad/IN5zyMm0eG+JjkUjLSTskX14bVyudjkluZl13yRrVhmtGd6gXOdVobUECpv3Mh1qXR88hnsZZnIeaRbvwVq4TtPhH21kJc7GcmyfxiWHsvfCH2/xXtku9z7X0Bi7V+FmIecrBrfXVS+6X51WL5qplWsWuXEfPI/k6+4aXMo5xxiy1PPobNw6jpFFjWYhhcEC1jlR4rt81m6bNvf1uSfvMb5f1nTz0l3W5oyBku/1U+yzc8/Tv5hmvf4TwMmEe2qFeyi30AG7zS5BfaMMPFpbFdZmVfsx/OzsSEpW6THFy4pLES5l/y70ytm3zDjViXqe8YNI98Fmt5FmIeGb6YlLwbalOTFj/tksyreqXxCvfxxVo/CzGPUtVk+aqYVrFrlxHzyPlOvuHadwrNo5xxiy1PPobNw6jpFFjWYhhcEC1jlR4rvzpzZv5EIvvyS+lXH3yQO1wmf5ZvuN53yh0u4zxKn8cyVtbvXIh1aeA88lms5VmIeSwXi7V+FmIepVqU5ZPlmVaxa5cR8yh7eQvMo5xxiy1PPobNw6jpFFjWYmqdj6+T/xMzKYt8M2QFXyO67/BYISIioqWk1nkT9hZFRERERESGYHBBRERERESGYHBBRERERESGYHBBRERERESGYHBBRERERESGYHBBRERERESGYHBBRERERESGYHBBRERERESGYHBBRERERESGYHBBRERERESGYHBBRERERESGYHBBRERERESGYHBBRERERESGYHBBRERERESGYHBBRERERESGYHBBRERERESGYHBBRERERESGYHBBRERERESGYHBBRERERESGYHBRlRgG1teh6UhMe09ElYgdaULd+gFxRN37gk/Xoe7poPJ64X93EJ11deg8o71d0qpb1ox1e6YTdXWdYoq1U/q2LPK7FmBZM/E6tlCqPd5rce4wZjqlHauJj4bQ+ViD2L/F7xCpvrEZXadiSGqfq9T9MfU771dGbd/FwuCioCpPutcH0KQdRCWlZbwjERViyEVV75jJkyrKkCqZOv3pZad801d+p874dXVdC5RZNCBDnrPs+VO558bi27G0THXh5WzCwHVtRCPcjmDo6WY0fEWb/lca0NQ+gMht7fMlr9rgQd2nctdzvlRBYFTGsaemAvMw4DguWQnX+FLXe+Fjo9Jgs/JtX8q5oJz1lxDbxdoygPp9YcRnJUjSLKbPdSP+0mpYnwtmBRjGSnw4hC5HExrr05a/vhFNji4MfZjQxipEC3jSfnvedJ8HRSkMLmppTQ8mJfkgKjFd7oFV++ryVF3Ghigf57s6x0uB5NuufbFsLozpTG8+jYkx8rPuncz5zqzfCayzwaaNs5TpLX+hNLm3vDNW5nZU16XrdPowH8TaKipjOU8rU0nbbpPoWaOOV7WEOKc90oqBFX0IfzqrTj8ehnelD60PNZcWxORkQNvgF4P9T6QPqybzX2tO+ObWbSmptG2YYbsvdzo3B9Eif7bDh9nszwrNQ29aOanwcVyyrGv81GFxlK/zYiptWKnHSPqxkTudCtZplbLPBWO7xMBdYxnDSj/PRuF9yQ/b0TCGn7TBbJKHmWBe58bohX40vLMH/VeUEQ2WQPCZRjSIfcK8y4fwtHYMizQ7HYZvl1n8hgY0PhMUYxaXea7Kk97Nt6WKBSgLWVtZewwuCkogfhuIx0vZ7QrJn+lOr+Ys6G4UA4/VoflIVHmbv1TB4FK7Ksy8swV1jw0gelcbQMapZH9QSvR09g85A9VQh4Z2P2bEtoq81IAGsU9Wu9enS8TjwO141dNUfqdeDYiSgVs6+3666OVxYL11YQoO7iSUdZy4U2U5oLKv6F3sDCxAmJnGjPxnRv5/aYoc6IB/7SDCx9thU3NEwAM2OI+GRKZkAp7XSjh35xQy6QVV5QdqpTPqOpa/FDzvcVkp+fy2Yw+iO9xov9AN9xkjz0a1M3NTrIHrMWW/vrfMYPqW+JNIVFbDcCOI4A0bOrZZtAFp1rajc20MkUgN1tqHfeg40YD+SBje3XZYU8ewYDJbYd/tRTgigpsTHej7UPuggOwCAb2U/9xoRc/lzGN+LgXd4vN6dbR7BIOLQq6Mwi/295n3RkXcXQ0bmtfpXUTVA9a2vniZZvRIBzxfG0Zwb/q4eqWsBpbaVcny7Ch8jR60HZjQhpBRDNsf5Iv41jb414iT7PsuWFYALa+H0H2xDZ3vGXVBj2L0PflA8mO0ytIp61q7/sV7JiYyNnbYlsi+P28G4x/NwP6YWO4FkDwzqgQEwVOB6poZ2JrFWUucn3JOWXJAIM5nxU9ZRc2cGkFI/A0dH9W2pxq4zF+o1RL+xRRPJGF1OpCbJTKjZZNYCRNR4zLUtWLYdcwKm9iNYzdzjj41U223GRJAJ68H0GVrQn/DsDgnDWM04sXM01ZseTNa2j5dUrOoGuxbd0XA+Y5YwuQIfBfUQdmFPqv3VbcFFs11Hwbk33RmECNykFGhpG5BYxKzNYodZybGkVznhmutNkDPWhfc65IYn8jdr7OVUnNRSa159JMwsLkFzdr7ewGDi7wSCBwagvn18xi2HoTHgIzWdGJWe5Uyi8Sn2stCbo1gz37Ae8ytc5FbysxwHeoFvu+p6oREWQzbH+Qq41Z4roug5FwPbCKwUKywo+9QO4Iv9CFiQK1T4oN+DD3oxfljVhzc76+69gLJOOLayznxeE3b7Fbs1ihGLljh3LoA9RZyoHgoBPfpMXRf6EP/JW14xaaRuKO9TLmTEEMNkAigZ18EjkP9cH7kQc8H8l6R3fymtKYrSbFM8r6cs6wGaDCbEAuGcoNZMb/IRZFRrCRDrdXYLAzjr2PJRM7RpwRhVRHbMHZpBB5HI+ptfcChKUz/xK2ek9a6cX56HN2XO9Bo68TAWRFkFD0vFWveqKbKm0/mih7ZgyFTN7x7GzH00kGlxj67aZHS3KkERtX0ygU70Svi/2gVQY18XtnpwfRuH3y7JtC3P3+t9lzJfnYt1ionnKui8J3RCcUvycGvFS0txuduLPZmmK6MwH9VG6Dnqh8jV0xoti9W7kqsl2NRtOxoW2b5uyLEDl+2Cr+2rEwetkuWXWNSXH4TH5NcFrvUf3lW+WzelORdB8l2eEp7n+W0S1lXpSeXJE6IOSZftUrY4ZPS5y5OUnnHXzxiPYnfIaL7NLOSOIFL1lcntff3F3m7Gq3i/UHZH22S95r8Ji6FX7FLMLuk0U+VT7OMS70WSO3+7H2+TFGvZLeI5VIPJGlsl0WyH5rMWHaZsvzrvOKI0qMeZ7nHS/6U95gspIzjNXMfz0/ZVhu7pe7s5RfnFlnh310Obd0e1o4zbb3nblu9Y3Te2K6s5SyWtN9Rlk9HJbfYt8za+TUu1rsZVqk7pOwkaQova0r4RZNYFovU+7E2QJOxbpVtW8H5Uj73m8X5a/eoNBnX9trPp6Xz8rEDu3YsqUreltp+Vvi6Ycy53ZDr2DWvJLLEyjKXllLnmBJ9MSl5N5gk8wan1Ht8XJqeW7zc5ZqdHpeGX3VKdrNZsr0SzjmPKAxcf6WZFeu5RcxT7A9R8Vb5PWL/3josTX6hjpFS2j4yLQ1vltejU/J9rg3SKMdnOeeOj3slkWGVYOkVZ3R9BafzxbTk22FWrhPKOVw7Huxi3WcercWPVfU4t0jtxycl9VCaleKXh6V2MT3Ls2Np21I731dybskhzou7LRJW2CS32LemUsewMBufksaPuyURwEqW3doxklcZ16BSzgHpQt2SCe0527rk80mF5GWtJQYX2b4QO+OLVsm00Zt5YhAX6xaTVXK/P5VzEFSUkSlZWOo25R60yo5Xygn007A0uMsumcUBpOz4K8ySfdegFNY7ksoZ9+ao1LNZrCd5PJHMG3qkMZFp0DvBzPqdNT1IljLjj5Uq9gfloqte+OVMx9zFMI/xV8RJuYoTfDzYLVlNLZnzkC+8G01KZm0qLWdQ6xPpooj7JKfY/tkBWtkZhGJmJ6XBrZacC2T8tFuyWByS92L60NIy7LUxK029r17MzSI4nk47v8YDcsbDLDkOn0/LXJayrHIQLH67CFayz8PqMaGdy5RUYYZT57xo29Ernb+pfa4pbVvOisyaNp1VvZJukYsRmeMldx2rRIXLpaw/bR0XS9VmYMW+4d0mzpPiXNobSTvOxDHZLwIMrHFLo9G0NV3KPvK5fN5Q9+nsfT8n+C8yrfPPi8B7o0NyiOC997I2MEu+ZZqNjkruNWIeFrdWOKSJDksOERCYt3ql83MHa2nnlXhkUHJtEMGKtvwmEexm7osyI4MLmTjvBL2Se7NNsohr59y6M1kk22a3NBiazpp/iQw5TsV+Iu/jh3LPBIZcGwqQ10EtsVlUhiiGNtvgWTGI6YtpzURka3sQvjkI86Et2LOQN5ddDyOUdMDxmPa+HNeH0Nqo9XQSV6tlZ2+OonOmD63WTgTTf0Y5414dQPPDHQhtHEZM61IuergRA9s9iGijpDPZW2G7EkKkBs0W7jvV7A+a6Q860bovBtfpEHoKtEW1P+YAzoVRyR0z0bfFNn/ZhMGb4cx5rLCh5+I0Bs392PKCsTeNLy0JBF5wI7jBC+/O+ZsIDZcIYY/dgeD2EGLHnTBrg2Xm7eL4PNeO0O4ODFxdAo3G7sYQeH0M1kNhxALq/T0pIthALNIHk38IoXK6eL0wgoFEB0Zeb0f0rZHcewpSPe4oPUpV6MEWdL87jvgX6nlRZNwxGeiHY6X2eTnEubP/AxNcR/vRckO8PlOL7bIEr2N5Zd9nk55WwyM36dm3WuczLel1hlJSb1FaytuzT2kSkUF4Y20YvTmO/o1pR5/Jht7INEY3j8P77kRZ57mZE4MIbu7HyLNW+E/4c5t7aj02icynNiCPWyM4+LbI/u4fhfcVlN0kNXbGi7FHBjEZG4Yz/cQiN1OLhdG3wgf/x+Xtv+aN3fB9HJ9b/7PT4xh+0ooaniEFE6zbejAcmoSIhea3/ew0JkPD6N5sqfH881GbJfeZvBjNuHfyHiFWctkq/No9KF/JihrFy+upopQescvRsalbCmtvU5SotuB3tRKy7b7c6r4vxqXeVelNlQwaV6ne0yu9kNeHTeovUEp+r5K3iaEq3h+E9BK9df05VfY5lOYQLmm02HgGyFdKk/d3lZTKbJ5hoEI1Q4bXXJQlTwljOaW9OqlYiWVlipWGqudfx7FpcZ4KS91mkxg3TylxuaWMMa9kz/qNhZJ8DSi6LbXmMqlz5/gr1vnmJunKXdaq5buOaSXIOr+3pLSg+/XyUHQf+Vzs8yaz1H1RvL45LDmyzmGlnzvi0uhO0/x1WkzXbTaL4yPnqr0I56DlQ1k3evt2SanQ9We+WXLO8a+p9XaRl7GWGFwsuHwn8jzkC43ODqbu9AUuQF9oTZQC2vssSjvlDdp0yxk3dcHXGzc1Hd3golAm4d5l+LFS6f4gUzIt4oQXEdtDrtbeNSrFCwUOSnCxeBn0ogzJhBmfgUo18dG7kMsWN7iowBLdD5QAblWvNK7tw3G5+aVZBN7a+4x1a8i+Uvg8VnBbfiEye7vS2q4rw7RgQ5xbMwJ9Q5a19tL3Y8OI9TR+vEdyrLXMNblVktki2bf3SsMTeXJiNTiOF55835TYR9IK7pQAdPOwJMJnRannDuXYyM64XuwW56XcAo+FPQeVsZ0q3reW+L4wOyUNP2kR26dd8mU1rUxX6+0i/9ZaYrOoPPI/NyA3LcmHH92Iqc1Z0qvE01getso9wKnKGfd6NP+4KxancpHK9KATvogX1pMdsJb48KCKlfOU+kV5Qn2BvsdFEhfznAdHZaT0B1/eTSByoBUN7UE4/FH4tqe3Jai9cp5ivtgPuqx2WRNK0z7Ae7Yfdu1cZN7pg2/TEJxPqc9rWTJuRzDgtKLjPRu8Ed98ExO5ieC5MHrhQZOtC4HrxjeRWlbXMblXopYGNB9OwHUynNGEZfZaGCM7ZnDQ3oDWN/R6Pso9jvMdu7rDq32AbdXnuSSi33eg7YwTY++65po32l8bRW+sC879kRLP0+IctL8ZTfKxkb6vyR4fRPh1EzwtWzB0pfR9zdjzSuHzbSop26hitdoXkoidHch90rdIDQ83YcvLI5go1KTzrtjGp7rQ9LXV6LrpRjg2ClclTSuXCQYXeZT2pNopiAi5oNyTe752pAUeAFZJl3SWRvUAyXORVbq6e8isPralknH1FOxi0QJro/aSqmNEF4VrexCS26GfbINDexCfPisaq+kfr8Sn1E8V7aJRp232E8pzjtGWPbyUh1LWwp1x+E4l0B2MYXTnwncqWNpTzIt176rzFNlHPHKHlvA8kjW8imCwumWdQfC9KDpy7hkyw/XuGDrERTu0cH29Fnc7jNGoA75Y1v1HMnML+iPT8NlD8Op101klo65jes+OaDsphovzR/bwSgPXmRN7xLWxG+cvD8O9wao9xVllelB+4NkwxgMuTLzcB/9Su3+v2vPcnSgCQVNuQLDCjv6zXpguhhAr5TcnxDnoAxN6I/r309m+E8bkYWBoX6DkY9eY88pyl0TwOStWu4Kw7B3FRNqTvuV7TmMXfeh+wA+H/NT+fN3eJoLofzmMVv8UZiP9aFnYsqcFx+BiIWQ8xl8nXfMib9bqkSbYZiYQLfdk+oAD7ZtF1uuEzk1cdyeUh5rN9atc1rh22FcBgbPy468yzZzxKw/FyqHUdjTBeg9H6Qum0v1Bh3m7D+HDdkzsaxUZAp1wJTqOqMkK6wPa+yXAVeQhRtWVeFXJ7MBgdBKD25b/VcN2eEp3/aZS8WCwlixwvT+OYb2aIbMTwxNLrERQuYm6wDKtkH/PFMLfWeo3dRZ7dkR1GcxxkSHGk0448tSgy8zrm2EVgW7Owx2XO3Fd7b2oE3zK5P3nYi/spZyHlXNQOPPm8iy2Z89jMujKX0hYUzqFFzpJCVyXkhkfBt4Bes6eR/82GyzpkS9MMK+yo/218xh9PgrPPp2b8GUPtsN3c3IBbmBfGhhcLHVrRGZeZNnDn2jvS2aB+y0v7Gc60fxMYC4zmpwJYcDpwMEHvRh5PlW6Ws64NniOumB6uwNbjoQwIx9FWnVfe8QCvb43kh+HELW0oHnhC3PvPRXvD/pse0NKhtz/hAN9H2UGGBPyxX5rq5if5oNO1NXvQWgpNTm5J0Vx0FaH1jfvtRwUVSPgqkP9C7rFN/eE5hYHcCpY8PySkK8l4hpUVW1qMVcPoqmuFUN88GvNFCu8UFJ2T17cLssKg4s8vvz5z7VXmcoe/umvtVe5SprWCgfadiQx4q/gorK2B+M3R9F+w4Pmr6klAvXWLgTXjWA6kttFYanjyiXesWA3cHSL2vawvhGd55wIHOvM6ApTlURAXDAsuzvmM6lUuWr2B11mOI+H4d0wgYPi4j5fpRtVaqycO9vnSlkiFwIw7W4vWLKYzbDj6Od/r73KVO50Csn7nc+MmXfe6f8q6zH9M2GErragc0fpOahy5yn9fb7x9RtLlP2bCjBqWWXlTus3ZS5vudPP2ZZpqlvWCEIfmOB+UmTAy1DuPPMO//vPtVeZyp1OIQ897oF33RC22LowcimG1EO/5Wklb0cRPNAGmyuIltf74Xqg/HmXOnzmoghgNnaio4zar1otS7rlPo9qp7Go2+Wz30PPs8DAti3oOxvFTNoT6b/8+WUkbkwgcGALOt62wXvYpVwzjZq3rNBnS5aIEMtW4deWhbvXrknx3/kdSVwipC9v3NCGZg6PP/qo9tmUdPifQPonjWuzhqvk7/xnMVxeX8WTTTr808x5zFF6ech9guOycHNQalnKPQ7VmLxtDbcQ+4PcrbDJJY3NzUN9WFn2U5DzKe84kqRr3/2GBFOjcrykD08ff6dIuceNTmqw6h6P+RRa1vcb1GnmW6Z8w7Onk2/8Txq/qkz/k7ThykMnt2c+gT2f8uf5jvQtMaxDZ1lS4x/5n7LWZ76ks70KMWpZZWVP64fbxTKbpfd0pqWn/GXV35YyQ5ZVftJygacsZytvnvmvY+nj52z/POlbq3J/UyEZy3r9/6PfW9RvfUWy/+EepbeovOst6zePaT0rZY//43b94ep0ZiXfdkjOrAdf5pM9z5R8y5jvPCeTv5M9vizfPEo5Z5YyD6VXon/yr6VPyvgducNPzPWklj6P7HG/vHGxrJ6cvmdLzbO67VLZvqCa/z2/I13/UW/uw/hEMjeukRzfGZbGP9VbN/nWmd485ocX2i5GkJe7lhhcpLk7NSX9w0MPSZ/96Z9KX/7yl9I//PZvS3djsZzhn+3apX6Wb3jad/INL2Ue8+LKgWV9pdRLy1Kh9rVtfjH7qQz3j9ocKzXeH7SnhirPD0iRuyPN90ThLOXs4wWPI6OmI76Tj2HzMGo64jvyhTD7qd56DJunUdMR38nHyHkYNa18jJq+kcsqZzTmnzVUmFHzNGo6hRg1D6OmI30xJrlWlFZwY9Q807+Tb/hynYdh075+nNtFDDcSg4sFdNtslj779rcl6Te/Ud5/9tRT0u2Ghpzh8l/ls3zD07+Tb7j2nULzyBCXn02gPVxnmYifdknmtH7o70c1O1ZquD8ofaTrPSSxROXs4wWPI6OmI76Tj2HzMGo6BZY1m2HzNGo6BZbdyHkYNa18jJr+QiyrHqPmadR0CjFqHkZNpxxGzTPjO/mGa99ZbvMwctqlMnKec5/lG659Z6HmYSQGFwvoV2fOzG982ZdfSr/64IPc4TL5s3zD9b5T7nC6J9yrx0ohZe3jhY4jo6YjvpOPYfMwajoFljWbYfM0ajoFlt3IeRg1rXyMmv5CLKseo+Zp1HQKMWoeRk2nHEbNU/c75Q6XLcF5GDntUhk5z5KntUDzMFKt8yZ18n9iJmWRb/at4GtE9x0eK0RERLSU1Dpvwt6iiIiIiIjIEAwuiIiIiIjIEAwuiIiIiIjIEAwuiIiIiIjIEAwuiIiIiIjIEAwuiIiIiIjIEAwuiIiIiIjIEAwuiIiIiIjIEAwuiIiIiIjIEAwuiIiIiIjIEAwuiIiIiIjIEAwuiIiIiIjIEAwuiIiIiIjIEAwuiIiIiIjIEAwuiIiIiIjIEAwuiIiIiIjIEAwuiIiIiIjIEAwuiIiIiIjIEAwuiIiIiIjIEAwuiIgWXQwD6+vQdCSmvc9yphN1dZ0Iam+NE0RnXR06z2hvs9VsvpUqsrzLWgm/7VYAHsdq1Ivx6uTU0ISOIxEk7mqfa4JPi8/WD4i9qkq3Ixh6uhkNX9HmV78aW14OYCZrfrEjTcbMTyh5WtcH0FTXhIHr2vsMRY6nMinr8+kqj4Jqj6WM7xv7+4iMxuCCiIgqomQEUxndgilfJlDNUOt/R0vVZuoMU26GzuDfdnUAzQ+7MbFtGLHPJUiShNnLg7AFWtGwaciQjH2GhFj+R1oxsKIP4bg2v9gwnFfcaGwZQDQrwCik8H6y2MGrUQFrNdNR9y3d9WNQ0Ea0kBhcEBEtNKUUMj0TsRqeK0B03+rM4UZnLJTS3rTp17XBLwb7n0gfVnoGybp3Usl0FkzXvLBp4+dywpc+7mmXGObCWPqwd53qqCUpLQCoqKT9TgRhsY1isVK/ZeRvS8K/34Po86M4v9cBywPqUNNKB/rPjsL1yR543kuqAw0S2t8B/yYfxo+3w5aan8WBnuAouq94sOfEjDqwBHn3E2WdlCYnQHlErA/xz/NI2jCRlnNpvu3wVO46utwDq/Y50XLB4IKIaKFt9+VmIvSS0RmLNT2YTJ/+5z6RBRZZ3kDaMJF829XRF9rMjJxhncF06fnWBZJA8IVuBFaIbP7bHhy8Un5GvrrfFkLoA6B9m0N7n8bcjo4dQDAyoQ0wQgwTF5NwbHfArA2Zs8IB55NiiS6OawMWRkmBrEiTeys7YhJ3jAnO1O1MdH9jcEFEtFjuJhB5sxPNDfMlrw2PdWLow4Q2Qm0lzviUJin+k34YW+5diRh8R0PibwgDJ1Olz9lNi9SalgV1O4KBP7Ki7ZwDvtgspv1WDNrFe517HfIz6Lfpzi+J5B3t5WK64sFq7bdk13zlbRb1RLlbM4HoCQ+22BoyptPwcDM63yxne6S5FBZbRWyNU4G5Y0C5xyJt+m0ntQ8KuRBEQPwJnQ0tgWOJaHExuCAiWhQJBJ+xovVoPfois2rJ62wc4X31GNhkFRm0GgcYiQC6nwnCeXQQzg+64a71/IqIHumA54oDva84EN3XhZFb8tCspkXSGEppSJPTvCwrrd4X1cbUl0zMIHphCB5HI+oeasfouhFMxUbhWmmCZecoYtEhNPodaPiayNQeCWDiRgLJAhnb6n+bA44dQOCDYG7GVWxHn8jMO1vs2gAjWGHfZELoTEjspVnuhkRGXCzRpmZtgGadF1Pab9Gt+Ur7PDOptWeliB5oRtPrQO/ZGGbTpjEd8cL6biusL0e0MVXz+0H++zpCxwcwY7HA/EEf+i+pw5zvpi+fhLFd6vC87kYxsE/sE7vccIhjyfOhNjyHH23aPsibselexuCCiGgxXPFiz0kbBi8Mo32tSR1mMsP25DDGXm2Af/9IefcElOOWHx3WDoR2jsH3Yjd8p50IPuFA30eLE2AkPuhE674YXKdH0X9oVGTmxtH1WBeCFS6Obtv1tDR1OP9dIPKNzG5rI1pfCABP+jD5+TTCr7fDqm0imWlNO4YnZjE70Y/ma0PotP//27sf4CbOvE/wX97XmZGrMrvybjIr7zFViIV5aa/JRj6Yir3J3lkUUxd5nRvsgRRyOXPETqoSk9ROJNg32JPazRpyZ2RSldjJLbHhCk5OXTiLLYhF1csi7oqsnHvhtacKvxaJKYsNmbVqQ05awpZ1wdD39B/ZLalb6pZatox/n9QTrEf9X63W8+t+/lShmgVqaptrzr5Z4D7iA3e6Cc53QojJTyqS34bQs5MVnJ8ZgG+vYgNN4GTb6r7ShrqXA4ik1hcLod/VikEWKAzss0mZZSS5MC//JVk6DzQCmGs96PyYg+9KBP598zjMjmXgjvyeXgsxjOxpgBc+jJ0Ywij7LvkbG9B/Q34/zVKbG7XqW2pBcfENzQlZfhRcEELISohGWfBgh329/FqB217Pgo8JpN9fN+GuZzKG0NEmVP+iDZPtlxA54RLr1Fub/YiGGjBSX4WaV5cKk6aICfvpALdJfq2UjCLwag2qWoJwjrACXrO4NXCdYH/Xj6LpyQb0XI4tbzUTKyscxnnEI5fge8252JhZjWWLC57jlzAtTH9KOpaLzN63LR5M3B5FwxedsP9MOg8qt+5HZE8Y8Std5jf6FY7DTBiehV40yNX2Ku0sKKodxty4B1yFPN0y4t6ZQPjVOXifsy91x8tS1XYvJp8fRfQDlTYpWoQAe+cg6s+F4NkkfS7h1yJo3bwD/TqrJSZvBNDJVaNtrgfT8jERvkuRU9Xo5Tai80zU0LmrFhSnPwVKXQOkDiAIKVcUXBBCyEqws8CCFbujYhWZdJGr40BtXUYvS7nveuqRvDmMng8A75U4ZllBTFkYtjYOYPa7MDq+7ULHx7mqDWW2FciTnhtkBaylwCit+9VbAfgu2OEbj2J0r+JOeIUN7kAU4SNVCH4cKqwu/Uorxb6tb4EvNLtUJSg+jdED9bCWqqD/RD26Tk0gfl9e3/wsLh1rga2Q9SnaZKil6kM6GqRXWFH/hp8FWXG5FzIOvREe83MTGHtX/3YlvuhBg70N0UNhOegTsGUfYfs64oB/dyv6b+QJCxLj6N3XhblXheAuPdgSqs7NXfdg7q02DKo+wShU6howC1+tnEVIOWIXDMMKnI2QNYe+K0RbnB9rt/LY1MGPRlhxUTAf56dPtPA2WHn3ubiUJzjnZueSm2cFC5ON8W52jrrPyS8zlWy9hcqzvfwszwpd4vcub6r1sakzSctXnV5Pai/mSOXbt7Vhto9T+WzCfJdF5XirJuF8lc4Dri/7E+Z/mOC7n7HxLSNzckZ+Y+1suUV9tkzO71KO7U1Jm1/H9ITkIHxXSomeXBBCyIoQqmJEEX5zHr31ldId3MoqNHxkQc94VHFHdS1JInqhH53OGlRXKu5sV1ajxtmJ/gschtnvonZXuXZ4rst32VNJvsPtm8nIV+3mN7ORtTJJd4vVqq4sppzjVhS7b5LMnow0k5kjZqstPzOZtD6xy9msz6YeA/Mqx1s1Ce0rpPNA9Qnf4w70js+lP03KQ2zgnW9MEqHK4Yed2MFVp1XZEkZR3/FqP4LcsLxthDz6KLgghJCVkqrmIY+ALKT4VT+6nlklgYU4GKBZIywnWMG5Ghvdo7C2+xGek3vQYml+Lgx/uxWj7o2ofkm94XR5M2/fMnsyUks5G6wbpGd8Cb3rMycw0l8tT2/bpMQfh9HzQh2qFV1CC0no4rbpnWFM5mvknQii016N1hEr3KfDmFsMhOYRj4zCY2PbvLk6bw9wWr2cUaNustpQcEEIISvJ1AL6Kna+C02n6zB0PQzfPgfs1qXejyxWOxz7fAhfH0Ld6SZ0rbbC1qO8b0a1j6UFJpkpf6CS6+lSKultk5DE+FsbUbW9H7FdwwjPLAV9/P15RK8MoyXWj7onN8L7hXYbDGE08+ENA4iM+9CxzY6lj9cCq42D691LiI40YOSFDoyodpag8sRNkfI9zSKk3FBwQQgh5U4c0bvIKhW3WCEp666oNHDbyAuZ+etQ+Wb6mAGlFr0xCdS64FTpPWvReidcrNA4ecOMCjjLx8x903P3P984HkboqRZl5vry0/PkQmdvSjE/et6fh+fKNIaEoO8JRXe+FSww2OBAx/FphA/Mo/8dP9TH3pZGM+daXMhV0cq63QkOkTIcfZ4Q81FwQQghq1jAzQKB14UxhvPY4MGEyl1RrTT/Qb084/Kwb3PCMhVESKX3rEWJcYSmLHBuy6hLLz79UStksrTZy4p0EXg3q7wnp1JXOylq39Tkufsvpqx2CxEc5tah4cMCSreaA+ApkmobltJxn1PZhoxUaK9qxkgDDkYCQY3gQ5K4GmKfgAPcBjmDkEcYBReEELKCHvzpB/mvdA++/lr+K116PiuQnrWgY7f+/v31LVfJ2PYJjK5DzG/sxei+aXRubYD35CSiieTi9MlEFJMnvWL3oRP7RtHbmLEs8cmOVKBc+OqrtAKmnnytaicF7YeKB//N/5S1byn/9Vooa98EmcsqeltiYYRu1KNtl/6GzEWvU6aVLzC+rD/Jf6UraB13n8NAXzX6n6tBp/C53JE+F3H6hSQStyYx/GoNGo5Ww/dRB57UWI4w4ODLN/eDq/di+FoUSx9vEt9f/ncIvLMDdneYBUSDcMld1qptk/Y+q+fju9X1BI+sIezialiBsxGy5tB3hWhZmJnh4089xX8ndp+pL/2yeos4ffzpp/kHt27x/NVu3mbr5ifkZeaiXJ84r0yZv7jcVP4Gq7jezxT5AuE9cfqNVVnbqJWytl1eTvq6v+Jngz6+o5HjbT9VzP/TJ3musYP3BWf5e4Xsh0q+YHE/VPKz1zHL9/1S736oreMp/ub/1i3tW0a3qlz9i+K+CR0SK5eVml+5LWK3qIp5c6XfblzalvkRF8+CMHEd+SjXefPtTarLzk4/5f81+zfXMf68RW0+lWSp5v+G/at1jH+rnDZnauY/Uxy7FOWyhHV8H/xf+O5mB2/7O+nzW6v/Me/6wxA/8V36fmgt69//qxd55xYbb1EsQ0j/7O//Q/7z/+urrOmFZWXm5drOpWNxmf837Bz6ZUY+IXoJ52UpUXBBSAnRd4WoWZid5b9/8kn+7u9+xz/45hv++5//nF+IRrPy77a3S+9p5AtjAtj/MC0vVZtZ61POo5VP6zBvHXqn07MtQlDSMpI/tDBznan3tPJpHe2mLEPIJ8QICi4IWcXou0LU3LFa+bsvvsjzDx+Kr+/u2cPfqarKyhf+Fd/TyNfLrPWlzaOVL89D6yh+HXqnW1y2Vj6bRy8z17n4nla+PM9aXocZyxDyCTGi1GWTdcL/2EoMERrAFTAbIWsOfVeImh8//xw/aWoSThAp4+FD/HjuHFBRkZ4vEN4LBlXz8Wf6ms2ZtT7VeYzmC2gduvLN/Nx+8pvfyBm50bmyvOtY7msBIYJSl00ouCCkhOi7QgghhJByUuqyCYW6hBBCCCGEEFNQcEEIIYQQQggxBQUXhBBCCCGEEFNQcEEIIYQQQggxBQUXhBBCCCGEEFNQcEEIIYQQQggxBQUXhBBCCCGEEFNQcEEIIYQQQggxBQUXhBBCCCGEEFNQcEEIIYQQQggxBQUXhBBCCCGEEFOs4xn5b93WrVsn/0UIIYQQQghZTQoo/utWcHBRyo0i5FFB3xVCCCGElJNSl02oWhQhhBBCCCHEFBRcEEIIIYQQQkxBwQUhhBBCCCHEFBRcEEIIIYQQQkxBwQUhhBBCCCHEFBRcEEIIIYQQQkxBwQUhhBBCCCHEFBRcEEIIIYQQQkxBwQUhhBBCCCHEFBRcEEIIIYQQQkxBwQUhhBBCCCHEFBRcEEIIIYQQQkxBwQUhq0kyisBbO1BTtQ7r1gmpEtXb2zD4RUKeQBI9WiO9/1JQzilUFP1bpXW1nZezTBdEm7gvNei/KWcV6mY/asRltbGlFmo59rn8iefQ1n52NMpH8CUzzulcpHPRrM/drO0tx8+idKTvX83RtbG3BROvdSZcMx8RiS8G0ba9SvrdY6ly8w54z8bkd1PMPbfW1vfSGAouCFktFiLof24jWt8PIbIYSyQRuzaC/c/Z0fpp5oVUy1LhWSuZXagWC1lsuYVc1LXmNbbMVACTO62tAo1JP7Qs4A0ebUPdL6pRqTyeldWocXai/0KUnaVa8p+LxQWKCskIhl+qQ9Vj0nIrHSwo/zI9KNcr8WU/WjdXStv3WBXqXg0gqr2TJE2R593iDQSdKWfhT8/5J6c8QWLqepQ35dqeHAGDKYHq+Ta2DSZ9n8pIgu2X/bl+VB4MY/4+D56fR/S4C5MvV6PuaESeSp/FG3OqyYxjZ+Cck9Nq/F2i4IKQVSL2cQe814S/HOgOzWGeZxfR+TmMvWFneQkE3B4EF4T315bIwY1LF+LNXhj7KSFFSbCgrXojOi7b0Xshgrj4wy6l+blJjB6wIejeCPurQY0Aww7P9aV5eH4MbpbrPqfM88MlTVw4MTCvgfdeF8Jxtsz785h4M4meeif6b8jT6JS80Al7fS9waEIqyMTD6LrTgY2scBMx8P3LVxhdW4GuAZs8mF48N3Sk6x52luWWfr5ppFO5z0LXKZV5MtJsHydPTUyzEELPnhE0jExgaDcHS4WQaYGt0YNLgS72+7Afw3rvuzH2A9Oqnx1/TrgymSHzmielS69ZxPe6Vd6bPpDvDC4/FFwQskpMXB0X/+WO+NHbaGOXT8Zig+uYTyyQASGE/yj+seR0k1xYUd4NU7+48fwsfLXyJKZKIlHYDeI0aUEES02n5Td0ccGv3NfUD0WtD7OKfEMXcaFgLVRPq2pDUNg/rTuq4h18LwI304vXi4XLzDuZbDl1qXm39+Ov/8828YlA1UtBFkKWl+jJHozYehEK9sJVa5V/2CUWqw3c8724dMEDfNIPv4EfeLOJgfnNLgQ/6wD3OMuosIDbN4rQ2wl4dxup1hBB7+vDqHo7hNF9ckHmcQ4dnwXRddOLjo8N7mT72NI5mZEMnYs32DnzWJ0cKOW4M6o416Q7tCp3YoVlsWnrDo0jsTCO/VVVaDtv5pmXQPwOEI8Xu0ztKmym3OU3SM+Ti40Hl+nWh9a16IUR9uYImtTe03yikmD7VrV0/RGffqjMz9LSZyF9NtkBsrSsdVWtGPmWfS8/2SFe44wE5VluTSKUdKKl0SpnKDS60MJ+F0NX5ddlSnjy0voxu47ss+LwviKPR5mg4IKQNUer8LER3il5EjMthBG+KP0ZuW7+jyvXN7tUKJvxYXnuDbJjuLMJIwkrus774VL5XVuUjCFyWahG05D/Lrlwh32vF5PiCyeGznrwq98Owr/XggQLFJ3v6y8G5ycV8oqWmM9R7cmgewmpAGOqKPzHx8Ed8qBeEfwIHK+zvKlBDOs976/5MXzLie43HXKGrKIenkMcxo/7NQpoJcTOmcO7vaj6KAjPFjlPoBa45LuLLwTM9V5E2byhI/Wwsv0auNiF8Rfa2LkuT1OsqVGMsBgs9ulokU8ZOdTVsuXEMgO6GOZYwZXbugJPCXIEi4tJx5OUohl9uiMkje1KnO1CKyv8Bk+4sHSZ4+CbyV6Gv1l+W0PkqBNNp+3wjY/CvR6wvTIKf7UXTe9IV7zlsnSjKju41qwWJQZmJltIYPzoDthfGEdbKIShEyFcqh9EDbcfQTOuzSuIggtCVom67fXiv5FDbei5HJMKdKzgGnzLC+my50TD0+IfSxZ/7Kbh2STnLbPEmX4MpkqfpwcLLqSkBREsjbVL+QVVi0rdGboTL6gwm/h0v1RFbdcgfM9KeUqL1Szm45g+0SL/KE/Ce2gkZ0F88p0mueqblS1jFB3sB1j4u+WjYbFq0ORbnRhmBSdT3ItgkpXLIpHCi3j2fb1wJw/D5epBcCqBpOKOWzLBgqoLPdjxfD+S+zxos8lv5PJtVCycZxcYixHBBAseGmpVik7rG+C0RTF5XV94FL0SRGwL+56p7Iu93gnL1AQml/muY+zkfvTAh6FX9BzgHITAVgiYN/kQVhYkt/Wgd1cQXe9IT06Lk0DgyCCsxy5hyH4Y3k+Lj1jmWHCbbh6J7+Q/dRp5QVGI1Eo5226YKQLv5uz1i09qF59Es6TzWpf44zB6XqhD9WInIFKq+kUdK9QPYzJXIXZhHD0vB9ByypcVmBsl3J1vOBhl17WQIghm17kj3cB73sKvaxsccFpCCFxWOZcuBxFgv4vO7fJr2dJviUaVy4wn2kvJhCqawpP8WERqp/azKrRcdiH43SwGxCcvVjg/mEX8pB2Djmo0vMU+n5hpt26WFQUXhKwStteG4dsm/DWJw0658WxlNZo+FH7yhMLoIFwGfwC06hrnuwOl241+ON3Ke0NBtO0s7LFvcdWi0k1eDUl/xMYxkaMcu1ToUN7hisB3SHhlR/e7bql6mhaLFdw+FoA0yq9n5jAn/5lJ+PF1vicVXxx9YfYZKB6HWN3wiHVyQzh83KSnP5fHpH26EJaflBTA6oJ/Loy2ycNo2m5fbCwtpMpqDnWuw5jeF8YcK6zmPE6y2MUxscAUujIhZZjhJguiwIHbLL9OY0XVEyxo+FbrU8mwwH7oKyzq+2KzszNiEtFb8utlEcHAkRBaDnUVdzd8IYaRPQ3wohfTVzzg0q4jFrgPdcPyoQ8j9+SsAgl3rrsq/Aj93omOwBisbzlxeMpg4WmxWo70pDXzupCdr1L1a5FWFVGVpOeJg7Lwr5ny9fCk/lRAvJmifDKi4ylt5Ggdqrb3I7ZrGOGZ+aV578+zQHkYLbF+1FVrP1FNnvFh0OpBT7Oeb6+2xJc9cL4QhCsQTb+uCWpZ8NpcxHWtwonez9wIu+vQeSYi3+BIIna5HztaBlkgMYCOIuNuMyXOd4CzN6F/pg69k/OYC3pQz65Bysb21mc9GItGMbwzgUF3DaqqWdBv1k2lZULBBSGrRQUHz/gcRtkPM7d4fbbAts2NgSsqF+0VlriwHxs5uYrPtm5M3B6DW9jEa17UcJ1ZbRAKZbha1EIIw++nIgr29xmDd8m/GES/UIDc4EabWW1UEkF0vTQiPkWx7B1F6ED2Xjhf9kD4jYweHUTx95CTGDk5gvpjQ+hK9GP4spydacqLjalCkdadW4sN1ezHkXt3QupkIJXmJ9DLjk9Vtdw+KC9WUD42DssGOyynh7ULssoCXInq1S8FlWXe1ad4LrrRsbuYwl8CwZc5tF12YexiNzi1RW1rZQW0AMa0zpN8Ftg63tyIukAbQqmnIkJgerkNY9trWKEwV49iGZr9S+eYrmTG3eb8shp0i9citUBhmZ4ix4ax/+AcPFemMbTPAfsTig+WBcjWDQ50HJ/GpVe0nqjG4P8kAO51VhiWcwoi3GCqPwwIN0x2qf1GWdCy14Xo2WDBT4as7JyIsqB4vq8BleINjkqxEwnHiTlMqFxLV5KwrXPzs7h03APXlhzfW6Fd2PMeDIVmEZ9jv53iU+zVg4ILQlaTChtajl3CtNDjjfhDNY+5q350PZt+0V7s8SJPDye5qgNUHyr0fnaSFVYqUeUalH4snulG+GIvHOtZYeK6Hy1CCfnmsNiV545P8hfs8/XCktbwdbGusXaBInby8FI1LWb8zQ7NqlpLT3aWlhe5EhJ/iC3NTfl/dJMJRE52wSsXyuy7XCp3P+cw/JLQfoP9aXVj9KNUNaoM2xrQJPybHMWYWHWqCNd60XO2Bftf6UBPnwOD/2aYFSVUKKsHlLiuePJ8Lyso2+E5MwrPhgB6P9Yoaijv3uY5v0WbODhY4BKZkV+niSHKggf7+mr5tWTpc08vCFZa2XQLSfWCcEyo0sUKcRvk18sgOs7OxUYn6oqosjK5WA+eneOqJ57AgbpGFoqPF3JNiGCwkYO3YgBzmU9FtngQvj0A65Ed2G9qo/Hccnc3mi+tlbElJhC6bGGBQRHf+u8CS214chTyLY4GcFMhjBfxZMz6bBf8V+OL14b5mUvw7SrwkYXypopKKvS3Med5l6uxvZhW2XnHPgTDCpyNkDWnNN+VMd7NlissO29qH5PnUZrlfbUq02amvaNp07ICl37z03zvMzbe1Rfm4/flvJT5WX70FY63sW2Lixmp/eF434yYocHAfsPNplYR8fEO8X0r3xGc5oca5em3+fjpxe3Mvc9j7dJ7zuNzco5sxsezn09peWppWzc/8YM8LZNaDqxWnpXpxL8t7JhLx0QN265t0nSukXk5rwD3p8XlOI6xsEF8PcF3bxCWmb7m2T6OZ8EFW2smI5+DSlI7J++H+S4reOu+MV7Ys3jAzbNiDT90W3o7RTxmqud0LtLnaf8DCzsziZ+Zne++Lr+W903zXL/azdtQzw9kbJdA7Xjl2l4j+6L1WQjLsLwRll+laH+/lfslLlPOz33eScTpxWtCqUnbz/Vl7a35512xzrnV16UzZZ1n+a4hyn0Qp819zZzuc/Co4PiOExP87HeKa8b9eT4eneCH2HWYBY68LyLnK4nLZ9/BjMuc5j6nnZ/Kz4rje9WWn0aYXs905UX7Gln+hM+mlCi4IKSESvNdMfAjW4of1BVjpHChElzc9vMtrAArvO/okwuacbZMOQ/PdPNhsYSVK7jI8Z5WwcDq4N0fZAdZi8FFbS/vf9suT2/h3QHtYl5qnuyCl15xtgxrRjDFRHrZtqcXMpbvh1PeJiv7zBZ3XX07jRTIleY+qGfL7+LDGZ/BhHDcVQpFmsEFPy0GYva3J+TXMjk4qv8gvSSWa3uN7Euu4CL7XJDP0TzLloILNz8qB9yOI9NiYKelvAtSWgHJI0xHcCGITw7xnkaOt1mka0cqWWwc7/z9ED/xnTxhJnH5KtdRMbjQdyOI6wtL32P23R7VWo8o3/dOj6Vrc75ULufJ/MwY72t38LbUb5CYLLxti5Pv6BvjZ4u4h5SPsK5SompRhKw6GWM2qCRWEJCnzc1I9YCCRu02NJpuvse++feb/SCqVlVKnO9E9S/aEEgAVuUjeqHe97jcE8qXh9HwvFyVq0jsR3Jpm+IT8L8hdOspv5nFgvp3x+TG+kmMtBgf2E0Xsd57HZrOC3XrM6undGO0D/BubUC/0Qa2xYzQndqmrGo5VrhOhOGDFw17RhArsgcmsTOETYNwuQYxKVS9WEgicrIVzves8J0xUt2LQ+9pD+bfc6L1pNx49N4kBl0uDG7yYfg1g9Uw8jQArjO162F1li0ehM65ET1UgwaDoxkbZeR6s5yDCCa+GESns6awHpXKnPXpDvhC05ibZ9cicXwfN1jAgPm5aVw61gGH0Ji4ZGzS93jTCFo3t0njAZWMnsb5+sdy0jNuiZgK7EVM6MCjenMHQht6EVI2tp+fwyS7JtkutmGjvbPEx6x0yjq4+OSv46h5/ybWvf234r/Ca0KINECR6oVOTss2WNOyyr/fWt0zWpt9rIDPwbZvFNG0/toZod531I8W9iM8diFfrzt2cPIQB6Z2lyo01j/tg7ToSXjr1X6Ipf77BdXWSukPI+6FEbjCYUijbj13IIzpd4HRz1ihWc7LS+cI3dVaAwAK23TBBt/1cPoYDQLhmFwMo2uuF75rBgOeTMKyrsxieMMwnEIB8rFK1H1gQe+4sltMnZ71ITLeC8sHdVLj0SqnuNzZrF6WctMzovPE7/OHPcUPRid8P/wI9zkwebAh94B59mqkt04xRnP047SUvwCYHaRo9RyV74ZFEsFXq1HF9t/azo5BVKNHpSdTAxRqMHITRU9hVFxeOdSxTyBRZA9h0vdYGHl/BE05ewq0CadXeVG271JJem/iZRsXRxXnPpjE2LsucMrG9hYrbLUu9AbD6H1iGPuPrc7f8rINLoRA4tWz/wmR//z/ia+Ff4XXFGAQUgKaF9EiR+3WNZiT8MNTakL/4dOYE8acUCsArndjdHIo92B4Mjsn/aCEr5t8Z1W4gzwiN1BOjKDtzcwC+Ryi4u+MBRxXQENFqwtDk2Po0CxMs+W+HUb4XYfO3p1YGNTXgZEtA5jMNUL3xW5YTvdgWK2LVmGbZlhgUauxRms9CwCm4XtG7xblYLGj5fjEYgA0P+lH1zM6PnAV1me64J+UC6L345g43gK7CZtolHAuxqYMBIM5cAdCYnenIy+oPzkTBsAUe/KSX684zbEI5KSn57iYH/2fAJ4LYfiEHpWsir1T9qj0WgTegznGqNE5aF3hhVEV4jpL2PMU+6wdmMC0GU9R5SfEjmteNLyscqNB7C66BvaiekTKMTL9YirRQLFG3WLX2SSH1udzXMdZUOZwsL26tXxP8MxUtsHF+//he/mvdFr5hKw96v2hpyU9vemsOjr2u4TdT3LPOcUCVvLMmNTNromse/2sgCcVeMURuZXVVG6GEBAflqQPlhhwr0Pl6/K4HWRN4WpZ6eNiEeOUpJGrom0Tnpy1ZvSrPymOsu+slx/bMXTelSfTeiSqcKCuNoZxYaRNM8jV74SqgM5D42kBRvJqCBFbPeoWy9oRHObWoeFD4+vmMgZbVUtpPQyuhA0NaLBEMHohx/4tsO/cFcDOgrzVqGyDi9QTi0xa+YSsFQ++/pP8l/pIrumpDZ9//bU8fboHynzNut/pd3rS5tFBa3qt/IdRPdPr2e91cP+vxtada9/S3nu2Cx6hu9FYjvEhCsYKeB/50SHfUBeqqez/Qvo7dmFUqvK1qw0tj4tZzDhCZy3o2O2UX+dndP9z5TsODsN9Yz8cGSN0C++lRuhuaj6MZHsvOtgxM2vdglzvqTFr3YVsU8nW0diEluQw/Gadh4tVWAJo26qomjc1ipGYC22Lg6kZP+8Eph2f736U/8pmaFm2Nvx+zwL6n6tB58lJRBNLzyYeRK4jcWsSw6/WYMfHHHx9SwNmmrYfGvkS9X3Mt6zMqmcLX32V9lqZst+TnoRIy7LDtcuO0IlR9W6qC7BY/e69BsWNkyQCZ4Kw7WuVq4UysTBCN+rRZqAr2Qdfq9/hN3rstfIFhcyj5sHXf18c+C/yJocd7wQRuSOdd+JykglErw2jc2sdDic7MPAWZ3j5ZYGdUIYVOJsh+MspzUTIamHmd2VhZoaPP/UU/x1b5l6WhGXnT1b+U/Zv/Omn+Qe3bslLkpYlLOeP/9CiMo96+u0Gad3CsvJRbmvmelP5S9s0Ju/PT/l/nZYvSW1r/OmNBvYbfCtLymWpr1uytA4h/8piryN7/636fsRHXNJ6Gof4zJ4aS0LujUj4PLuuyHkCoWtUWzef0XeRKmOfCc/P/Mt/xMNSzf9NRr4g7Xh9dYUf/YOLd6y38azwtXj88dMnea6xg/cFZ/l7GuvQ/5lI+WIPS7/5RHU/tBjbb+lcVJ7r+bZJoLWO879h21tlz5pHfd0StXWIPTX98i/5P6qsI/yGlccuf86enop16TULb2mXugkWGTjvBFrHR/04zPJ9vwT/y+otmsdHOCcXz7OcieP7/r36sVau+6tN6/mX6zdl9NoD/u8+Vsk//+b/stijkrH9yM6/+famxR63hPcypxeI82yp5n/J3lNui2ZSfB/UlqW5jjz7Ibo9xDvTumougdsDfH1G71PzwvW1Wd85rdzmo3+hcnzUko7r2uctKvOpJY1lqck87ou9Rf0d5TL/jLf9owaxt6iZqaXp9SzfCGFdpbTqggvuWJ5+1wgpI2Z9VxZmZ/nvn3ySv/u73/EPvvmG//7nP+cXotGs/Lvt7dJ7WvmKebTy9awjFyPLWY5tNXMdS+SuUtnnmzk+RCnMHnOI67KyAp5ybUKhU3X8hgwrdbyWYx25rNQ2Lcc6FsX9vEsoAF6VX5tN7KY4fcwRveedYKWOD62juHWkTAjdNbOCfmmucnF+dK+Ft2aM1SLcRGjRMZaP3n1ZjuOVmkeL0eVo5rN5zLB2g4t/qR5cHP9//l95CkLKn1nflTtWK3/3xRd5/uFD8fXdPXv4O1VVWfnCv+J7WvnKebTy5XlyrSMXI8tZjm01cx1p5MHoNAehMktq4L+0cSCMWanjtRzryGWltmk51qEUP+fmrSrjeBRNPseLCaBX6vjQOopcR4p8DmQNGmoC8bzd0M1PFHje6t6X1P5r5ZtxvOR5tBhdjmY+m8cMpS7HrxP+x1ZiiFCfuYDZDBG6nxV+trl/8FOxnQX385/i9//07+OVX1XJUxBS/sz6rvz4+ef4SVOTsEAp4+FD/HjuHFBRkZ4vEN4LBtXz1eYxmp9H2W2rievAn63OoYHW6mdC5+LKe5Q/g0d+HWWuHM8tre+lmdv6k9/8Rs4oXKnL8eUdXDD8e/9Y/Bd3xjH4Vhd6Pp1EQmg0aLHD+ZoP/r4W2BTdHwo9JWw81YHZ60YGRlJn5rLI2rQc3xVCCCGEEL1KXTZZHbc+hIGaNjegv6IH4bjUq8F8dAiuqQ5U1+calCVb7hFC2xCUpyOEEEIIIYQYsyqCi9ChVow858fEiRZwcheMFpsTnuAouqa82H9Sf0dpmiOEisPiP3oSF7yoq5SCp7bzciYhhBBCCCElsAqCiygmryThbHYiayzVCidcu1nwcWVCzlhmN/pR91idPJrp0uiQOz7RCnakaWqOmj3iYhKBPWzd3GGpH/yUqR7UuQJoOBcXAyh/MxB5rwbrHmtFoNgh/Y2YOowadlxaz5oxjqyGb4exY/GzIIQQQgghK2F1VIsyasqLjXJVp8y79ZrVosSRKw1YiODwbi+qPgrCs0XOk4VebcNw2uim5old2I+6Xw+yMCW/yPkAols60LUzKywrjVgQ+7fvwGBqhM/ltL4Do6eq4X2+B5MGqskRQgghhBDzrILgwg7HcxaEzofShosXLYQQPAM4n6uTM2S1PszK1Z2Eu/VZFO+nJz9c8iT5xE7uRw98GHolYwTJZ5xwIoTO10eyt9cE81MhTM5lPgGwoOUztv2RbnByjiAaiQAVlsVRRQXc29Pg748qRvg10b0IQtfmkPV8orYb0+z4ju5Sbon5rHt96MZheA1UkyOEEEIIIeZZFU8unEdG4b7ShrqXA4jI1XmSsRD6Xa0YZIHCwD79Q8SbI4KBIyG0HOrK7kVqcxcG+hzA+Q50nS1FeEG0ceg54kLoyEB69TBCCCGEELIsVke1KKsL/pkwPAu9aKiSqjFV2jsRrB3G3LgHnKIr2mXxxSD6b7nRsVvtTrwF3O/98G1LYsTdhYCu+CKJ6BkvdmyuXKymVbl5B7xnlXfgg2hj+RsPsmKzSrWv4Evs9UtyX1c3+8U2Dk2n2d+L00o9YYnVwrb2Z1Wril3sQStXJa+/EnWvBhBTVC9KsH1u216NSnm9lZtb0f/l0s6J69/sZYX6CLybpWnSt6cG/RnVpZI3A/A6Ny4uc13lRux4K329qf0W9jN2tnOxcfq6qjp0ns1+QmFpboPrVgDBlaiaRQghhBCyxq2eNhdP1KPr1ATi9+UqTPOzuHQsfYwL3RSFc7VUfWhSnlBddDyEZKMTdVrrruDgOe2DIzmCjjeDeapHJRF81Y6Nr07CdTyKeWHf7s9j4ogdgZZq1B1N3YNnARZ7b7aPy1/ta5NHrIY01s7+XpxWu8pX5Ggdqn89gqp3w5gXju/9OPz1LEC6KE/ACvi9R+bQdjKCuLAstn3hl6Pw1ndgRH6S5DrF8md84Nh/vhlhfSyd0q5klrzQCfvmDkw+P4TovDT9/KQP9vOtqt0LR99vRcdNN4JCV8Rs+8KvAcMtDeiZkidIedyBhi0RhK6WsPE4IYQQQghR9cg16Ba7ms0x6J1mV7SKNHfEIU+tLnI9AkttDXJWxtrigf8Ih8TpNngv5CjoTvVi/yeV6L54CZ5Gm9Q+osICbvcQJkZcmDzYs1iAL4mpHjQdjKIjOI2h3RwsQsAkrH/fKHzPS5MIgY0v2AtXrXVx+xwHeuBGAGOXxQkMiqD39WFUvh3CpQNO2OQHQJYtLRi6yoKga170nEk/ZuPWVoympq2wov7IILosUQTOZ1aA4uDYzoKRW2b3yEUIIYQQQvJZVcFF7gHwFEml2k8hcgUq9l/kb+fBHRhFb20Cw24vxjV6MEr16NS2Tc5QsDa2wMkK8KErckYJRC8GEbV1oet5tSpeCkJj7Y970PlqE+p+UY2qylYY7F9ryY0AArc4dLykEsRZnWhpBAIXQ3KGxLW7Ja1hOlhoZ9/Ejl9E/ZPWyieEEEIIIaWzqoILPU8dxGpDOohtBNQCk8xUTKBSwaH7TC+4xCBcb43LmenUenRaZKsWn47Ml7Br1cjkJPBEVfYYIkrCeB4/q8H+8So4d/Vi9Ookoj+MoeBhB2emxQbX4lOSLDZUr2f/ZOyz9fE8wQ8hhBBCCFlxj1y1KEPax1QDlFTKFajE4zp7gtrSjVGhetSHbei5ll09qno9Cx8WktndtwruJZBgYUdVlfy6BHKuXxTD8OteRF67hOlTHrifd8Bus8FaTFm/2i4GTUnVoCmJBDu0FmtxO21bXy3/RQghhBBClssjVy1K7E2pxOwch9hUJEeBPJ1UPSqKw/t6MZFRoHa4WmG9MQz/NTlDIXHej6ClAy3PyBkpOYMBYxw7W2HRWL9kHonvhGpgGYX1L0NIr7i0RD1oUHi6Ca3WCIZPqTScTwTgP29Bx656OcOoKCJssTV2Ci4IIYQQQpbb6ntyoTkAniLlaNBtBq7WAVwMI3efUgqp6lFTIxi5IeelPNsLf3sch3fuQP/lmBQ0sOAhcqYTde4w3J/1wqmoPmTfwtZ9w4/AlEnhRWMvRjPXn4xh8uNWeC8IL+xoaLQi0teLQExaZ5IFI637hrMDnA0cHIjAfyZP4FVRj95TbsTfc2LH0RDkxbLlBtC5vQ3hdhaMNUp5ht0bR2jKhnpH/jYxhBBCCCHEXGu7WlShGpvQkhyGX62npLt/kv9I9+DPdsP/dnbI8+Dr/wzXqSjC79rgb5HHkXisEg3v/md4xqPwN2e0hni+H6f/x+/Qs1UaEyM1zoVIa91ffy3/lU7Kt8J1ImP9P3Pg30T3oGenNF39sTCGGsfRVi2ts7qd/X1xOK1rW3FZFS70j7Cg4d0aaTkvBTXXbW324+b/8SZsn7WiWh67orK+F/NvhnGzZ5NqG5Dc+yFJnh9F0NaBVpUG8oQQQgghpMT4AhQ4myH4yykxKc32ceK68yeO983IM2kYa1ebTyXV+vhZeR6l8BtWHrv8/Lz8emFmho8/9RT/HZvnwa1bcm56fvzppxff08oXCO9p5dM61NchmeMHngHP9al9YitDOIcIIYQQQspFqcsmj1xvUVKahmeTPJMGcdA31XkzkkYVq/p3B+E624Pea8CDaBT/paEBf+5w4O998w0Sv/oVWAE4K//Pt26V3tPKV8yjlU/rUF+HIHHWA++NLgz/vpSV4gghhBBCiCZWgDaswNkMUXtyUW7i59y81drFx6xW/u6LL/L8w4di/t09e/g7VVX8nYx84V/xPa185Txa+fI8tI6MdcTHeLfVzndflV6Wi+X4rhBCCCGE6FXqssk64X9CkGGEUD++gNkMWff234r/8u/9Y/Hfcvbj55/jJ01NwoGRMh4+xI/nzgEVFen5AuG9YFA9X20eo/mCtbqOMrQc3xVCCCGEEL1KXjYRggujCpyNkDWHviuEyOZn+dHfO3m7RW7PVmHlHe0DfDguv59yzs3ed/Nj8svijPFuti73OfmlScT2f4vt8UqzjmLErwzw7m1W6TizZNnk5D2BOfndlFneV2teGzWxHWO7OZ9aqeXd1vtzWecqt8vHh7+T308Rz9X8bTwJKTelLptQb1GEELIG6Rk3SEo16L8pz1SohQj6n9uIjikXhqLz4h0zPh5GT0U/GuxtCOock1QSRJvqdkqp5mhUnq5wwZfYsl4Kyq9MsJDA5EkvdnDVqHpMsb2PVaF6exN6Tk4ikW98IJ0S59tgf64flQfDmL8vtB2cR/S4C5MvV6PuqLFxoMTjoDi2aWlrP4o/0qUgnR9pPSkaIZyr9dXSuTqTOlcjGKgdRUN1AwaL/S4QsgZQcEEIIWuQrg4yZnzg5OmLEfu4A9473QgFPXDa5OH9H+fQciKMgS0jaH1nXMrTxQW/2rbys/DVypOUE7GwWoW6vgTcp8OI/qDY5ngU4Y9bEDtSh6rnBosvrC+E0LNnBA0jExjazcEijpFkga3Rg0uBLkQO7sdwTJxSF62OT2b7zDgrmJv9qMkMWnImEwLdPJJneuCd6sKocK6uT52rNjjfDWJ09yT2HxwxbRBbQh5VFFwQQggpqYmr47A0N8GhGBBUYoOrhUPyMit0yzmPnIv98F5zY/T6EDq22WGVy6uix62wb+vA0NUhuL70ov8LOb9QtyYRSjrR0qgyUlCjCy0IIXRVfl0ONnkwrRK8aKf8PUEWK3QxAOx2pQ1eK7GiZXcLcMHAALqErFEUXBBCyBqkq1rUZi+MVaQxywia5G3IruakVS1qI7xT8iRlJ4Fkmd7ujhzcKB+/NnZk02lVi9p40OyzIor+repV2sTzdLmrYC2of1jJpKH6e4SsWRRcEELIWlXrw6zqHWJlKv5ucd32eiTPj2Eyq11BDMFABJbGhozxhNwYk9c/fUB93Br3ucztzD39itnpgW8bC4i2d2L4WhQJZbn1XgLRa8PoZO8Ft/XC86ycX6gNDjgtIQQuqxSCLwcRgBPO7fJrGdc3Kx87P1xyXpr2sbTju5g0xoAqTDWqcy3Mzt6X/8zrVkQMiCM3CwtHnDtbgLOjCN6TMxYlEPiUhV/PN8Ah5xBC1FFwQQghpKRsrw3D98RhOF39CMXk0vW9CAIvN2D/DTdG362X8h5FFRw843EM2VkQUV8H+88UTwGq7KirZ0HH5iHEx00orFc40fuZG2F3HTrPRJAUg7kkYpf7saNlkAUSA+iwiVOWGQusVhYQRLKfiESuszz2prI2WS7J8ZBYbWny8nhBbSMsu3vhqx1B084ehL5NnasxhA450XahHgN9bt3bQshaRcEFIYSsVVNebFRUd9FKRffAJBSwr8xiuDaITnultNyqBvQueBCO+uFSaSJQ9haPXRNG5CxNFVZUP8H+3etHXOzBSU734/DvZflPVMOaVce/MNZmP6JXPJjva0Cl2DNVJeyvBuE4MYeJAyY1xC6VonvMimH4gyAsjU5w50cRyHr6oIMYDM5htH4cnZtT5yrHguA2hOfC6Cpxmw9CHgUUXBBCyBqkq7coOZlS1chiR8uxS5idl5fLCtYTp7pQX2BgMfKCFPioJ1bgL6RgacRilbIxuOWscmF9tgv+q/HFz29+5hJ8uwp8ZHG6SeX4LqWmTwt5PlAiX/Si50sOvcdH0dMcQM+RApteV9iyztXpgAf1QoBICMmLggtCCCHlo9nPCnQa9f9FWl3RKhMr8D8uT74ipAbKaYXw0yxbpaCumr8sDZjt8FzPHThqdUWrTGN7C68kpOxUQO/x0XyKthDB4dcGUfW2H55NVriP+WA92oH+G/L7pSCeq6XvwYqQ1YaCC0IIWTNyD0CXNxU7sNz5NvXlZqXsnosKIwUi/mb55bKRCu5qhXFdqejG0tnBjVYqusqbTAxETmmHhGqUT8/G2lmGSuPxzHz1YCiB4MsN6LH4MPau3Nx6kwfBj6rgrTc6SKNM97la+rE3CFltKLgghJA1I/OuvzTw3FKPQXnyDRYes4h3ehXLU0vndFYyMjAAW0GjNWtUB6p7v4DC+DKO0C3RE9zoHXRQf6Bi6qjmei3EMNJiR9N5F8YuesAp2q7YXhnF2K4QmrbvR/COnKmXnnPVpEEmCXnUUHBBCCFkleLgm1Ep9C2mwtpD5KoONPF7g88U9I7QXd+PiKkBhrmyA9D0JD5hWAk3xzAcccJ/Xa1jACtcJyK49HwI3r7Ceo8ihBhHwQUhhJDloaeqyQt5+15aVZJnvPBOdeFSrhG6J1nB+JoX/Rfl/KLpedpQzoMOGrClA5cio3Cvl19nscL5wTSm++qNdSGr51xdsUEmCSlvFFwQQggx7iwrfFXuR8jw3falAfK0U64G3WvMjcOoWdeAwW/l1wbke9ogpJUZdHA1NHgX6DlXqUE3IZkouCCEkDXmwddfy39l03ovM3/8cgCWfS1wGhif4cGffpD/Sqd3nSlmbH8+RpfD/0k9/7Gn98NXO4gdW7NH6H7wx2vyCN1tCG7zwbNTzlesI3YlhMgzbWjVvDOf7cHX6kVvo/uklS8oZJ4lS21CFr76KqOwriNfpcG7mdtayL7leo+QNYd9WQ0rcDZC1hz6rpByszAzw3/Hzsv400/zD25d4X214Lm+WTE//tRT4nta+dI8t9hSJvhum43vviotMx/lMoTvhJ702w2Z65Qsbj/3D3lOMX2upFxWPunHIX292cdByP+E/y3La83IFyxu6z/Zyn/xr17knVtsvLUifdtsTzXy3Scm+Pj97HXw/DzvbwbvGpmXFpiHcv6jf5G+Hs1kqeb/hv2rue1P1+hfVpU96/hoUW6rvuOsni9Y2tbsfLV1nP+N+ramrWNjlfo+qiV5Wcp1EFLOhPO2lOjJBSGErBEPolH8l4YG/L1vvsGfb92KxK9a8S/OR3GdlY6F/D93OMT3tPKleX4F3AwhYOlA2zZ5wTmk1plaxvc//zkWWN7C7Cy+f/JJ3P3d7/CA5d9tb5fek/NP/Hfp62QFt/Tt37YDX2gsK3MdymXlkrmtmevNPA5S/iGcYOv9TJmfua1PPQ3uo8v4qwvjuPN1+rb+bexv8a8bq/Cz29nrwEIIYxda0Nacv7VA5ja+HNd3nO+++Gs8La9Pddu3/reay8r6LF/4Z2nHR0vmtuo7zir5Wduana+2job/kL2tWev4p/88a//Sjp8iP7UsYTmEEEYOMgwpcDZC1hz6rpBycsdq5e+++KL04uFD/u6ePfydqqqlfJYn0MpPzWOE0WVr5ivn0cqX58m1jlyMLGeltzWTkeUux7YL72kxuhzNfBO31ax1ELIalLpssk74nxBkGCE0qCpgNkLWHPqukHLy4+ef4ydNTcKJKWU8fIgfz50DKir05QvYe/gz/Q+9da9TILwXDKrnG9nOXOvIYTVta6ay23b2ntZ5Uo7batY6jHw3CFkppS6bUHBBSAnRd4UQQggh5aTUZRMKsQkhhBBCCCGmoOCCEEIIIYQQYgoKLgghhBBCCCGmoOCCEEIIIYQQYgoKLgghhBBCCCGmoOCCEEIIIYQQYgoKLgghhBBCCCGmoOCCEEIIIYQQYgoKLgghhBBCCCGmKHiEbkIIIYQQQsjqU8oRugsOLkq5UYQ8Kui7QgghhJByUuqyCVWLIoQQQgghhJiCggtCCCGEEEKIKSi4IIQQQgghhJiCggtCCCGEEEKIKSi4IIQQQgghhJiCggtCCCGEEEKIKSi4IIQQQgghhJiCggtCCCGEEEKIKSi4IIQQQgghhJiCggtCCCGEEEKIKSi4IIQQQgghhJiCggtCCCGEEEKIKSi4IIQsoyj6t67DunXr0HZezirUzX7UsOWsW9eGoJy19gTRZsaxPN+2LMcx+BL7vF4qfi3RozVYt7WfnU1akoie6URdlXSurVtXiertnRieSsjvp5h0/HLIv606LdNnVB7yXyfEc0n8bPWlXJ+xkWXlPFfEz0h9vsxkyjlXyDUwtY1mnJOPijX13VoeFFwQUraWfmD1pFIWkPJJ/TjXHC3m50q7QCEW0IT9NKFguroUUfjV/MGUjnNxn5Wa4grquQt4Rn74kwi+asfGN+PouhLHPM+Dn4/CvycK71Y7277MAKMQZgQluT6H0gc9K23tfqdz07qWmnONXaOKDB6MBJ9CKvx6rb68zLQargsUXBDyyFvBICXrgrkR3in5PUIUXKdYECAEApnpnFueQqepXuz/pAq+K6PoqLXCIuRZbHAeuITR15IY2dODcXFCspppni8ayd8sz5gD1zerOq8y5VxOs191nqU0C1+tPO0yUC0UvzAivTnlxcbM91h6lAPaQpXiXFPnxpjK8pbSGJtidaDggpCyZYfnutoFRpmW98dqtUmw4KaK/WBWvRSEcL968W5pRqqsrsGOtwKIJqX5RItVDjJ/cJMIvlwlz1vF3ksg8p603LqjEXkac8ViMfkvkk/0YhDRLW1wbZIzFJzPt7CPbxAN8ue6bl0T5KLWIyDBCpNVi+d6rjuhS+ez9IQk+264tKx1Va0Y+Zadf5/swLrt/YgsyG+bIBGPy38VgwWLL0j7lL4PSzdUmj5VfqlLLO/dZ/03VyIHN6bN23RafmOlLETQv13Yljr03xAypHNHuY3KtHiO6b2O/ru/xmHxM0st3zzJe8I3IoHEPel1oTSrOIr7WIP+m/JrQsEFIY++FQxSsu7kLWMwxC74zhdGkLB2IXjCBaucrSYZiyD0fis2Ppe/AJU434G2k1LVGusbQfibreAOjKKX7dfkwQZ0XjCxMHMzgkn2T+hCiP0UCzKfQj1KhePl0qG4O2jynUCVwuXGg6UJODMlznahla0//Vzn4JtRfv+klO/OauSokxVm7fCNj8K9HrC9Mgp/tRdN7whnoxliCF+WA+bJSHZhTTcLrLm+2Iz1cfHZlS6ZBXq1tNLVktK2cbMXuc4uo3fchaR+bghVDRvgvcYC9ONBeLbI2UXIuo7+5lfoPtPLzthJeOs7ESwyEFiSROCMUCEqiNHzxV2b7Vsc7JocZWdvhliUncMOcCo3NNYqCi4IKVt6qjM9mtWMUncjU8l4AS2Bkbe8YsG85SMf6iuk3CVLj5/n49MY2iWXUK550XMmxw9QYgRtQsAi/L3Nh/CxejEbFRy6T3azMC6BYbcX4ybd4Z08MYiIzQYrKzh2iG0FMgPFfIXjETQpjqOUtM6ZpWkLKkDdiogFnQj78V1J9p0u2G/4EVS5ixi6EIDlNTdc8mvTqVSLme3j5DdLaGEcPS8H0HJK7Vw3Rnja13AwCve5kKIQaYX7SDfwnhfD38pZxbg2gP4v5b+nBjHMCq3GLN01T93RTw8Mls7xxWvJcrbtqPVhNuM8yEz5ArzMKlpj7fIbhUjGEPqwEzu4alQuHiOWKqtR4+zEIAv0cha7r/VivxAIbOjGwCs2OXOJWnWynPundR3d0g3/23b2/jDaDplUefFGP3ovd2DsXBdCh3oxWey1ORlH1jO3eDz38VuDKLgghJgm152/mvdMuIN7umlpmbnu2k350CM8gmc/hr17c9+5tFg5dLAAxCm/jnw7J/+VQagWsFNuFGhlwclFDzhlQW7bfnieYf8mBuHLFaDodeMw2t6zsB/GKMJ9dlZIchZQXUCtDq/W06OlaacPsB94g5LjITGYm7w8XtAPrWajyVQdcb1qvRjYF4f3uVYM35C3RChcHd2B1k9bMHok9UmXB/XvjPREKi3IznEckmd8GLR60NOs/y69msSXPXC+EIQrEBWfyKWp7UFvcwiHjxf5PU6wwGDnYcXTiigOC98r6Sb2ijByh1/Xd0OjPUNaKrC3prSC/IwPeUNXdrw77dXY8eYwQjcyggj2vYhcHsZ+ZzXsL8vV6bIkMXJE+rxajvTkX18+ea6jjtc9EEKNxIc+jBT79EI41xpH0TE+BFfzAMKvs3ObBeEJQwGG4iaf+B1UuWGTkV/40y21m0HKtHqeVFNwQcgq4D6X/gOnlgpvRLY8IhH9F9zM/TV693f8uPTDbW9vK/7HUBZ5v02sFiBUNekd98OVVR3Dho43pXvigU/82Y/OjbgxjB31PbD0jaJ7iwXcgTCm+yzwbq2B98IKlsI0xTD8QRCWRie486MIFFooaB9L+9yXEjve8iT5WeE6EcXsB1UYrK+UfpR/xsF7vQXBGbXPbWWpNyKWnkilfQ80G7bH4P8kAO71juLO9Rv9cNYfBvrC8Kee5KWxoGWvC9GzwYIKxYLk1CB22FkBSTiFrS3w356Gbxv7O8EKVfYd6P9C77ntgj/teOlIpzLPoNxtBvKmEj8JyQw6C21zEXyzCcPCxYgd74Grs4jPLx2T+fgsLvU5xWp0sZNN6EprEyGL+TF8VvijBa1FBq+CvNfR9R3YL/6WBTD8aeFXUfFc4zpQeXzpCRx3IIThii5wrn6M35Hy8tNTrTg9FXJzJn9nAEup3H/rBRRcEEKKpuvOX9aPewGUhU/Nu3YRhC4K9+cscP06f3ErmYhg+HUvQuIrO1qeV/lhGO9B00GpvrlDLPCLf2ax1DvhEP64HECokAL2QhKRk62o5joRfy2M0IHU9ksBRvxyByJC3ecvTXgyYqYvetHzJSssHB9FT3MAPUfMqptfKAvsu4cwEZfPlftxTJzqQv0T8tsmkZ4sVKL6F9UZqQrrKvcvU69UEwhdtrDAoIACTcp3AbTVexFl36+lcy6bxdEAbiqE8QLO7cjROlRu3Y+QED/YWGBxXWjPwcFzMYxu8YlfCN7nqlD9Vu4nX1qdMuhLJW50m1lAXLxGqbR9ue5hV5tSiyIifxW5Qz50bbPDqogPLFY7nAeG0CM/yZy8oRI2joeka2OjC87HxZzC6bqOWlDfKF5FETqfamtmTOLiftQ9H0TLxSiG0p7ASTceQs0htLn7ESmzy+ijhIILQlaBzDYIqmlVDIq0dBeodHdfopgWqw81wKHZwG7p8XNlVQ06z0p3TB1/YIVjlSpDwY8H5WPLobU5R8CygUOd+MeEvA1GRRE8HkbdB9MIH6lXNMyVWJ/1YEy42/uM3juIao/ZTW6nsxDB4dcGUfW2H55NVriP+WA92mF6jy+lId0BN34uKu+cz2Pu9lxGioOfHxCrd5Sc2Ohf61yPwLs54/NXuU5EjnoxkuDgPZS74wNscbDgOYpoAe0uuN+HMNpuA/fKKGajUkNxkbUevVfiCPe5YHvGh1BfPSteLocCnn4o0+LNkhxt4xarbqp8DqmU8Xnku1Fj7K64Ha5d0vSRI14MXosioShQJxOsoH20E73i9UD9xkr0phQMWGprkN3aQpJdtU99TAm911H7FukqiqvT2lVfc7DuHMD07TF01aqdSRZwb4xh9q884PKcaGUdyJY5Ci4IIUwEEfEHhhWOc5Sd88rbFeNSKll/6nIPS0I1pWqtX8MM1m1uDLACzsS7DtWCjevYoFwtJ4Ke3Ydz9CjFgRODkxiiGk03cqrg4Bmfw9gbXPEFrDyP2Qt6dJ8lgeDLDeix+DDGjp1okwfBj6rgrV/ZevTKLjDzpZKdi4z9wPQy3KXWOtf13THn+sIYa59DD/vMAnmri0QwPSP/aUSFFS2n5jB9vAX2zJObvVd/YAxz46n699o3IcTjqdyfxbTUlkh7vIppFgBL02QpttFzmeLeGcPQ8+zkSASwf/tGVFUu7Vtl1UbsOBhi32IbWkbCYo93mSLXpeK9/Rc6L6Y56L6ObmbXUeHfWBSFXEYNE6+V2VUvtc81lsRqimpt2lIpx7m2SE+nLTlSGd9QpOCCkLKlUtdzsd61ykWtyALMvPxvOSi+t6h80o9f/KofXc/muGf7hBt+duzFKaZ60KDZ+NFMUp3wUhZ8i7IQw0iLHU3nXVmNMoWuS8d2hdC0fT+Cuus2m4wFOdOKz1g9FdcVre47mzkKAbkadC8fG1wnwvBtGkHr5lIHhcbaOmie/1nB49ITuaxjmq8QVlSjZ+N18tOS5nU7dZyKvANewaEjOIf5yCX4+zzo2Jlamx2uVzrQ/dElTP8wh9G9hQcP2cGcRhupZb+OGjnX1J+2lFbuc0fsIUyzHRpLy1K1rjAUXBBCFHf7TeqrO0dXjEV1qajHJk5q94AY5opqVZ3O2jwIf7sUgCRON8GpOmBeDFGxIGBBVZWYUWI6qvWIT5NK8MN5cwzDESf819UaSQt1myO49HwI3j4DvUcpewNTS85hdoTLTJ5uR7U7I8hfKNVfXav4AcLEp2YXhWBrBE07c433YgMrhz9Sxt9plRs9O+EL5Wr03IqeL8RZVBi7C23KeBmLAbRGYV7BssUJ9wEfht6QK+vVdmHg+BB6X3OCy9GWgtsqnb/R2+Z883RdR8VxIxhLFYq7jOqs+qbZWUKKSpCi1XPUcnZ5XMYouCCk7OS427LYHaVaXXo5LV7cDPzYLdYNVix32R+56rgDqKtRuB01YkPBMCZNrfMqFJhD6N4gvZo82JbdruAe+1EUS9K52nuUIY1qATlt6cCliKLufBYrnB9MY1pnHXpdnQKEOljRVidd1aIegUEIN9hZMF1oG58MVlYYG/fBcc2rfldZvAlRA7vmZ66HngKfkcE2c1RNyVtolMTlhgjcoSF4GnM1ek4KQxqsAjp+Q3J1l6soINs3SbdqklPTJgX2+a+jydtR6YZEvaOs7szn67Wx5DfOVhEKLgghjxgOzp1C6SCJ0aDcVYpZKhzovcAKX+ILYSTZjCokl8ekJwS2etQtloIjOMytQ8OHZXfPfQ1QH6E6M5Wuc4FlwM7JutoYxidNOr+2eBASCuXCXeVD42kBRvJqCBHluX3jMAvgGjBoxsB6K6hKjiYiRzrRfzlXo+dcTyT1VY9adQXQeqc0BlChPeCpyXMdDV2QghvbM3VLNxMekXNtraDggpCyY1YvJqWqC6xDjrtihfbXbkT9q9K2x94fRqjYEVkzscLX6DG58bLQP3/LUlUdYQRogf2VNvmHk4mFEbpRj7ZdhddpJkSb1CNQ6MSoaVXGrM1+hPscmHyvQVFtJYnAmSBs+1oXz+3YFRZsPNOGVgNPMh58/bX8VzqtfP5PGtNHv5P/yvEUd/FJr0RrHb966QN0CF9PoTtcp1ajZ1bY3TeK3mfFWQzvh9F8AS/+P0dPU4oktE1ZWlb6b8jCV1+lX9sVSfU99huyuCxbGzp2CX8EMXDSxBskWtfRhRCCZ4Q/7OhwL15FCzrXyApiJ5JhBc5GyJqz5r4r59ziPutJ7nPyPIWa8fGcuCw3PyZnLYnz/mZpPc7jc3Jeid0e4p3i9jj5odtyHjM/4uLR7Ofn5df6jfFu+VjlTbU+flaeK4uBz4Tr01yKKcba2Xrasz8to2b7uNz7LFg8P3SkfMvSIG6H2vIyU4HLTyN+jmrnOiOee3a++7r8uhRuD/D14HjfjPyandHCd8w1ou/MXpiZ4eNPPcWzkIB/cOuWnJueH3/6afm9Wb7vl9Kxa03LlwjzCNP/kqWsY62WfvmX/B+z1pGx7qdq+M/ffpF3brHxFuW8f/YYz9W/yPuCs+J32Nh+ZOd/3iItV/iupfZDbf/iT9nFfV/cjjzptxuy1y3IvY7c+7HoajdvZ69h7eLD9+W8Epk77pT2qXGIX7pyGzvXDMv13RIZuBabcH1LMet6qUbY1lKi4IKQEqLvygqKsx8Eq3DBd/H+uJxXMvP82D6r+Hk7+qblPInwA9FSqh9FQmQTb9vFILY0p3qcH91r4a1vhOXXzH32/apo4f0/yK9zWJid5b9/8kn+7u9+xz/45hv++5//nF+IRrPy77a3S+9p5Svm0cqndZi3DqXpPod4fbO/PSHnlMAPY3yHeM128L6InCcwcK4RfSi4IGQVo+/KCov4eAf7DLDNx0+X8I5b/Jybty7DegjRdH+a920rzZM68fze0M1PFHhu37Fa+bsvvsjzDx+Kr+/u2cPfqarKyhf+Fd/TylfOo5Uvz0PrMGEdaeL8WLtwA8XKu8+VIoRNLT/7Bg0xX6nLJuuE/7GVGCLU7ytgNkLWHPquEELWuh8//xw/aWoSLohSxsOH+PHcOaCiIj1fILwXDKrnq81jNF9A69C/DvJIKnXZpMyDC6ErzY0Yfmm2yNFkhW7Z2Bfm3CrvFYSsOhRcEEIIIaSclLpsssK9RUn98Bc2mIzUj7Pa6J3iqKllPCw6IYQQQgghjyLqijavHIPRZKXco+AGX1KbRy2txDD0hBBCCCGEFKcsgguzhpUvDbOGj2dL0jMCrZ4RRRci6N++DnWKYfMTfxwW++euTAUolRvRejR9AKTyJQVwhT3BKlzskx1Yt70fEbPHQSCEEEIIWaNWNrhgheSJKSB5fgypYnL63f2N8IqjYhKlyNFWeH82hOABTnydON8G+/ZhWP4QRvy+FKTM3x5D28wA/DfFScpDLIj923dgsEy2yfbKKPzVXjS9Y/IozoQQQggha9SKBheJM4MYsdpgu3UYbfJd+PS7+7Pw1YrZmkZeUAYjUtp4cOmOvtLitKu5Pca3w9h/CPAd75CHxR9Hz54RNBwPorfRBkuFmAnLExxajvvRtUl6XRbuRRC6Noek/HLlWeE+0g2858Xwt3IWIYQQQggp2MoFF4kAul4OwX0igsg5N6IHG9B23nglHvc5ZTAipdk+6Y5+psVpr3ugv+8pnW0uXhiRpy+tyPHDCO3qUQQNccRZad1qtcqviSG1PehtDuHwcfWAlBBCCCGE6LcywUUihP3bWxHcPYrBXVZYm/2IBloRauHQ9GGkjO5sL1ELYrKTHy55+tIYx+DRKNz73LDIOWBhkn0DMHKkB+N5YjOxytlLQSS+7Efr5kopKKqqg/eyMGMSkQ9bsbFSDpZ+0Yr+LzMWmIwi8NYO1FTJ0zxWhbpXA4iltVlI9eKVwPg7DVIbELZOcd2bvWChJLyb5flZviF32P6/VIeqx+T5hfW/NKi+398G0tqgVG33IngnIG+bPI3Igpa9LkTPBql3MUIIIYSQIi1zcJFE7HIPGp7cAf9WPyInXEjdb7fuGkI0Mojqj5xoPU3FPFU3wwglnXBul1+LOPRe8KH+j4fZca1B55lo7uBssgdtx6zwXZ8Hfz+O8GtAv7MV+99kx32mA+E4C5Lm5zDaGIK3sQvBe/J8TPSTHgS3+hC6LQVT87eHwZ1pRcO72Xf9E2d6MWz3Iy4EXadcUnW3GR/bWg6+GWl+IV+3m4NoqG5Af0WPtI3i+kfRFmPnk70NQWWAcaMfdSw4Cj3DzqkfhGnnEemrRn+zl4Vn2SyOBnBTIYwr9pUQQgghhBi37MHFxMlhJN4YQ/QzN2xy+4AUy6YWDEXmMNauv9KSkTYXq15kAhELhxqpscWSLR6EvwvD1xzH8J6NqKxuQv8XGo8xbjbAM9IBu/Doo8KK+iOD6LKEMHjeCf8xF2xCvsWGlj4fnMkRBK6Ic4nsb/gxtM8B2+PSa4utBT0HOdW7/sF7dRjYZ1c8YSlGEiMH92P8eT8mTrSAW1y/E55gCN3WEew/lvrM2bSHvJhs9iN0xClvqwW2Rg8uHXFhTpwmwxYHHGwPotTughBCCCGkKMscXFjhOjWHaVaItWYEFsbl6SLWULuK/NSCGLVkSneqNjuq5T+zbLLLDbkzWOvhCcxhfmYM3Y4JeJ+rQvXLweyuaHc54Uw79jbYhfYbzzXAocy3VYvrmU+r8pRE7FoA/W91os1Zg+rqStQcUg/knM87TQosmIUgxs5CrA6W1bKkwoGmZguiF1IBTkh72uecaJH/zBbB9Iz8JyGEEEIIKcjKNehmRcHCR+deTipBTGb1HkWaPlBcSBOLxYAnqrILxjpZNrnQG5xDPOBG8mQTOj7NqCRVUWiRP4HgS9WobvZhbrMLHR+EMHk9jmmNxvM2m2oIVJhbUYidxWoEpLZfsGOe2s2bEe1pC953QgghhBCixwoGF3rY4bmer8CeakAsv1zl5hNzQi0ebXfiugbGs+7qh68RCFwIyTlF+qIHrac5DFwNw/daC5y1NtiesJj3dCIXW7X0FEpjsLtEPA48aUWl8OJxq/ZTn9gctIdrtMGuOSMhhBBCCNGjzIMLs0hPH/zN8ssyFolEAI5Tr9K1uQZcbBIRXQ2P55H4jhWZ15tUYmYF+CTbquq0BxIJhC4bb9+SNDoi9uNOtLBAaeTkSHZgtTCJ0U9jqN/VJFUXszWgfoN6UBU7PwLVUEt82lED+3r5NSGEEEIIKcgaCS4KcL5NtU2FmDK7VFVJS09SdI6TIaemk2yW001LecruWjcJDY9DCP9Rfi0KwuvqQeBaFIlU1aB7MYSOdqL3hhO9rzvkzCI5nHBiBL1HJ6XgIMnWcciFnnEDzy42cGz7I/CfMdrdsA0dH/ngYJ9J3cuBxeAqGQuh3+XE4Sd8GH4tFfVw8H7ghuXjVuw4GkJMWNFCEpEznWgZt6l2FZy8GkLEVo86E2tyEUIIIYSsRRRcaGn2Z7WnMJKWnpLkaXieLym7a61womlXEsMjyvvvTnS9UYXR1xpQnRqj4kkHvNdbEJy7hI71wIOvv5anTWcof30HRkMe8P9zHSqFcSaqGjBY1Y/AIekZi65lVbjQP+JG/N2axfEvlCIHNy4FVamUmmaLB1f/7w/RcsuLup9J71XaOxGsHca3p5rBKdpYiOOmBLvAH9shHZPKarRddCHwUetiW5al7UoicCYI275WFvgQQgghhJCisAKsYQXOlmGW99VCXFb+5ObH5LmyjfFu1XlUUq2PrXWVu9LFW9HC+3+QXzMLMzN8/Kmn+O/YPj64dUvOTc+PP/304nta+QLhPa38Vb+OSC/P4R/xPX8hzSO6PcDXg+N9M9JLswnnHSGEEEJIuSh12WQFn1xIjbXZNuhIuUa+NvBkwOTuaVfEs70YbA6g54jYJxIeRKP4Lw0N+HOHA3/vm2+Q+NWvwArTWfl/vnWr9J5WvmIerfzVvo6/+eDfIrLuP+G/f0aaR2gzEjjoReSNYXiE7ngJIYQQQkhxWKHbsAJnI2aJj/Fuq5XvusLzd9i/d198kecfPhTfurtnD3+nqiorX/hXfE8rXzmPVr48T7mv428qf8K/9Ktf83PC0x0hv+UF/mxlBf93sY7f/VzL4jzxc27euqGbn7gvviwJ+q4QQgghpJyUumyyTvifEGQYIdR3L2A2UgI/fv45ftLUJHwoUsbDh/jx3DmgoiI9XyC8Fwyq56vNYzRfUA7rePg9Pv9iBN6PQ4iKLcct+AebfoVDr7yONw/sSZ+nxOi7QgghhJByUvKyiRBcGFXgbISsOWvquzLj47nF9itSWyj3OfGdZSC14eL6VkOrqiK3dbmPc9r6csmzX7qXY57ZPq7s2tqV1zaZ8L0552bXObldpPLvIpTj56Zbsee54hiW13Eo9lqTPv9YO3i0F3ummHWMlvv3auWVumxCvUURQnTQ7lK57v3lGGW/yBH9b/ajRmXbNdPWfrZG/aJHa9SXs5hq0H9TnjiXPNtZ8P6rWUhg/MM21FUtLb+Ka0X/F3qG6SwP4nE3+FktMdZN+Lp1bWyObKZ99iVSzDEKvqS2P6mkfjxyEs65o63YmOrZsKoObR+O6xoYNo3YVXy+9Zs8wO5CDIFX61Al9JbIllu52fh3Rf2zKPLaVhTtY1T4eWPm/hSzLGne9HNWkdwBeTpSChRcEEJ0UOs4YQLdNoDbtAq6SdjkwXTW9udIBjt/sB+YVsw/C18tOy59s4q8aX2dBqRt5xjcLMt9LvWax/QBs451AsGX7Wj4oBI9V+KYF5Z/fx7hY9XwP1elM2DMLJxvhHdKpUvpjC6ny4fRbsLVOxYx7bOX6SrUiUFo6YMW16nUPvCY7eOAWh9mF/crV0crauRz7ng1BqLzbP55zAVciLzZAPvLQYNjHy03VlCtr0brpAujt6Vtjx7n2HfFzgrmKxWM5yk8p6UCAsFVT6vTIPl3y0Gdz5cSBReEkMLci2AyxqFms/y6pBKI3xEGii/2h1z7Tp14l9aUgnAMUVboi96Oya/L0Bc9aD3NYeDyEFpqrRCHwqywgHt+AKERFybf6kEw70j6mYVztYI1S8qxekyWiMeBO3Hjd77TaN8dNX73tkw/+5tRtmUrjJ1zbaer4bswAJdNOOMssDX2iudb4mSTNPaRnDYejEjzlInkp154r7Hz/WIvnIptDx6vw8ieHoTyfldKJ+v7ppqMBoLFkK7VZevyMPpjdrQ8v+r7Di1rFFwQQgrzxzBCaIBji/y6lKZGMcJKR7FPR1FcsYNDHSsAx2KZRa0Y5r5l727l5NdFuOzHcJIVSD7xy4WOzDuM0h3+FcUK5ckNTXCul18rWLc72VGaROSWnFG2Ihj9VDgpRjBa1PG0g3OoBwSx2yyscHC6n2Ilzw/In/0AgvekPDFAWbGCcwzBAFtfMoixFT7nxj8bRqK5B10ZT3Gsu7uyntCJT0nyGkGT4rhmpyY2hRmSCHwagOWNHrhTo7DKbPs8cCcHMXxBzlilRl7IPn5a5+nitFpB97fsd4F9lSKB4MoHtJkWIug/OIhkcy+87HeAlA4FF4SQgoRGhpHc5YRTfl06CQSODMJ67BKG7Ifh/bT4aghziXn5r5R5JL6T/ywG+/E6/OYgLK/54LENYv9R4Qc68/G8dIc/r3sJ8Y584l4JKoxUVcFyawwhFlBlSlwNsWK7A9wGOUM36a79ckmc7cXgEz5cOm7H4UMjRT69YEXIRFz+a0k8YeDYJ4LoeGmEffbd6LKMoO3QuJidXm1KZ8F5youNGYW9tLTZqyvITpz3oOdLFzra4+y8HNYs7C1VZdOuPhOJsDWmnhKJbR7kbXlBTxE+ivDlJLjn6qWnZEoVdXA2suvJuDR2k35ujCmOa3aSqhUWL4TQeaClsV5+rSBv++SUnk9DlvXZZlQn1HU8l2RVQ1RJ+dosKAO7VNI6Txen1ag6Ot7Xg0g7Cxj/2I+Ba3KmQio4aTotZ+QUQUQ4NsK5V7QExt9pg/eaE0MfuZERJxKTUXBBCDHu3ggGPwa6bGNL1Rl0FniMihx1oqvCj9DvnegIjMH6lhOHpwwWuBcLQxrtArLyC6ijnIyg/7ka9Fh8CH/gge+CD5ZDDdjxSYFHRXwyBExcL8FRfbYXo+0R7G/sRGAqIdV3X0gidrkHTncQjmO9cFWIU+p3k20vW1CkFNub6UY/nK8D/oseOF8ZxZiV/ftexFi9fUXjebGgc7pJ/uyXUnp+jjYO7LM/vLMJI5uEz74XA+M+2D9sQMP7BR6LtLYNKmnGh3whSuJL9lm+EITrnB9DJ8Lw/dAJx8tB1SBsqWqNVvWZKCJX2T+xcUwIEUqzf2lbzukvwjtU22fZUL2eLfrbOfl1+RFvRah+H6Rtj0T0V5zL/mwzqhMaOJ4CPdWizGurlVvibBtcp13wfzCAwc/qMbiTXUczTrhUcDLWLmfkci2MMeHfC2EYDT3TscDikBMN7yXQFRpFh8oTW0HepzJENwouCCGGTR7pQWCDB10fKQoZOgo8hiwkEHxzI+oCbQidcEl3mqzsh+tyG8a216DzTFR/YVJZGNKVjNVRTnzRjyZ7DbwL3QizAi8nFES2eBC+7kX81RpsfDmAiFxNRq/J4CisNhti50MqP3QReDcLP4SFVv2wwnUiivCb8+h9rkoKEB+rBPd6BK6/msPE740XRiKnBqXg8vQwRgzuqxGJC/ux0TGKtsvsM5JOCrYvIbSdq0MNO87S2DY6GG3kr9EwO/XZ9yD9sw+NdyP5Vg2q9wwb/uyLkowhdHQH7PXDqDsXhb+ZHaQKDp6LYXRcb4L91/0YN1on/tsgRu940N0eQuCyoRAuTSKpPa9tfbX8l17LVS3q0WekWpQqsRcwds61RNAzLn0vreyaGz4UQdP2TgRuFktAkNwAAApTSURBVHbOhE70I/aME85iqj6ywH/w13Y0HLXAd30aA43azyzyPZUh+lFwQQgx5sZhtL0XR8dHPeYGE2nYD0IjB2/FAOauyAW2FKHQfnsA1iM7sH/FempRSiB83Ido8yjmxntRr/jtstR2Y+L2KJyTPvinDGzrQgjD7yfQerwfLVODGM76YeXgmxF+CIuo+lFhRf0bfkzEU4VnHvHIKHp32uQJDEgE0Hs0Cu7IALos7O+PS3PfL/JxA7i3LBi4HYZH2dZHKDxfmcOAtRc7Xle/O18a2p+99Zle8bNvmhk29tkXKXa2C20n7BieiWJICCxSrPXoHY/DXzuMlreMHaPJj1gh75UO9O7rQugD7epV+URVn05I7Z2c9QZ67zFws8DfLM9TsCpUCXW5VBtty221uNVaFM3TY5rOQnbyjz54PrBi8PZE2veSOxBCeO80ut4NGf9OfjuMwx+zAv+hUfjehvGqj0KQ/WEban5Wg/0/dCE8x64ZtVmV8kiJUHBBCNEvEURbfQ/m2v3wPV/KCzWHLlZYnD7mglWtOsITLvgmZ9MLT6oyu0s1mHT1HmWF6xTb1uMtsKlt6/oWDE2G0ftMvm1dEn1/PwbrB9DT7Ib3jTj6+8zqqjOK/u0q+6mVdFUPEJ4wdWDE1g3/gS70nnAhcrAV/Tfkt03EvRbGXMQH1xNyhhILllzHJjCbesqlyUgXniop7ZiY/9mLimhzYdvLAp3IEFo2qXw/xWM0jblT+Y6RQmIEPUc59L7FAY1d8MR60PuF/J5udjQ0WhC5Mp59Hi9MIHQ5/e55efUW5UDDTiBwUaikmEHedketgdssGm0uCqWnzYU5Y61IgYhasGbZ1oswC6TdWdWNrKh/l31njZxvogQCB/cj1DyMQXaNdxwaQMeVLnQZuJkUOd2Gtr4kWs7NYl4I/NWuGaR0WHRqWIGzEbLmPFLflflpvncbeGzz8dP35TylFR2huxBlOqp3xMc7YOe7r8qv436e/TTzXVfk1yU4zjlHy8054vA8P33Ewc5zB++LyFl8nC3PysPq5sficpZgBUboLkTRIwd/N8EP/cHFO9azY8A+m1Syrnfwrj8M8RPfydPptpLnaZwf3WvhuSPT8muWM+LisaGbn0hdA/SO0H2li7eqfP5zx508Gof4Ofm1QH3UZek4KI+poVTEKM7zIy1sGS7erzyfGXHbLV38JeX1cDWO0C1us8oxU0nLcU2f7mPXlMzrh3j+KK8zEnOOEY3QbTZ6ckEIySt5cxitmfXKl0lmV5650sqMcruk6G29E0BbvRfoGwML5CRWN/wjDRhsbsWISu9OKyYZReDlGtQcmkPHuZCiOoTQBiICf2MQTfYdpRnx28iI68vZOPNGP+qerMPhG070Xohi/r5cveT+PKIXeuG8cVh8vxRPdTIV/71JIvKeE63jHvgPLN2Zt+4dgO+Jw3BqNA7X9Gwv/O1z8D6/H8GY8PxC6kDA9Xocvo86kL8yntagaFISGwi3j6m+J6Yi6tFb9g5iaGcQbTt7EEpt+/n9aHh1Au7P2Oe6jNfDktDV/shAFcyFBCZP9qBpe/XiiOZSqkQ1twOdR4MabaOEhtd1qDkI+OS2G4ueHUD4mAXe+h0YNNShh/bYRqR0KLgghOQVvTyCyNYBTF9Jr1e+HDK78lRP+bt3zS5safUcVXgVgmK3NXbRj8iuMYQUhTmBda8fY7uiGL1SRj3HJyMYvWhD93gku3pahQ3uQBThN+YxeCJsrBCqh87G2Hm7fVV2qSonrZ6j8hdOoujf7UX0jTBmP/PAJQxOmCp0VlhgrXXB89ksOyZReHeXPuAp+ntzL4JA0AIfC4ocaYVnVsg/O4S6mTAihj5YIehk58Src9hvr2THtBL2VyNou6IMTMuVDR3BOYw+N462X8jb/tYcuq7IDeYLoDlop9ieROpQQvwMV1vj4nvj8HJVqOuLoeXjMKKKNl38/Bwmz3hgu9yBjdU7MJx5nU1MwH/Wwq4p6ucE9/swpvuAwYOB5bthQApCwQUhJC/ulUuY/qsucKu9PZwJXXyWklBffkK1zYBQMJvA6N4CGluXitBz1+1c7Qmk+tb520CsNLPGS4hgggWrrp0q4yEo1O9kxcapCc02E2XjcQe6r2Q0nE9Z34FLGQ3YdRE6ETgwitl56djOz4zCY7Q9ykphAXPLsUuYk59Gidv+7CrZ9nx0PQnU1/tW9JMu9N8TesobQsc2O6yPy28ILFbYWJDdG4xgqD6EziMZwZXViYFI7jZK4m9R0G1ywKXdnoQUhoILQsiyCbjXofJ1lYaRZO0624Z1lfvl0cxXszo0PAMEL0qD52mZHGfvP9PAplbK1fGA1hM2RdLV8QBZdOMwK0w3YLCcqhnqpfK0zUjSfgKX6oEud6ICONGDggtCyDIZR+isBR27Sz+mN1k9xi8HYNnXYqje+oOvv5b/Smc4/08/yH9lM76Ou+g66QP3cQM27ulHUBickAVM4vQLSSSmgujfsxF1R23wnewS2xgsLSu9S9CFr75KK9Dlze9RGYBDZnw/jOVL1I+jmeswc1mxKyFEnmlDq8ZgamXN8Jg96anUwYH9lUF4Hu9Hw9ZODF+LIqEc4yWZQIx9D3pcHDrHnRg6ZGQ0IbKaUHBBCDGHWA9efaAx0bUxjFo96GiUX6+EIrr4LBv5jnMBXKdYwePUSvzQT2LsjBWel/UFnA9u3kTin/wTxP/iL/DwP/5HOTc9P+FwLL734PsfxSofdzPyBcI88deE27jqg7FVsHmkv6XqIPycxjqU6977v+OLvx5D95YQep63o/IxeTmPVcL+64MIbenGxFwY/6LC4H5o5AvE/dDIz7+Ofw7+vlq+gXX0TOE7nMf/oMh/qLEs3euIyxvFKOfR3g8H+P+qnp85j9AYO3Q+BNebehqRl5hK2x61tDyNkVMDc+ZJ+TpIeLwevkgcEwdtCLzWAHuVYt7Kajh29yPWOIzZuUvoMPEalo/aQIFZiUbmNg+LZA0rcDZC1hz6riwRugy0/2GpS0tCxC4wN3Tzes6KhdlZ/vsnn+Tv/u53/INvvuG///nP+YVoNCv/bnu79J5WvmIerXxax6O7Dv7+GO+uaOH9P8gnFiFrUKnLJhRcEFJC9F0hxBx3rFb+7osv8vzDh+Lru3v28HeqqrLyhX/F97TylfNo5cvz0Doe0XUQssaVumyyTvgfW4khwuOjAmYjZM2h7woh5vjx88/xk6Ym4UslZTx8iB/PnQMqKtLzBcJ7waB6vto8RvMFtI7VvQ5C1rBSl00ouCCkhOi7QgghhJByUuqyCTXoJoQQQgghhJiCggtCCCGEEEKIKSi4IIQQQgghhJiCggtCCCGEEEKIKSi4IIQQQgghhJiCggtCCCGEEEKIKSi4IIQQQgghhJiCggtCCCGEEEKIKSi4IIQQQgghhJii4BG6CSGEEEIIIatPKUfoLii4IIQQQgghhJBMVC2KEEIIIYQQYgoKLgghhBBCCCGmoOCCEEIIIYQQYgoKLgghhBBCCCEmAP5/graZZ643W3sAAAAASUVORK5CYII=;" vertex="1" parent="WIyWlLk6GJQsqaUBKTNV-1">
          <mxGeometry x="117.86" y="20" width="667.64" height="460" as="geometry" />
        </mxCell>
      </root>
    </mxGraphModel>
  </diagram>
</mxfile>
